<?xml version="1.0" encoding="UTF-8" standalone="no"?>
<!-- Created with Inkscape (http://www.inkscape.org/) -->

<svg
   width="210mm"
   height="297mm"
   viewBox="0 0 210 297"
   version="1.1"
   id="svg1"
   xml:space="preserve"
   xmlns="http://www.w3.org/2000/svg"
   xmlns:svg="http://www.w3.org/2000/svg"><defs
     id="defs1" /><path
     style="fill:none;stroke:#000000;stroke-width:0.264583px;stroke-linecap:butt;stroke-linejoin:miter;stroke-opacity:1"
     d="m 48.172414,181.31034 c 3.034483,0 81.551726,-2.27586 81.551726,-2.27586 l -0.75862,10.62069 -81.172418,2.27586 z"
     id="path208" /><path
     style="fill:none;stroke:#000000;stroke-width:0.264583px;stroke-linecap:butt;stroke-linejoin:miter;stroke-opacity:1"
     d="m 48.551724,180.55172 3.034482,-11 76.999994,-1.51724 v 10.62069 z"
     id="path209" /><path
     style="fill:#ff0000;stroke:#000000;stroke-width:0.264583px;stroke-linecap:butt;stroke-linejoin:miter;stroke-opacity:1"
     d="m 51.586206,168.41379 3.034482,-11 67.137932,-0.75862 4.55172,-2.65517 1.51724,-7.96552 h 7.2069 l -3.7931,16.31035 -4.17242,-3.4138 1.51724,8.72414 z"
     id="path210" /><path
     style="fill:#ff0000;fill-opacity:1;stroke-width:1.43361"
     d="m 181.88219,720.74939 c 0.47544,-1.7741 0.87324,-10.09578 0.88401,-18.49263 l 0.0196,-15.26699 17.56177,-0.84697 c 14.27083,-0.68826 278.90924,-8.14154 286.37411,-8.06544 1.87573,0.0191 1.99729,2.42873 0.92324,18.30059 -0.6803,10.05322 -1.41934,18.47563 -1.64229,18.71646 -0.45211,0.48836 -41.13142,1.77149 -190.32704,6.00341 -126.96961,3.60147 -114.86184,3.63855 -113.79337,-0.34843 z"
     id="path211"
     transform="scale(0.26458333)" /><path
     style="fill:none;stroke:#000000;stroke-width:0.264583px;stroke-linecap:butt;stroke-linejoin:miter;stroke-opacity:1"
     d="m 54.620688,156.65517 2.275864,-6.06896 4.172413,-4.17242 54.999995,-2.27586 4.93104,-3.03448 6.44827,3.41379 -1.13793,8.34483 -4.17241,2.27586 z"
     id="path212" /><path
     style="fill:none;stroke:#000000;stroke-width:0.264583px;stroke-linecap:butt;stroke-linejoin:miter;stroke-opacity:1"
     d="m 61.068965,145.27586 13.655172,-8.72414 8.724138,-2.65517 17.827585,-0.37931 10.24138,1.89655 9.10345,5.68966 -5.31035,2.27586 z"
     id="path213" /><path
     style="fill:#ff0000;fill-opacity:1;stroke-width:1.43361"
     d="m 237.2631,547.08162 c 0,-0.30739 10.32963,-7.1372 22.95474,-15.17736 20.01858,-12.74861 25.00274,-15.24725 38.96591,-19.53426 15.85302,-4.86723 16.35203,-4.92381 50.51797,-5.72775 32.92455,-0.77473 35.34973,-0.64519 52.88991,2.82511 18.82557,3.72462 22.09719,5.23698 48.19682,22.27976 1.57133,1.02607 0.0236,2.25381 -6.45126,5.11757 l -8.51856,3.76765 -96.05214,3.48754 c -105.97241,3.84774 -102.50339,3.74751 -102.50339,2.96174 z"
     id="path214"
     transform="scale(0.26458333)" /><path
     style="fill:none;stroke:#000000;stroke-width:0.264583px;stroke-linecap:butt;stroke-linejoin:miter;stroke-opacity:1"
     d="m 48.551724,191.93103 c -0.37931,3.03449 -3.413795,9.48276 -3.413795,9.48276 l 9.10345,0.75862 1.896552,-10.24138 z"
     id="path215" /><path
     style="fill:none;stroke:#000000;stroke-width:0.264583px;stroke-linecap:butt;stroke-linejoin:miter;stroke-opacity:1"
     d="m 44.75862,201.7931 -2.275861,3.03448 h 10.999999 l 0.379309,-3.03448 z"
     id="path216" /><path
     style="fill:none;stroke:#000000;stroke-width:0.264583px;stroke-linecap:butt;stroke-linejoin:miter;stroke-opacity:1"
     d="m 60.689653,192.68965 -1.13793,8.34483 69.034477,-2.27586 -0.3793,-9.86207 z"
     id="path217" /><path
     style="fill:none;stroke:#000000;stroke-width:0.264583px;stroke-linecap:butt;stroke-linejoin:miter;stroke-opacity:1"
     d="m 59.172413,201.41379 -1.517242,3.03448 70.551729,-1.89655 V 198 Z"
     id="path218" /><path
     style="fill:#ff0000;fill-opacity:1;stroke-width:1.43361"
     d="m 164.99905,770.92588 c 3.55788,-6.254 5.07635,-6.80967 18.60847,-6.80967 15.68349,0 17.81523,0.61876 17.81523,5.17103 v 3.43065 h -18.72159 c -14.56524,0 -18.49525,-0.39784 -17.70211,-1.79201 z"
     id="path219"
     transform="scale(0.26458333)" /><path
     style="fill:#ff0000;fill-opacity:1;stroke-width:1.43361"
     d="m 222.14985,767.10006 c 2.56932,-4.96853 2.70757,-4.98753 53.10402,-7.29804 29.32447,-1.34443 194.61964,-7.11406 204.64838,-7.14325 3.64568,-0.0106 3.94244,0.42018 3.94244,5.72298 0,3.15395 -0.16128,5.75858 -0.3584,5.78806 -1.30683,0.19542 -248.60128,7.0592 -255.22009,7.08375 l -8.2801,0.0307 z"
     id="path220"
     transform="scale(0.26458333)" /><path
     style="fill:none;stroke:#000000;stroke-width:0.264583px;stroke-linecap:butt;stroke-linejoin:miter;stroke-opacity:1"
     d="m 134.65517,146.03448 9.10345,-0.75862 -1.51724,14.03448 -10.62069,1.51724 z"
     id="path221" /><path
     style="fill:none;stroke:#000000;stroke-width:0.264583px;stroke-linecap:butt;stroke-linejoin:miter;stroke-opacity:1"
     d="m 144.51724,145.27586 6.82759,-1.13793 -0.37932,13.27586 -8.34482,1.13793 z"
     id="path222" /><path
     style="fill:none;stroke:#000000;stroke-width:0.264583px;stroke-linecap:butt;stroke-linejoin:miter;stroke-opacity:1"
     d="m 151.34483,143.75862 6.82758,-0.37931 3.41379,11.75862 -10.24137,1.89655 z"
     id="path223" /><path
     style="fill:none;stroke:#000000;stroke-width:0.264583px;stroke-linecap:butt;stroke-linejoin:miter;stroke-opacity:1"
     d="m 157.41379,143.75862 4.55173,-3.03448 9.10344,4.17241 -0.75862,6.06896 -3.41379,1.89656 -4.93103,0.75862 z"
     id="path224" /><path
     style="fill:none;stroke:#000000;stroke-width:0.264583px;stroke-linecap:butt;stroke-linejoin:miter;stroke-opacity:1"
     d="m 169.93103,144.51724 1.13793,-8.72414 h -9.86207 l 0.75863,4.55172 z"
     id="path225" /><path
     style="fill:#ff0000;fill-opacity:1;stroke-width:1.43361"
     d="m 541.18925,595.22008 c 0,-7.16087 6.15576,-44.0867 7.48664,-44.90923 0.8152,-0.50382 4.78649,-1.34683 8.82509,-1.87335 4.03859,-0.52651 8.63315,-1.27332 10.21013,-1.65957 2.79407,-0.68436 2.85416,-0.10626 2.35537,22.65957 -0.29283,13.36518 -1.12257,23.74367 -1.93908,24.25415 -0.78497,0.49077 -5.71565,1.32859 -10.95706,1.86184 -5.2414,0.53324 -10.98136,1.33061 -12.75546,1.77194 -2.54861,0.63398 -3.22563,0.1921 -3.22563,-2.10535 z"
     id="path226"
     transform="scale(0.26458333)" /><path
     style="fill:#ff0000;fill-opacity:1;stroke-width:1.43361"
     d="m 609.14197,571.02166 c -3.89247,-8.60576 -9.14435,-24.22609 -9.1636,-27.25472 -0.006,-0.94773 2.84769,-3.68994 6.3416,-6.09381 l 6.35254,-4.37067 15.97712,7.52743 15.97712,7.52743 -0.85887,9.92866 c -0.47237,5.46076 -1.50927,10.71235 -2.30421,11.67019 -2.2434,2.70313 -14.24448,7.34749 -21.76458,8.42277 l -6.79019,0.97092 z"
     id="path227"
     transform="scale(0.26458333)" /><path
     style="fill:none;stroke:#000000;stroke-width:0.264583px;stroke-linecap:butt;stroke-linejoin:miter;stroke-opacity:1"
     d="m 161.20689,135.03448 -1.51724,-8.34483 12.13793,-2.65517 -0.75862,11.37931 z"
     id="path228" /><path
     style="fill:none;stroke:#000000;stroke-width:0.264583px;stroke-linecap:butt;stroke-linejoin:miter;stroke-opacity:1"
     d="m 158.55172,116.82758 1.13793,10.24138 11.37931,-3.41379 -1.51724,-7.96552 z"
     id="path229" /><path
     style="fill:none;stroke:#000000;stroke-width:0.264583px;stroke-linecap:butt;stroke-linejoin:miter;stroke-opacity:1"
     d="m 156.65517,106.20689 1.51724,10.62069 10.62069,-0.75862 -2.65517,-11.75862 z"
     id="path230" /><path
     style="fill:#ff0000;fill-opacity:1;stroke-width:1.43361"
     d="m 616.21429,509.32265 -5.97415,-0.54297 -2.44905,-13.60173 c -1.34697,-7.48095 -2.16305,-13.88771 -1.81351,-14.23725 0.53985,-0.53985 27.16818,-7.33333 38.43187,-9.80482 l 3.58403,-0.78641 -0.94053,13.19887 c -0.51729,7.25938 -1.00114,16.26323 -1.07521,20.00854 l -0.13468,6.80967 -11.82731,-0.25046 c -6.50503,-0.13776 -14.51568,-0.4948 -17.80146,-0.79344 z"
     id="path231"
     transform="scale(0.26458333)" /><path
     style="fill:#ff0000;fill-opacity:1;stroke-width:1.43361"
     d="m 597.02817,427.75237 c -1.01863,-6.99663 -1.90298,-15.5864 -1.96522,-19.08838 l -0.11318,-6.36723 15.76975,-3.17892 c 8.67337,-1.74841 15.91977,-3.03399 16.10312,-2.85683 0.42131,0.40706 8.98513,38.05583 8.98513,39.50094 0,0.58826 -4.7599,1.47192 -10.57754,1.96369 -5.81765,0.49177 -14.12635,1.31123 -18.46378,1.82101 l -7.88624,0.92687 z"
     id="path232"
     transform="scale(0.26458333)" /><path
     style="fill:#ffe6d5;stroke:#000000;stroke-width:0.264583px;stroke-linecap:butt;stroke-linejoin:miter;stroke-opacity:1"
     d="m 81.861398,122.97789 15.931033,1.51724 12.517239,-19.72414 1.89655,-10.620683 -5.31034,-9.862068 -4.93104,1.13793 -15.551717,1.137933 -5.310346,-7.965519 -1.896552,10.62069 -4.172413,-4.931034 v 9.103449 l -4.172413,-4.551725 1.51724,8.344826 -3.034482,-2.275861 z"
     id="path243" /><ellipse
     style="fill:#28220b;fill-opacity:1;stroke-width:0.264583"
     id="path235"
     cx="83.068962"
     cy="97.293106"
     rx="4.9310341"
     ry="5.1206899" /><ellipse
     style="fill:#28220b;fill-opacity:1;stroke-width:0.264583"
     id="path236"
     cx="100.32759"
     cy="97.103447"
     rx="5.5"
     ry="5.3103447" /><ellipse
     style="fill:#ffffff;fill-opacity:1;stroke-width:0.264583"
     id="path237"
     cx="83.258621"
     cy="97.103447"
     rx="3.224138"
     ry="3.4137931" /><ellipse
     style="fill:#24221c;fill-opacity:1;stroke-width:0.264583"
     id="path239"
     cx="83.637932"
     cy="96.724136"
     rx="0.9482758"
     ry="1.137931" /><ellipse
     style="fill:#f9f9f9;fill-opacity:1;stroke-width:0.264583"
     id="path240"
     cx="100.70689"
     cy="97.103447"
     rx="3.6034484"
     ry="3.7931035" /><ellipse
     style="fill:#000000;fill-opacity:1;stroke-width:0.264583"
     id="path241"
     cx="100.70689"
     cy="97.103447"
     rx="0.9482758"
     ry="1.5172414" /><path
     style="fill:#28220b;stroke:#000000;stroke-width:0.264583px;stroke-linecap:butt;stroke-linejoin:miter;stroke-opacity:1"
     d="m 87.241379,96.344826 8.344826,-0.379309 -0.379309,3.413791 -8.344829,-0.379309 z"
     id="path242" /><path
     style="fill:#ff0000;stroke:#000000;stroke-width:0.264583px;stroke-linecap:butt;stroke-linejoin:miter;stroke-opacity:1"
     d="M 63.344826,91.034483 81.931033,77.75862 98.999999,69.793103 94.068965,64.862069 76.999998,72.448276 58.034483,84.206897 l 0.758618,4.931034 z"
     id="path244" /><path
     style="fill:none;stroke:#000000;stroke-width:0.264583px;stroke-linecap:butt;stroke-linejoin:miter;stroke-opacity:1"
     d="m 58.034483,83.827585 -0.379312,-13.275861 8.724138,-5.310346 16.310345,-2.655173 10.999999,2.655173 -17.827585,6.448277 z"
     id="path245" /><path
     style="fill:#ff0000;stroke:#000000;stroke-width:0.264583px;stroke-linecap:butt;stroke-linejoin:miter;stroke-opacity:1"
     d="m 57.275862,69.034482 -6.827586,-1.137931 1.13793,-6.448276 4.551725,-3.413792 h 4.172413 l 3.034482,1.51724 0.758622,3.793103 -1.137931,2.655173 z"
     id="path246" /><path
     style="fill:#24221c;fill-opacity:1;stroke-width:0.264583"
     d="m 83.550389,112.68896 c -0.102861,-0.27417 -0.09949,-0.58667 0.0093,-0.85856 0.108754,-0.27188 0.321834,-0.5005 0.585401,-0.6281 0.06758,-0.0327 0.139096,-0.0595 0.198432,-0.10553 0.02967,-0.023 0.05603,-0.0508 0.07429,-0.0836 0.01827,-0.0328 0.02814,-0.0708 0.02461,-0.10817 -0.0026,-0.0276 -0.0123,-0.054 -0.02301,-0.0796 -0.01071,-0.0256 -0.02257,-0.0508 -0.02988,-0.0776 -0.0073,-0.0267 -0.0099,-0.0555 -0.0018,-0.0821 0.004,-0.0133 0.01072,-0.0258 0.02005,-0.0361 0.0093,-0.0103 0.02134,-0.0182 0.03466,-0.022 0.01214,-0.004 0.02504,-0.004 0.03759,-0.002 0.01255,0.001 0.02487,0.004 0.03724,0.007 0.01237,0.003 0.02492,0.005 0.03755,0.005 0.01263,-1.8e-4 0.02545,-0.003 0.03628,-0.009 0.01165,-0.007 0.02048,-0.0183 0.02558,-0.0309 0.0051,-0.0126 0.0066,-0.0265 0.0056,-0.0401 -0.0022,-0.0271 -0.01429,-0.0523 -0.02659,-0.0766 -0.01231,-0.0243 -0.02519,-0.0489 -0.02904,-0.0759 -0.0019,-0.0135 -0.0015,-0.0274 0.0024,-0.0404 0.0039,-0.013 0.0114,-0.0251 0.02208,-0.0336 0.01002,-0.008 0.02249,-0.0123 0.03514,-0.014 0.01265,-0.002 0.02553,-7e-4 0.03813,0.001 0.0252,0.004 0.04987,0.0124 0.0754,0.0127 0.03162,3e-4 0.06274,-0.0123 0.08706,-0.0325 0.02432,-0.0202 0.04206,-0.0477 0.05307,-0.0773 0.02203,-0.0593 0.01759,-0.12491 0.0085,-0.1875 -0.0127,-0.0879 -0.03388,-0.17687 -0.01888,-0.26437 0.0075,-0.0438 0.02444,-0.0865 0.05322,-0.12032 0.02878,-0.0338 0.07007,-0.0579 0.114327,-0.0613 0.02491,-0.002 0.04979,0.003 0.07463,0.005 0.02483,0.003 0.05068,0.004 0.07404,-0.005 0.02002,-0.008 0.03707,-0.0221 0.04931,-0.0396 0.01225,-0.0176 0.01984,-0.0381 0.02378,-0.0591 0.0079,-0.0421 0.0014,-0.0854 -0.0044,-0.12779 -0.0058,-0.0424 -0.01104,-0.0861 -8.02e-4,-0.12764 0.0051,-0.0208 0.01418,-0.0408 0.02787,-0.0573 0.01369,-0.0165 0.03216,-0.0292 0.05291,-0.0345 0.02422,-0.006 0.04972,-0.002 0.07445,0.002 0.02473,0.004 0.05061,0.007 0.07422,-0.002 0.01323,-0.005 0.02518,-0.0127 0.03482,-0.0228 0.0096,-0.0102 0.017,-0.0224 0.02196,-0.0355 0.0099,-0.0262 0.01018,-0.0554 0.0048,-0.0829 -0.01073,-0.055 -0.04255,-0.10338 -0.06159,-0.1561 -0.02233,-0.0618 -0.02668,-0.13002 -0.01238,-0.19417 0.0143,-0.0641 0.04721,-0.12404 0.09368,-0.17052 0.04648,-0.0465 0.106369,-0.0794 0.170522,-0.0937 0.06415,-0.0143 0.13235,-0.01 0.194168,0.0124"
     id="path250" /><path
     style="fill:none;stroke:#000000;stroke-width:0.264583px;stroke-linecap:butt;stroke-linejoin:miter;stroke-opacity:1"
     d="m 83.550389,111.94563 c 0.297333,-0.892 1.783995,-3.41932 1.783995,-3.41932 z"
     id="path251" /><path
     style="fill:none;stroke:#000000;stroke-width:0.264583px;stroke-linecap:butt;stroke-linejoin:miter;stroke-opacity:1"
     d="m 84.442386,110.16163 c 0.743331,0.29734 2.081326,1.04067 2.081326,1.04067 0,0 1.189332,0.29733 1.783996,0.446 0.594664,0.14866 2.229993,0.29733 2.229993,0.29733 h 1.783993 l 1.486662,-0.29733 1.486662,-0.446 1.486662,-0.892 1.040661,-0.59466 -0.29733,0.29733 -1.040665,0.29733 -1.040662,0.446"
     id="path252" /><path
     style="fill:none;stroke:#000000;stroke-width:0.264583px;stroke-linecap:butt;stroke-linejoin:miter;stroke-opacity:1"
     d="m 93.957022,111.49963 c -0.891997,0.14867 -2.081326,0.14867 -2.081326,0.14867"
     id="path253" /><path
     style="fill:none;stroke:#000000;stroke-width:0.264583px;stroke-linecap:butt;stroke-linejoin:miter;stroke-opacity:1"
     d="m 99.011673,110.7563 -2.081327,-2.82466 z"
     id="path254" /><path
     style="fill:#552200;stroke:#000000;stroke-width:0.264583px;stroke-linecap:butt;stroke-linejoin:miter;stroke-opacity:1"
     d="m 63.524005,90.848668 8.757907,6.305693 -1.634811,-8.757904 4.203796,4.670883 0.233542,-8.991452 4.203795,4.670883 1.868353,-10.392714 z"
     id="path255" /><path
     style="fill:#552200;stroke:#000000;stroke-width:0.264583px;stroke-linecap:butt;stroke-linejoin:miter;stroke-opacity:1"
     d="m 81.156587,78.821147 5.137973,7.706955 16.11455,-1.284491 4.43733,-1.050949 4.67089,-0.934178 L 99.256259,70.06324 Z"
     id="path256" /><path
     style="fill:#501616;stroke:#000000;stroke-width:0.264583px;stroke-linecap:butt;stroke-linejoin:miter;stroke-opacity:1"
     d="M 82.360997,80.287158 99.840488,69.621706 97.766652,69.325444 81.768473,77.028269 77.028269,80.879684 Z"
     id="path257" /><path
     style="fill:#501616;stroke:#000000;stroke-width:0.264583px;stroke-linecap:butt;stroke-linejoin:miter;stroke-opacity:1"
     d="m 98.655438,70.510494 7.702832,-0.888788 7.70282,2.3701 2.66637,2.370101 2.66636,-0.888788 -1.77758,2.666365 2.07384,0.592523 -2.3701,1.777577 2.3701,1.18505 -2.96262,1.777574 2.07383,1.481315 -2.3701,0.592524 2.3701,1.481312 -11.55424,-0.888786 z"
     id="path258" /><path
     style="fill:#501616;stroke:#000000;stroke-width:0.264583px;stroke-linecap:butt;stroke-linejoin:miter;stroke-opacity:1"
     d="M 112.28352,84.138573 111.98725,93.915237 106.062,83.842309 Z"
     id="path259" /><path
     style="fill:#ffe6d5;stroke:#000000;stroke-width:0.264583px;stroke-linecap:butt;stroke-linejoin:miter;stroke-opacity:1"
     d="m 111.98725,94.507763 2.96263,-1.481315 1.77758,0.296265 -1.18505,2.3701 -1.77758,1.481313 -1.48131,2.3701 -0.29627,3.555154 -0.59252,2.3701 -1.18505,-1.48132 z"
     id="path260" /><path
     style="fill:#ffe6d5;stroke:#000000;stroke-width:0.264583px;stroke-linecap:butt;stroke-linejoin:miter;stroke-opacity:1"
     d="m 69.917969,95.692812 -2.666365,1.481315 -0.296262,3.258883 2.073839,1.48131 2.073838,0.59253 1.481312,5.62899 h 2.073839 z"
     id="path261" /><path
     style="fill:none;stroke:#000000;stroke-width:0.264583px;stroke-linecap:butt;stroke-linejoin:miter;stroke-opacity:1"
     d="m 88.286248,106.35827 2.666365,0.88878 4.443936,-1.18505 -4.147675,0.88879 z"
     id="path262" /><path
     style="fill:#ffe6d5;stroke:#000000;stroke-width:0.264583px;stroke-linecap:butt;stroke-linejoin:miter;stroke-opacity:1"
     d="m 86.804935,123.83776 -1.18505,9.77666 10.665452,-0.29626 -0.888788,-8.59162 z"
     id="path263" /><path
     style="fill:#ffe6d5;fill-opacity:1;stroke-width:0.264583"
     d="m 165.31452,104.28443 c 0.0631,0.15722 0.17244,0.29557 0.31082,0.39332 0.13837,0.0977 0.3053,0.15454 0.47458,0.16148 0.16927,0.007 0.34029,-0.036 0.4862,-0.12212 0.14591,-0.0861 0.26619,-0.21503 0.34195,-0.36656 0.0758,-0.15154 0.10675,-0.32512 0.0881,-0.49351 -0.0187,-0.16838 -0.0869,-0.33097 -0.19403,-0.46223 -0.10711,-0.13126 -0.25271,-0.23072 -0.41394,-0.28277 -0.16122,-0.052 -0.33749,-0.0565 -0.50114,-0.0127 -0.241,0.0646 -0.4512,0.23611 -0.56278,0.45927 -0.11158,0.22315 -0.12269,0.49424 -0.0297,0.72578 0.0764,0.19021 0.22004,0.35144 0.39689,0.45504 0.17685,0.10361 0.38551,0.15003 0.59012,0.13804 0.20461,-0.012 0.40467,-0.0815 0.57654,-0.19317 0.17186,-0.11167 0.31565,-0.26482 0.42235,-0.43982 0.21339,-0.35 0.27417,-0.77969 0.21924,-1.18591 -0.0549,-0.40623 -0.21909,-0.79133 -0.42757,-1.14428 -0.0286,-0.0483 -0.0586,-0.098 -0.066,-0.15366 -0.004,-0.0278 -0.001,-0.0568 0.01,-0.0827 0.0109,-0.0259 0.0308,-0.0484 0.0564,-0.0599 0.0233,-0.0105 0.05,-0.0115 0.0754,-0.008 0.0253,0.004 0.0498,0.0118 0.0744,0.019 0.0246,0.007 0.0498,0.0134 0.0754,0.0133 0.0256,-1.8e-4 0.052,-0.007 0.0711,-0.0244 0.0193,-0.0172 0.0295,-0.0428 0.0321,-0.0685 0.003,-0.0257 -0.002,-0.0515 -0.009,-0.0765 -0.007,-0.025 -0.015,-0.0494 -0.0206,-0.0746 -0.006,-0.0252 -0.008,-0.0515 -0.003,-0.0767 0.008,-0.0354 0.0304,-0.066 0.0579,-0.0894 0.0275,-0.0235 0.0597,-0.0406 0.0915,-0.0577 0.0318,-0.0171 0.0639,-0.0346 0.0911,-0.0584 0.0272,-0.0239 0.0493,-0.0551 0.0558,-0.0906 0.005,-0.0257 9.6e-4,-0.0522 -0.006,-0.0775 -0.007,-0.0252 -0.016,-0.0497 -0.0229,-0.0748 -0.007,-0.0251 -0.0116,-0.0514 -0.008,-0.0773 0.002,-0.0129 0.005,-0.0257 0.0115,-0.0372 0.006,-0.0115 0.0147,-0.0218 0.0252,-0.0294 0.0106,-0.008 0.023,-0.0124 0.0358,-0.0147 0.0128,-0.002 0.026,-0.002 0.0389,-4.2e-4 0.0258,0.003 0.0503,0.0131 0.0747,0.0222 0.0244,0.009 0.0495,0.0175 0.0755,0.0185 0.013,4.8e-4 0.0262,-9.6e-4 0.0385,-0.005 0.0123,-0.004 0.0239,-0.011 0.0328,-0.0204 0.009,-0.01 0.0151,-0.0215 0.0185,-0.0341 0.003,-0.0126 0.004,-0.0259 0.003,-0.0389 -0.002,-0.026 -0.0119,-0.0508 -0.0213,-0.0751 -0.009,-0.0244 -0.019,-0.0491 -0.0214,-0.0751 -0.001,-0.013 -5.1e-4,-0.0263 0.003,-0.0389 0.003,-0.0126 0.009,-0.0246 0.0184,-0.0342 0.009,-0.01 0.0204,-0.0164 0.0327,-0.0206 0.0123,-0.004 0.0255,-0.006 0.0385,-0.005 0.026,8.6e-4 0.0511,0.009 0.0756,0.0182 0.0244,0.009 0.0489,0.0186 0.0747,0.0222 0.0129,0.002 0.026,0.002 0.0389,-2.3e-4 0.0128,-0.002 0.0253,-0.007 0.036,-0.0144 0.0107,-0.008 0.0194,-0.0177 0.0256,-0.0292 0.006,-0.0115 0.0101,-0.0242 0.012,-0.0371 0.004,-0.0259 -5.4e-4,-0.0523 -0.007,-0.0775 -0.007,-0.0252 -0.0162,-0.0497 -0.023,-0.0749 -0.007,-0.0252 -0.011,-0.0516 -0.007,-0.0775 0.005,-0.0356 0.0254,-0.0677 0.051,-0.093 0.0256,-0.0253 0.0565,-0.0444 0.0876,-0.06243 0.0311,-0.01803 0.0629,-0.03527 0.0912,-0.05746 0.0283,-0.02219 0.0533,-0.04992 0.0664,-0.08343 0.009,-0.02324 0.0121,-0.0485 0.0118,-0.07345 -3.4e-4,-0.02495 -0.004,-0.04973 -0.008,-0.07437 -0.008,-0.04927 -0.0171,-0.100325 -0.004,-0.148439 0.009,-0.03426 0.0299,-0.06476 0.0546,-0.09026 0.0248,-0.02551 0.0538,-0.0464 0.0833,-0.06621 0.0295,-0.01982 0.0597,-0.03875 0.0874,-0.06096 0.0277,-0.02221 0.0532,-0.04798 0.0709,-0.07883 0.0251,-0.04389 0.0331,-0.09592 0.031,-0.146441 -0.002,-0.05052 -0.0138,-0.100092 -0.0259,-0.149194 -0.012,-0.0491 -0.0246,-0.09839 -0.0285,-0.1488 -0.004,-0.05041 0.001,-0.102567 0.0233,-0.148091 0.0307,-0.06355 0.0901,-0.107529 0.14749,-0.14867 0.0574,-0.04114 0.11705,-0.08454 0.14877,-0.147592 0.0227,-0.04507 0.029,-0.09694 0.0262,-0.147312 -0.003,-0.05037 -0.0144,-0.0998 -0.0259,-0.148911 -0.0115,-0.04912 -0.0231,-0.09852 -0.026,-0.148888 -0.003,-0.05036 0.003,-0.102243 0.0257,-0.147413 0.0314,-0.06318 0.0908,-0.106924 0.14809,-0.148166 0.0573,-0.04124 0.11668,-0.08495 0.14817,-0.148099 0.0225,-0.04514 0.0288,-0.097 0.0259,-0.147366 -0.003,-0.05036 -0.0144,-0.09978 -0.0259,-0.148895 -0.0115,-0.04912 -0.023,-0.09853 -0.0259,-0.148895 -0.003,-0.05036 0.003,-0.102224 0.0259,-0.147367 0.0315,-0.06315 0.0909,-0.106862 0.14817,-0.148104 0.0573,-0.04124 0.11667,-0.08498 0.1481,-0.148161 0.0225,-0.04517 0.0286,-0.09704 0.0257,-0.147408 -0.003,-0.05036 -0.0145,-0.09977 -0.026,-0.148888 -0.0115,-0.04912 -0.0231,-0.09854 -0.0259,-0.14891 -0.003,-0.05037 0.004,-0.10224 0.0262,-0.147318 0.0317,-0.06307 0.0913,-0.106503 0.14869,-0.147657 0.0573,-0.04115 0.11677,-0.0851 0.14757,-0.148605 0.0221,-0.04548 0.0274,-0.0976 0.0237,-0.148003 -0.004,-0.0504 -0.0162,-0.09971 -0.0282,-0.14881 -0.012,-0.0491 -0.0237,-0.09866 -0.0259,-0.149154 -0.002,-0.0505 0.006,-0.102516 0.0304,-0.146559 0.0174,-0.03093 0.0426,-0.0569 0.0701,-0.07932 0.0275,-0.02242 0.0575,-0.04156 0.0869,-0.06147 0.0294,-0.01991 0.0584,-0.04077 0.0833,-0.06607 0.0249,-0.02531 0.0457,-0.05541 0.0559,-0.0894 0.0144,-0.04769 0.007,-0.09887 -1e-4,-0.148138 -0.007,-0.04927 -0.0144,-0.100477 1e-4,-0.148124 0.0103,-0.03396 0.0312,-0.064 0.0562,-0.08922 0.025,-0.02522 0.0541,-0.04599 0.0835,-0.06585 0.0294,-0.01986 0.0594,-0.039 0.0869,-0.06149 0.0275,-0.02249 0.0525,-0.04861 0.0697,-0.0797 0.0244,-0.04434 0.0314,-0.0966 0.0284,-0.147131 -0.003,-0.05053 -0.0154,-0.09998 -0.0278,-0.149051 -0.0124,-0.04908 -0.025,-0.09848 -0.0282,-0.149002 -0.003,-0.05052 0.003,-0.102795 0.0275,-0.14734 0.0168,-0.0312 0.0416,-0.05755 0.0688,-0.08026 0.0272,-0.02272 0.0571,-0.04208 0.0864,-0.06203 0.0293,-0.01995 0.0584,-0.04067 0.0835,-0.06567 0.0251,-0.02501 0.0464,-0.05464 0.0576,-0.0883 0.0156,-0.0471 0.0112,-0.0982 0.007,-0.147636 -0.004,-0.04944 -0.007,-0.09901 -0.007,-0.148629 v -0.888785 c 0,-0.04966 -0.003,-0.09927 -0.007,-0.14871 -0.005,-0.04944 -0.009,-0.100826 0.007,-0.147555 0.012,-0.0335 0.0349,-0.06225 0.0614,-0.08603 0.0265,-0.02377 0.0567,-0.043 0.0867,-0.0621 0.03,-0.01911 0.0602,-0.03833 0.0867,-0.0621 0.0265,-0.02377 0.0494,-0.05253 0.0614,-0.08603 0.0168,-0.04673 0.0121,-0.09811 0.007,-0.147554 -0.005,-0.04944 -0.007,-0.09905 -0.007,-0.148708 v -0.296261 -0.592527 c 0,-0.04964 -0.003,-0.09923 -0.007,-0.148673 -0.004,-0.04944 -0.009,-0.1007 0.007,-0.147589 0.0117,-0.03355 0.0338,-0.06269 0.0598,-0.08699 0.0259,-0.0243 0.0556,-0.04417 0.0853,-0.06363 0.0297,-0.01946 0.0597,-0.03874 0.0865,-0.06205 0.0268,-0.02331 0.0505,-0.05102 0.0647,-0.0836 0.0199,-0.04578 0.0197,-0.09772 0.0143,-0.14735 -0.005,-0.04963 -0.0155,-0.09901 -0.0143,-0.148914 0.001,-0.05586 0.0171,-0.110697 0.0403,-0.161557 0.0231,-0.05086 0.0536,-0.09805 0.0856,-0.14387 0.064,-0.09163 0.13579,-0.180851 0.17044,-0.287097 0.0311,-0.09539 0.0298,-0.200441 0,-0.296265 -0.0157,-0.05073 -0.0393,-0.09945 -0.047,-0.152016 -0.004,-0.02628 -0.004,-0.05346 0.004,-0.079 0.007,-0.02554 0.0219,-0.04939 0.0432,-0.06525 0.0203,-0.01512 0.0457,-0.02236 0.071,-0.02394 0.0253,-0.0016 0.0506,0.0022 0.0754,0.0073 0.0248,0.0051 0.0493,0.01168 0.0743,0.01576 0.025,0.0041 0.0507,0.0057 0.0756,8.6e-4 0.0282,-0.0055 0.0546,-0.01914 0.0762,-0.03815 0.0216,-0.019 0.0383,-0.04321 0.0497,-0.06962 0.0227,-0.05281 0.0235,-0.113117 0.0115,-0.169332 -0.024,-0.112432 -0.0955,-0.208353 -0.13738,-0.315429 -0.0186,-0.04751 -0.0314,-0.09769 -0.033,-0.148682 -0.002,-0.05099 0.008,-0.102892 0.033,-0.147583 0.034,-0.06171 0.0926,-0.105298 0.14913,-0.147271 0.0566,-0.04197 0.11473,-0.08644 0.14713,-0.148991 0.023,-0.04432 0.0314,-0.09497 0.0323,-0.14488 9e-4,-0.04991 -0.005,-0.09966 -0.0116,-0.149166 -0.0128,-0.09902 -0.0207,-0.198641 -0.0207,-0.298477 v -0.592527 c 0,-0.04966 -0.003,-0.09926 -0.007,-0.148708 -0.005,-0.04944 -0.009,-0.100826 0.007,-0.147554 0.012,-0.0335 0.0349,-0.06225 0.0614,-0.08603 0.0265,-0.02377 0.0567,-0.043 0.0867,-0.0621 0.03,-0.01911 0.0602,-0.03833 0.0867,-0.0621 0.0265,-0.02377 0.0494,-0.05253 0.0614,-0.08603 0.0168,-0.04673 0.0121,-0.09811 0.007,-0.147555 -0.005,-0.04945 -0.007,-0.09905 -0.007,-0.148709 v -0.592524 -1.481312 -0.888788 -0.296262 c 0,-0.04961 -0.003,-0.09917 -0.007,-0.148605 -0.004,-0.04943 -0.008,-0.100454 0.007,-0.14766 0.0109,-0.03373 0.0317,-0.06363 0.0564,-0.08901 0.0247,-0.02538 0.0534,-0.04655 0.0825,-0.06676 0.0582,-0.04043 0.12085,-0.07969 0.15728,-0.140496 0.0263,-0.04392 0.0367,-0.09627 0.0347,-0.147426 -0.002,-0.05116 -0.0157,-0.101316 -0.0347,-0.148836 -0.0202,-0.05038 -0.0467,-0.09921 -0.0546,-0.152905 -0.004,-0.02685 -0.003,-0.05476 0.006,-0.08046 0.009,-0.02571 0.0256,-0.04908 0.049,-0.06289 0.0218,-0.0129 0.048,-0.0169 0.0733,-0.01564 0.0253,0.0013 0.0501,0.0075 0.0746,0.01379 0.0245,0.0063 0.0492,0.01284 0.0745,0.01474 0.0253,0.0019 0.0515,-0.0011 0.0739,-0.01288 0.0249,-0.01306 0.0436,-0.03641 0.0535,-0.06267 0.01,-0.02626 0.0115,-0.05525 0.007,-0.08302 -0.008,-0.05553 -0.039,-0.104844 -0.0682,-0.152816 -0.0292,-0.04797 -0.0585,-0.09834 -0.0641,-0.154238 -0.003,-0.02795 6.6e-4,-0.05686 0.0126,-0.08228 0.012,-0.02542 0.0328,-0.04707 0.0589,-0.0575 0.0239,-0.0096 0.0508,-0.0094 0.0762,-0.0048 0.0254,0.0046 0.0497,0.01353 0.0744,0.02102 0.0247,0.0075 0.0502,0.01367 0.076,0.01264 0.0129,-5.13e-4 0.0257,-0.0029 0.0378,-0.0076 0.012,-0.0047 0.0231,-0.01188 0.0319,-0.02133 0.0172,-0.01858 0.0243,-0.04471 0.0251,-0.07005 8e-4,-0.02534 -0.004,-0.05049 -0.009,-0.07535 -0.01,-0.04972 -0.0162,-0.100156 -0.0162,-0.150859 v -0.592526 -2.370101 -0.888788 c 0,-0.04972 0.003,-0.09936 0.008,-0.148822 0.003,-0.02473 0.005,-0.04953 0.005,-0.07439 -3.4e-4,-0.02485 -0.004,-0.04995 -0.0128,-0.07305 -0.011,-0.02761 -0.0302,-0.05157 -0.0534,-0.07005 -0.0233,-0.01848 -0.0505,-0.03163 -0.0788,-0.04061 -0.0566,-0.01795 -0.11694,-0.01937 -0.17628,-0.02237 -0.0593,-0.003 -0.11998,-0.0081 -0.17413,-0.0325 -0.0271,-0.01221 -0.0522,-0.02928 -0.0719,-0.05153 -0.0197,-0.02224 -0.0338,-0.04982 -0.038,-0.07921 -0.004,-0.02563 -2e-5,-0.05181 0.006,-0.07696 0.006,-0.02515 0.0148,-0.04965 0.0211,-0.07476 0.006,-0.02511 0.0103,-0.05121 0.007,-0.07691 -0.003,-0.02569 -0.0144,-0.05109 -0.0344,-0.06764 -0.0194,-0.01614 -0.0454,-0.0226 -0.0706,-0.02332 -0.0252,-7.19e-4 -0.0503,0.0037 -0.0752,0.0083 -0.0497,0.0092 -0.1,0.01499 -0.15047,0.01499 h -0.29626 -0.88879 c -0.0505,0 -0.1007,-0.0056 -0.15035,-0.01461 -0.0248,-0.0045 -0.0499,-0.0088 -0.0751,-0.0081 -0.0252,6.94e-4 -0.0511,0.007 -0.0708,0.02272 -0.0203,0.01624 -0.0322,0.04136 -0.0361,0.06703 -0.004,0.02567 -6.2e-4,0.05198 0.005,0.07726 0.006,0.02528 0.0145,0.04988 0.0212,0.07499 0.007,0.02511 0.0114,0.05106 0.01,0.07698 -0.003,0.03603 -0.0179,0.07038 -0.0397,0.09922 -0.0217,0.02884 -0.0496,0.05254 -0.0792,0.07332 -0.0591,0.04157 -0.12608,0.07289 -0.17741,0.123719 -0.0512,0.05072 -0.0831,0.117221 -0.12477,0.176059 -0.0208,0.02942 -0.0444,0.05727 -0.073,0.07917 -0.0286,0.02191 -0.0626,0.0377 -0.0985,0.04103 -0.0513,0.0048 -0.10102,-0.0157 -0.15127,-0.02693 -0.0251,-0.0056 -0.0511,-0.009 -0.0766,-0.0056 -0.0255,0.0033 -0.0507,0.01381 -0.0684,0.03256 -0.0175,0.01863 -0.0264,0.04417 -0.0286,0.06965 -0.002,0.02549 0.002,0.0511 0.008,0.07598 0.006,0.02488 0.0136,0.04935 0.0185,0.07445 0.005,0.02509 0.007,0.05112 0.002,0.07619 -0.007,0.03516 -0.0282,0.0663 -0.0542,0.09103 -0.026,0.02473 -0.0568,0.0437 -0.0877,0.0619 -0.0309,0.0182 -0.0623,0.03593 -0.0901,0.05864 -0.0278,0.02271 -0.052,0.05098 -0.0643,0.08468 -0.009,0.02345 -0.011,0.04878 -0.0102,0.07372 8e-4,0.02495 0.005,0.04967 0.009,0.0743 0.008,0.04924 0.0167,0.100753 0.001,0.14824 -0.011,0.03393 -0.0336,0.06315 -0.0602,0.08701 -0.0265,0.02386 -0.057,0.04287 -0.0873,0.06167 -0.0303,0.01881 -0.0608,0.03767 -0.0875,0.06131 -0.0267,0.02364 -0.0497,0.05253 -0.0613,0.08627 -0.0162,0.04717 -0.009,0.09879 -0.001,0.148048 0.008,0.04926 0.0159,0.100599 0.001,0.148217 -0.0106,0.03396 -0.0323,0.06363 -0.0581,0.08818 -0.0257,0.02455 -0.0555,0.04443 -0.0854,0.06374 -0.0299,0.01931 -0.0601,0.03827 -0.0873,0.0613 -0.0271,0.02303 -0.0512,0.05052 -0.0656,0.08304 -0.0202,0.04565 -0.0201,0.09768 -0.0147,0.14732 0.005,0.04964 0.0158,0.09902 0.0147,0.148942 -0.002,0.09188 -0.0431,0.179457 -0.0992,0.252265 -0.0561,0.07281 -0.12675,0.132815 -0.19687,0.192218 -0.0701,0.0594 -0.14082,0.119381 -0.19695,0.192145 -0.0561,0.07277 -0.0973,0.160286 -0.0995,0.25216 -0.001,0.04991 0.009,0.09929 0.0145,0.148927 0.005,0.04963 0.006,0.101616 -0.0145,0.147335 -0.0143,0.03255 -0.0382,0.06015 -0.0651,0.08332 -0.0269,0.02317 -0.0571,0.04229 -0.0869,0.06167 -0.0298,0.01938 -0.0595,0.03925 -0.0854,0.06368 -0.0258,0.02443 -0.0478,0.05383 -0.0589,0.08759 -0.0156,0.04732 -0.009,0.09875 -0.001,0.14802 0.007,0.04927 0.0152,0.100333 0.001,0.148244 -0.01,0.03415 -0.03,0.06462 -0.0545,0.09031 -0.0245,0.02569 -0.0532,0.04695 -0.0825,0.06706 -0.0585,0.04021 -0.12195,0.07848 -0.15927,0.138892 -0.027,0.04367 -0.0379,0.09613 -0.0361,0.147434 0.002,0.0513 0.016,0.101603 0.0361,0.148828 0.0216,0.05073 0.0505,0.09944 0.0592,0.153896 0.004,0.02723 0.003,0.05571 -0.006,0.08158 -0.01,0.02587 -0.0282,0.0489 -0.053,0.06079 -0.0233,0.01112 -0.0504,0.01193 -0.0758,0.0077 -0.0255,-0.0042 -0.0498,-0.01321 -0.0744,-0.02102 -0.0246,-0.0078 -0.05,-0.01458 -0.0758,-0.01415 -0.0129,2.13e-4 -0.0258,0.0023 -0.0379,0.0067 -0.0121,0.0045 -0.0234,0.01142 -0.0323,0.02075 -0.009,0.0092 -0.0151,0.0205 -0.0192,0.03251 -0.004,0.01201 -0.006,0.0247 -0.006,0.03738 -8.2e-4,0.02536 0.004,0.05054 0.009,0.0754 0.0101,0.04973 0.0165,0.100212 0.0165,0.150967 v 0.296262 c 0,0.04966 0.003,0.09926 0.007,0.148708 0.005,0.04945 0.009,0.100826 -0.007,0.147554 -0.0121,0.0335 -0.0349,0.06226 -0.0614,0.08603 -0.0265,0.02377 -0.0567,0.043 -0.0867,0.0621 -0.03,0.01911 -0.0602,0.03833 -0.0867,0.0621 -0.0265,0.02377 -0.0494,0.05253 -0.0614,0.08603 -0.0168,0.04673 -0.0121,0.09811 -0.007,0.147554 0.005,0.04944 0.007,0.09905 0.007,0.148708 v 0.888788 c 0,0.05098 0.007,0.101651 0.0178,0.151447 0.005,0.0249 0.0107,0.05016 0.01,0.07564 -4.6e-4,0.01274 -0.003,0.02549 -0.007,0.03743 -0.004,0.01195 -0.0113,0.02309 -0.0207,0.03175 -0.01,0.0089 -0.0216,0.01494 -0.0342,0.01829 -0.0126,0.0033 -0.0258,0.004 -0.0388,0.0029 -0.026,-0.0023 -0.0508,-0.01178 -0.0751,-0.02115 -0.0244,-0.0094 -0.0491,-0.01884 -0.0751,-0.02115 -0.013,-0.0012 -0.0262,-4.81e-4 -0.0388,0.0029 -0.0126,0.0033 -0.0246,0.0094 -0.0342,0.01829 -0.009,0.0087 -0.0162,0.0198 -0.0207,0.03175 -0.004,0.01195 -0.007,0.0247 -0.007,0.03743 -9.1e-4,0.02548 0.004,0.05074 0.01,0.07563 0.0109,0.0498 0.0178,0.100462 0.0178,0.151447 v 1.777576 c 0,0.05098 0.007,0.101651 0.0178,0.151447 0.005,0.0249 0.0107,0.05016 0.01,0.07563 -4.6e-4,0.01274 -0.003,0.02549 -0.007,0.03743 -0.004,0.01195 -0.0113,0.02309 -0.0207,0.03175 -0.01,0.0089 -0.0216,0.01494 -0.0342,0.01829 -0.0126,0.0033 -0.0259,0.004 -0.0389,0.0029 -0.026,-0.0023 -0.0507,-0.01178 -0.0751,-0.02115 -0.0243,-0.0094 -0.0491,-0.01884 -0.0751,-0.02115 -0.013,-0.0012 -0.0262,-4.81e-4 -0.0388,0.0029 -0.0126,0.0033 -0.0246,0.0094 -0.0342,0.01829 -0.009,0.0087 -0.0162,0.0198 -0.0207,0.03175 -0.004,0.01195 -0.007,0.02469 -0.007,0.03743 -9.1e-4,0.02548 0.004,0.05074 0.01,0.07564 0.0109,0.0498 0.0178,0.100462 0.0178,0.151447 v 0.296262 c 0,0.05101 0.007,0.101703 0.018,0.151507 0.006,0.0249 0.0108,0.05017 0.01,0.07567 -4.7e-4,0.01274 -0.003,0.0255 -0.007,0.03744 -0.004,0.01194 -0.0114,0.02306 -0.0208,0.03165 -0.01,0.0088 -0.0218,0.01479 -0.0344,0.018 -0.0127,0.0032 -0.026,0.0037 -0.039,0.0024 -0.026,-0.0027 -0.0507,-0.01248 -0.0751,-0.02205 -0.0244,-0.0096 -0.0492,-0.01911 -0.0753,-0.02118 -0.013,-0.001 -0.0263,-1.44e-4 -0.0389,0.0035 -0.0126,0.0036 -0.0244,0.01011 -0.0337,0.01936 -0.009,0.0092 -0.0157,0.0211 -0.0194,0.03366 -0.004,0.01256 -0.005,0.02583 -0.004,0.03887 0.002,0.02608 0.0116,0.05092 0.0212,0.07526 0.01,0.02435 0.0194,0.04903 0.0221,0.07506 0.001,0.01301 8.2e-4,0.02629 -0.002,0.03897 -0.003,0.01268 -0.009,0.02476 -0.018,0.03443 -0.009,0.0094 -0.0197,0.01637 -0.0316,0.02085 -0.0119,0.0045 -0.0247,0.0066 -0.0374,0.007 -0.0255,9.25e-4 -0.0508,-0.0044 -0.0757,-0.0099 -0.0498,-0.01104 -0.10049,-0.01799 -0.1515,-0.01799 h -0.29626 c -0.0508,0 -0.10139,0.0066 -0.15114,0.01699 -0.0249,0.0052 -0.0501,0.01023 -0.0755,0.0094 -0.0127,-4.26e-4 -0.0254,-0.0024 -0.0374,-0.0066 -0.012,-0.0042 -0.0232,-0.01078 -0.0322,-0.01977 -0.009,-0.009 -0.0155,-0.02025 -0.0198,-0.03223 -0.004,-0.01199 -0.006,-0.0247 -0.007,-0.0374 -8.5e-4,-0.0254 0.004,-0.05061 0.009,-0.07549 0.0104,-0.04975 0.017,-0.100301 0.017,-0.151139 v -0.296265 -2.073836 -0.296264 c 0,-0.05283 0.001,-0.10587 0.0107,-0.157889 0.009,-0.05202 0.0257,-0.102399 0.0416,-0.152775 0.0159,-0.05038 0.0311,-0.102374 0.0277,-0.155094 -0.002,-0.02636 -0.008,-0.05268 -0.0216,-0.07548 -0.0133,-0.0228 -0.0337,-0.04191 -0.0584,-0.05128 -0.0241,-0.0092 -0.051,-0.0087 -0.0763,-0.0039 -0.0253,0.0048 -0.0497,0.01362 -0.0744,0.02102 -0.0247,0.0074 -0.0503,0.01342 -0.076,0.01222 -0.0129,-5.97e-4 -0.0257,-0.003 -0.0377,-0.0078 -0.012,-0.0048 -0.0231,-0.01201 -0.0318,-0.0215 -0.0172,-0.01864 -0.0242,-0.04476 -0.025,-0.07009 -7.9e-4,-0.02533 0.004,-0.05048 0.009,-0.07534 0.01,-0.04971 0.0161,-0.100141 0.0161,-0.15083 V 82.657258 80.879684 80.58342 c 0,-0.04966 -0.003,-0.09926 -0.007,-0.148708 -0.005,-0.04945 -0.009,-0.100826 0.007,-0.147554 0.012,-0.0335 0.0349,-0.06226 0.0614,-0.08603 0.0265,-0.02377 0.0567,-0.04299 0.0867,-0.0621 0.03,-0.01911 0.0602,-0.03833 0.0867,-0.0621 0.0265,-0.02377 0.0494,-0.05253 0.0614,-0.08603 0.0168,-0.04673 0.0121,-0.09811 0.007,-0.147554 -0.005,-0.04944 -0.007,-0.09905 -0.007,-0.148708 V 79.102108 77.028269 72.58433 71.991806 c 0,-0.05075 0.006,-0.101236 0.0165,-0.150967 0.005,-0.02487 0.01,-0.05004 0.009,-0.0754 -4e-4,-0.01268 -0.002,-0.02537 -0.006,-0.03738 -0.004,-0.01201 -0.0105,-0.02333 -0.0192,-0.03251 -0.009,-0.0093 -0.0202,-0.01628 -0.0323,-0.02075 -0.0121,-0.0045 -0.025,-0.0065 -0.0379,-0.0067 -0.0258,-4.18e-4 -0.0512,0.0063 -0.0758,0.01417 -0.0246,0.0078 -0.049,0.0168 -0.0744,0.02103 -0.0255,0.0042 -0.0525,0.0034 -0.0758,-0.0077 -0.0249,-0.0119 -0.0435,-0.03495 -0.053,-0.06081 -0.01,-0.02587 -0.0105,-0.05434 -0.006,-0.08156 0.009,-0.05443 0.0376,-0.103131 0.0591,-0.153895 0.02,-0.04723 0.0339,-0.09753 0.0356,-0.148789 0.002,-0.05126 -0.009,-0.103595 -0.0356,-0.147473 -0.0367,-0.06062 -0.0991,-0.1 -0.15716,-0.140575 -0.0291,-0.02029 -0.0577,-0.04151 -0.0824,-0.06688 -0.0247,-0.02537 -0.0456,-0.05517 -0.0567,-0.08881 -0.0156,-0.04721 -0.0113,-0.09847 -0.005,-0.147811 0.006,-0.04934 0.0141,-0.09955 0.005,-0.148451 -0.007,-0.03623 -0.0226,-0.07044 -0.0441,-0.100371 -0.0215,-0.02993 -0.0485,-0.05567 -0.078,-0.07773 -0.059,-0.04413 -0.12747,-0.07344 -0.19437,-0.104306 -0.0669,-0.03087 -0.13401,-0.06443 -0.1875,-0.115105 -0.0267,-0.02534 -0.0498,-0.05485 -0.0658,-0.08805 -0.016,-0.0332 -0.0247,-0.07017 -0.0229,-0.106961 0.003,-0.05226 0.0259,-0.101086 0.0366,-0.152292 0.005,-0.0256 0.008,-0.05226 0.002,-0.07791 -0.005,-0.02565 -0.0182,-0.05032 -0.0391,-0.06606 -0.0201,-0.01515 -0.0459,-0.02108 -0.0711,-0.02174 -0.0252,-6.54e-4 -0.0502,0.0035 -0.075,0.0078 -0.0496,0.0086 -0.0998,0.01396 -0.15016,0.01396 h -0.29626 -0.29627 c -0.0509,0 -0.10143,-0.0066 -0.15119,-0.01713 -0.0249,-0.0053 -0.0501,-0.01031 -0.0755,-0.0095 -0.0127,4.31e-4 -0.0254,0.0024 -0.0374,0.0067 -0.012,0.0043 -0.0232,0.01087 -0.0322,0.01992 -0.009,0.0092 -0.0156,0.0208 -0.0196,0.03314 -0.004,0.01233 -0.005,0.0254 -0.005,0.03834 8.3e-4,0.02588 0.009,0.05095 0.0174,0.07541 0.009,0.02445 0.0177,0.04895 0.0211,0.07462 0.003,0.02568 3.6e-4,0.05314 -0.0139,0.07475 -0.0145,0.02195 -0.0394,0.03567 -0.0652,0.04062 -0.0258,0.005 -0.0526,0.0019 -0.0782,-0.0043 -0.0511,-0.01239 -0.10029,-0.03729 -0.15288,-0.03631 -0.0297,5.54e-4 -0.059,0.0096 -0.0847,0.02455 -0.0257,0.01495 -0.0478,0.03568 -0.0657,0.05941 -0.0358,0.04747 -0.0543,0.105857 -0.065,0.164331 -0.0107,0.05847 -0.0142,0.118036 -0.0236,0.176745 -0.009,0.05871 -0.0249,0.117618 -0.0573,0.167491 -0.0383,0.05907 -0.0971,0.101204 -0.15316,0.143756 -0.0561,0.04255 -0.11259,0.08906 -0.14311,0.152506 -0.0218,0.04525 -0.0288,0.09649 -0.0273,0.146687 0.001,0.05019 0.0111,0.09976 0.0212,0.148947 0.0101,0.04919 0.0207,0.09847 0.0243,0.148555 0.004,0.05009 -2.2e-4,0.101436 -0.0182,0.148335 -0.0204,0.05325 -0.0577,0.09814 -0.0963,0.140091 -0.0386,0.04195 -0.0791,0.08245 -0.11241,0.128752 -0.0333,0.0463 -0.0588,0.09842 -0.0724,0.153772 -0.0137,0.05535 -0.0151,0.112894 -0.0151,0.169911 v 7.99909 2.370101 0.592526 c 0,0.04966 0.003,0.09926 0.007,0.148708 0.005,0.04944 0.009,0.100826 -0.007,0.147554 -0.012,0.0335 -0.0349,0.06225 -0.0614,0.08603 -0.0265,0.02377 -0.0567,0.043 -0.0867,0.0621 -0.03,0.01911 -0.0602,0.03833 -0.0867,0.0621 -0.0265,0.02377 -0.0494,0.05253 -0.0614,0.08603 -0.0168,0.04673 -0.0121,0.09811 -0.007,0.147554 0.005,0.04944 0.007,0.09905 0.007,0.148708 v 0.296264 c 0,0.0383 -0.002,0.0776 -0.0172,0.112672 -0.0154,0.03507 -0.0435,0.06382 -0.0769,0.08257 -0.0334,0.01874 -0.0711,0.02796 -0.10747,0.03997 -0.0182,0.006 -0.0362,0.01292 -0.0527,0.02263 -0.0165,0.0097 -0.0316,0.02239 -0.042,0.03842 -0.0137,0.02099 -0.019,0.04659 -0.0195,0.07167 -5.7e-4,0.02508 0.003,0.05004 0.007,0.07483 0.008,0.04957 0.0125,0.09959 0.0125,0.149761 v 0.296262 c 0,0.05076 0.006,0.101254 0.0166,0.150988 0.005,0.02487 0.01,0.05004 0.009,0.07541 -4.1e-4,0.01268 -0.002,0.02538 -0.006,0.03739 -0.004,0.01201 -0.0105,0.02332 -0.0193,0.03248 -0.009,0.0093 -0.0202,0.01622 -0.0324,0.02065 -0.0121,0.0044 -0.0251,0.0064 -0.038,0.0066 -0.0258,3.1e-4 -0.0512,-0.0066 -0.0757,-0.01445 -0.0246,-0.0079 -0.049,-0.01687 -0.0745,-0.02103 -0.0255,-0.0042 -0.0526,-0.0031 -0.0757,0.0083 -0.0246,0.01213 -0.0427,0.03533 -0.0519,0.06119 -0.009,0.02586 -0.01,0.05417 -0.005,0.08122 0.009,0.05409 0.0375,0.10264 0.0571,0.153855 0.0362,0.09464 0.0412,0.203682 0,0.296262 -0.0235,0.05271 -0.061,0.09857 -0.10557,0.13521 -0.0446,0.03664 -0.0961,0.06431 -0.14985,0.08517 -0.1076,0.04171 -0.22337,0.05635 -0.3371,0.07588 -0.0493,0.0085 -0.0987,0.01795 -0.14868,0.02056 -0.05,0.0026 -0.10112,-0.0019 -0.14758,-0.02056 -0.0655,-0.02628 -0.11704,-0.07848 -0.16132,-0.133426 -0.0443,-0.05494 -0.0837,-0.114346 -0.13495,-0.162836 -0.0517,-0.04888 -0.11382,-0.08513 -0.16984,-0.128976 -0.028,-0.02192 -0.0546,-0.0459 -0.0769,-0.07361 -0.0223,-0.02772 -0.0402,-0.05934 -0.0495,-0.09367 -0.0129,-0.04782 -0.009,-0.09838 -0.006,-0.147793 0.004,-0.04942 0.006,-0.09893 0.006,-0.148469 v -0.592526 -0.296262 c 0,-0.04967 0.003,-0.09928 0.008,-0.148723 0.005,-0.04945 0.009,-0.100877 -0.008,-0.147539 -0.0122,-0.03348 -0.0354,-0.06209 -0.0621,-0.08565 -0.0267,-0.02356 -0.0571,-0.04252 -0.0873,-0.06149 -0.0302,-0.01896 -0.0604,-0.03817 -0.0868,-0.06214 -0.0264,-0.02397 -0.0489,-0.05316 -0.0601,-0.08699 -0.0156,-0.04736 -0.008,-0.09888 0,-0.148131 0.008,-0.04925 0.0156,-0.100766 0,-0.148131 -0.0112,-0.03383 -0.0337,-0.06303 -0.0601,-0.08699 -0.0264,-0.02396 -0.0566,-0.04317 -0.0868,-0.06214 -0.0302,-0.01896 -0.0606,-0.03793 -0.0873,-0.06148 -0.0267,-0.02356 -0.0499,-0.05217 -0.0621,-0.08565 -0.017,-0.04666 -0.0122,-0.09809 -0.008,-0.147539 0.005,-0.04945 0.008,-0.09906 0.008,-0.148723 v -0.296265 -1.777574 -5.925251 -2.073838 -0.592527 c 0,-0.04944 0.001,-0.09886 0.003,-0.148249 0.002,-0.04939 0.004,-0.09918 -0.003,-0.148013 -0.0116,-0.07375 -0.0471,-0.143539 -0.0999,-0.19633 -0.0528,-0.05279 -0.12258,-0.08831 -0.19633,-0.09993 -0.0737,-0.01162 -0.14354,-0.04715 -0.19633,-0.09994 -0.0528,-0.05279 -0.0883,-0.12258 -0.0999,-0.196328 -0.008,-0.04883 -0.005,-0.09862 -0.003,-0.148013 0.002,-0.04939 0.003,-0.09881 0.003,-0.148249 v -0.296262 c 0,-0.04961 0.003,-0.09918 0.007,-0.148614 0.004,-0.04943 0.009,-0.100487 -0.007,-0.147648 -0.011,-0.0337 -0.032,-0.06348 -0.0569,-0.08871 -0.0249,-0.02522 -0.0537,-0.0462 -0.0829,-0.06631 -0.0584,-0.04021 -0.12113,-0.07976 -0.15642,-0.141248 -0.0193,-0.03362 -0.0292,-0.07166 -0.0408,-0.108658 -0.0116,-0.037 -0.0256,-0.07385 -0.0488,-0.104954 -0.0231,-0.0311 -0.0554,-0.0554 -0.0919,-0.06838 -0.0365,-0.01298 -0.076,-0.01427 -0.1148,-0.01427 h -0.88879 c -0.0509,0 -0.10157,-0.0068 -0.15136,-0.01759 -0.0249,-0.0054 -0.0501,-0.01058 -0.0756,-0.0097 -0.0127,4.48e-4 -0.0255,0.0025 -0.0374,0.0069 -0.012,0.0044 -0.0231,0.01117 -0.0319,0.02042 -0.009,0.0094 -0.0152,0.02129 -0.0187,0.0338 -0.004,0.01251 -0.004,0.02568 -0.004,0.03866 0.002,0.02595 0.0107,0.05081 0.0198,0.0752 0.009,0.02438 0.0184,0.04903 0.0211,0.0749 0.001,0.01294 9.8e-4,0.02612 -0.002,0.0388 -0.003,0.01268 -0.008,0.02486 -0.0167,0.0349 -0.008,0.01001 -0.0191,0.01774 -0.031,0.02292 -0.0119,0.0052 -0.0248,0.0079 -0.0377,0.0086 -0.0259,0.0014 -0.0516,-0.0048 -0.0764,-0.0126 -0.0247,-0.0078 -0.0491,-0.0172 -0.0745,-0.02237 -0.0254,-0.0052 -0.0525,-0.0059 -0.0767,0.0035 -0.0264,0.0102 -0.0475,0.03204 -0.0594,0.05771 -0.0119,0.02567 -0.0151,0.05489 -0.0119,0.08301 0.006,0.05624 0.0371,0.106409 0.0673,0.154287 0.0302,0.04788 0.0615,0.09745 0.0696,0.153485 0.004,0.02802 0.002,0.05728 -0.009,0.08343 -0.0108,0.02615 -0.0308,0.04894 -0.0566,0.06061 -0.0233,0.01055 -0.05,0.01164 -0.0753,0.008 -0.0253,-0.0036 -0.0498,-0.01161 -0.0744,-0.01871 -0.0246,-0.0071 -0.0497,-0.01335 -0.0753,-0.01324 -0.0256,1.07e-4 -0.0519,0.0071 -0.0712,0.02392 -0.0195,0.01694 -0.0302,0.04243 -0.0331,0.0681 -0.003,0.02566 0.001,0.05164 0.008,0.07668 0.006,0.02504 0.0148,0.04951 0.0207,0.07466 0.006,0.02515 0.009,0.05136 0.005,0.07682 -0.006,0.03539 -0.0265,0.06709 -0.0522,0.09219 -0.0257,0.0251 -0.0565,0.04428 -0.0874,0.06246 -0.031,0.01818 -0.0626,0.03567 -0.0906,0.05803 -0.0281,0.02236 -0.0529,0.05015 -0.066,0.08358 -0.009,0.02314 -0.0123,0.04823 -0.0126,0.07308 -3.5e-4,0.02485 0.002,0.04965 0.005,0.07438 0.005,0.04946 0.008,0.0991 0.008,0.148807 v 0.296261 c 0,0.04966 0.003,0.09926 0.007,0.148708 0.005,0.04945 0.009,0.100826 -0.007,0.147554 -0.0121,0.0335 -0.0349,0.06226 -0.0614,0.08603 -0.0265,0.02377 -0.0567,0.04299 -0.0867,0.0621 -0.03,0.01911 -0.0602,0.03833 -0.0867,0.0621 -0.0265,0.02377 -0.0494,0.05253 -0.0614,0.08603 -0.0168,0.04673 -0.0121,0.09811 -0.007,0.147555 0.005,0.04944 0.007,0.09905 0.007,0.14871 v 0.888788 2.370101 7.406563 0.296262 c 0,0.05099 -0.007,0.101652 -0.0178,0.151448 -0.005,0.0249 -0.0107,0.05016 -0.01,0.07564 4.6e-4,0.01274 0.003,0.02549 0.007,0.03743 0.004,0.01195 0.0113,0.02309 0.0207,0.03175 0.01,0.0089 0.0216,0.01494 0.0342,0.01829 0.0126,0.0033 0.0258,0.004 0.0388,0.0029 0.026,-0.0023 0.0507,-0.01178 0.0751,-0.02115 0.0244,-0.0094 0.0491,-0.01884 0.0751,-0.02115 0.013,-0.0012 0.0262,-4.81e-4 0.0388,0.0029 0.0126,0.0033 0.0246,0.0094 0.0342,0.01829 0.009,0.0087 0.0162,0.0198 0.0207,0.03175 0.004,0.01195 0.007,0.02469 0.007,0.03743 9.1e-4,0.02548 -0.004,0.05074 -0.01,0.07564 -0.0109,0.0498 -0.0178,0.100462 -0.0178,0.151447 v 1.18505 c 0,0.04977 0.003,0.09946 0.009,0.14893 0.003,0.02473 0.005,0.04956 0.005,0.07444 -3.8e-4,0.02488 -0.004,0.05003 -0.0137,0.07289 -0.0131,0.03058 -0.0375,0.05588 -0.0666,0.07194 -0.0292,0.01606 -0.0629,0.02307 -0.0962,0.0219 -0.0665,-0.0024 -0.12866,-0.03663 -0.17756,-0.0818 -0.0489,-0.04517 -0.0865,-0.100941 -0.12431,-0.155728 -0.0378,-0.05479 -0.0769,-0.109784 -0.12787,-0.152569 -0.0557,-0.0467 -0.12321,-0.07689 -0.18206,-0.1195 -0.0294,-0.0213 -0.0569,-0.04594 -0.0778,-0.07565 -0.0209,-0.02971 -0.0351,-0.06481 -0.0365,-0.101113 -9.9e-4,-0.02616 0.005,-0.05214 0.0119,-0.07729 0.007,-0.02514 0.0163,-0.0498 0.0224,-0.07526 0.006,-0.02545 0.009,-0.05206 0.005,-0.07783 -0.005,-0.02577 -0.0177,-0.05075 -0.039,-0.06588 -0.021,-0.01487 -0.0481,-0.01903 -0.0737,-0.01675 -0.0256,0.0023 -0.0503,0.01048 -0.0747,0.01848 -0.0245,0.008 -0.0493,0.01591 -0.0749,0.01759 -0.0257,0.0017 -0.0527,-0.0035 -0.0729,-0.01932 -0.0205,-0.016 -0.032,-0.04147 -0.0353,-0.06724 -0.003,-0.02577 9.7e-4,-0.05195 0.008,-0.07707 0.007,-0.02512 0.0155,-0.04959 0.0219,-0.07479 0.006,-0.02519 0.01,-0.05152 0.006,-0.07716 -0.006,-0.03549 -0.0262,-0.06731 -0.052,-0.09237 -0.0258,-0.02506 -0.0567,-0.04407 -0.0878,-0.06208 -0.0311,-0.01802 -0.0628,-0.03537 -0.091,-0.05775 -0.0281,-0.02238 -0.0528,-0.05039 -0.0654,-0.08406 -0.009,-0.02338 -0.0114,-0.0487 -0.0107,-0.07366 7.1e-4,-0.02496 0.005,-0.04969 0.009,-0.07432 0.008,-0.04925 0.017,-0.100699 0.002,-0.148288 -0.009,-0.02781 -0.0256,-0.0528 -0.0466,-0.07299 -0.0211,-0.02019 -0.0464,-0.03569 -0.0732,-0.04715 -0.0537,-0.02292 -0.11264,-0.02972 -0.17072,-0.03544 -0.0581,-0.0057 -0.117,-0.0108 -0.17187,-0.03065 -0.0274,-0.0099 -0.0537,-0.02357 -0.0764,-0.04191 -0.0227,-0.01833 -0.0418,-0.04148 -0.0537,-0.06811 -0.0204,-0.04557 -0.0187,-0.09781 -0.0124,-0.14734 0.006,-0.04953 0.0167,-0.09918 0.0124,-0.148922 -0.005,-0.05638 -0.0284,-0.109796 -0.059,-0.157356 -0.0306,-0.04756 -0.0684,-0.09005 -0.1049,-0.133276 -0.0365,-0.04322 -0.0722,-0.08778 -0.0979,-0.138188 -0.0257,-0.0504 -0.041,-0.107509 -0.0344,-0.163704 0.006,-0.05248 0.0308,-0.101022 0.0414,-0.152798 0.005,-0.02589 0.007,-0.05292 9.3e-4,-0.07864 -0.006,-0.02572 -0.0204,-0.05009 -0.0423,-0.06483 -0.0212,-0.01424 -0.0478,-0.01855 -0.0733,-0.01684 -0.0255,0.0017 -0.0502,0.009 -0.0747,0.01626 -0.0245,0.0073 -0.0492,0.01465 -0.0747,0.01656 -0.0255,0.0019 -0.0521,-0.0021 -0.0736,-0.01597 -0.0223,-0.01444 -0.0371,-0.03866 -0.0436,-0.06439 -0.006,-0.02573 -0.005,-0.05292 -1e-5,-0.07895 0.0103,-0.05206 0.0354,-0.100504 0.0436,-0.152927 0.009,-0.05585 -0.002,-0.113546 -0.024,-0.165723 -0.0218,-0.05218 -0.0539,-0.0994 -0.0883,-0.144215 -0.0689,-0.08964 -0.15003,-0.174707 -0.18389,-0.282586 -0.0299,-0.09524 -0.0194,-0.198356 0,-0.296265 0.01,-0.04948 0.0219,-0.09874 0.0254,-0.149064 0.004,-0.05032 -0.002,-0.102569 -0.0254,-0.147198 -0.0166,-0.03141 -0.0414,-0.05783 -0.0688,-0.08045 -0.0274,-0.02262 -0.0574,-0.04174 -0.0869,-0.0615 -0.0295,-0.01975 -0.0587,-0.04033 -0.0839,-0.0654 -0.0251,-0.02506 -0.0463,-0.05499 -0.0567,-0.08892 -0.0147,-0.0476 -0.008,-0.09885 -1.8e-4,-0.148118 0.007,-0.04927 0.0146,-0.100471 1.8e-4,-0.148146 -0.0103,-0.03398 -0.0312,-0.06404 -0.0562,-0.08925 -0.025,-0.02522 -0.0541,-0.04596 -0.0835,-0.06581 -0.0294,-0.01984 -0.0595,-0.03897 -0.0869,-0.06145 -0.0275,-0.02249 -0.0525,-0.04862 -0.0696,-0.07975 -0.0244,-0.0444 -0.0312,-0.09672 -0.0281,-0.147261 0.003,-0.05054 0.0158,-0.09996 0.0283,-0.149032 0.0125,-0.04907 0.0251,-0.0985 0.0282,-0.149052 0.003,-0.05055 -0.004,-0.102865 -0.0284,-0.147179 -0.0172,-0.03108 -0.0424,-0.05713 -0.0699,-0.07953 -0.0276,-0.0224 -0.0577,-0.04144 -0.0872,-0.06125 -0.0295,-0.01981 -0.0586,-0.04057 -0.0835,-0.06587 -0.0249,-0.0253 -0.0457,-0.05551 -0.0556,-0.08961 -0.014,-0.04784 -0.006,-0.09899 0.002,-0.148259 0.008,-0.04927 0.0145,-0.100835 -0.002,-0.148003 -0.0115,-0.0337 -0.0342,-0.06272 -0.0606,-0.08661 -0.0264,-0.02389 -0.0567,-0.0431 -0.0868,-0.06212 -0.0301,-0.01902 -0.0604,-0.03808 -0.0871,-0.06173 -0.0266,-0.02364 -0.0497,-0.05231 -0.0618,-0.0858 -0.0169,-0.04669 -0.0122,-0.0981 -0.008,-0.147545 0.005,-0.04945 0.008,-0.09905 0.008,-0.148717 v -0.296265 c 0,-0.04966 0.003,-0.09927 0.008,-0.148715 0.005,-0.04945 0.009,-0.100851 -0.008,-0.147546 -0.0121,-0.03349 -0.0351,-0.06217 -0.0617,-0.08584 -0.0266,-0.02367 -0.0569,-0.04276 -0.087,-0.0618 -0.0301,-0.01904 -0.0603,-0.03825 -0.0868,-0.06212 -0.0264,-0.02387 -0.0491,-0.05284 -0.0607,-0.08651 -0.0163,-0.04711 -0.01,-0.0987 -0.002,-0.147969 0.008,-0.04927 0.0156,-0.100324 0.002,-0.148293 -0.01,-0.03418 -0.0299,-0.06468 -0.0545,-0.09034 -0.0245,-0.02567 -0.0533,-0.04686 -0.0827,-0.06691 -0.0586,-0.04009 -0.12218,-0.07836 -0.15915,-0.139014 -0.0267,-0.04375 -0.0371,-0.09619 -0.035,-0.147387 0.002,-0.05119 0.0159,-0.101331 0.035,-0.148875 0.0202,-0.05032 0.0465,-0.09917 0.0543,-0.152822 0.004,-0.02683 0.003,-0.0547 -0.006,-0.08039 -0.009,-0.02569 -0.0255,-0.04908 -0.0487,-0.06305 -0.0217,-0.01304 -0.0478,-0.0173 -0.0731,-0.01629 -0.0253,0.001 -0.0501,0.007 -0.0747,0.01319 -0.0245,0.0062 -0.0492,0.01269 -0.0744,0.01477 -0.0252,0.0021 -0.0514,-4.97e-4 -0.0741,-0.01166 -0.0247,-0.01212 -0.0439,-0.03394 -0.0552,-0.05901 -0.0113,-0.02506 -0.0148,-0.05319 -0.0127,-0.08059 0.004,-0.05481 0.0302,-0.105304 0.0565,-0.153533 0.0264,-0.04823 0.0542,-0.09726 0.0627,-0.151553 0.004,-0.02715 0.004,-0.05536 -0.005,-0.08159 -0.008,-0.02623 -0.0242,-0.05037 -0.0466,-0.06625 -0.0206,-0.0146 -0.0459,-0.02173 -0.0711,-0.02352 -0.0252,-0.0018 -0.0505,0.0015 -0.0753,0.0062 -0.0497,0.0095 -0.0998,0.02481 -0.14981,0.01729 -0.0354,-0.0053 -0.0685,-0.02209 -0.0966,-0.04437 -0.0281,-0.02228 -0.0515,-0.04995 -0.0724,-0.07904 -0.0419,-0.05818 -0.0754,-0.123351 -0.12724,-0.172845 -0.0524,-0.05002 -0.12002,-0.08056 -0.17934,-0.122179 -0.0297,-0.02081 -0.0576,-0.04472 -0.079,-0.0739 -0.0215,-0.02918 -0.0363,-0.06399 -0.0379,-0.100186 -0.001,-0.02627 0.005,-0.05237 0.0122,-0.07755 0.008,-0.02519 0.0169,-0.04984 0.0233,-0.07534 0.006,-0.02551 0.01,-0.05226 0.005,-0.07811 -0.005,-0.02586 -0.0184,-0.05084 -0.0404,-0.06525 -0.0217,-0.01425 -0.0494,-0.01693 -0.0752,-0.01316 -0.0257,0.0038 -0.0502,0.01339 -0.0746,0.02221 -0.0245,0.0088 -0.0497,0.01695 -0.0756,0.01751 -0.013,2.81e-4 -0.0261,-0.0014 -0.0384,-0.0057 -0.0123,-0.0043 -0.0237,-0.01131 -0.0325,-0.02088 -0.009,-0.0096 -0.0149,-0.02163 -0.0182,-0.03426 -0.003,-0.01263 -0.004,-0.02588 -0.003,-0.03888 0.002,-0.026 0.012,-0.05073 0.0214,-0.07509 0.009,-0.02436 0.0189,-0.04913 0.0211,-0.07515 0.001,-0.01301 3.8e-4,-0.02625 -0.003,-0.03885 -0.003,-0.0126 -0.01,-0.02454 -0.0186,-0.03403 -0.009,-0.0095 -0.0205,-0.01629 -0.0328,-0.02039 -0.0123,-0.0041 -0.0255,-0.0055 -0.0385,-0.005 -0.026,9.97e-4 -0.0511,0.0095 -0.0755,0.01853 -0.0244,0.009 -0.0489,0.01867 -0.0747,0.02211 -0.0129,0.0017 -0.0261,0.0018 -0.0389,-4.73e-4 -0.0128,-0.0023 -0.0252,-0.0071 -0.0358,-0.01475 -0.0106,-0.0076 -0.0191,-0.01796 -0.0252,-0.0295 -0.006,-0.01154 -0.01,-0.02428 -0.0114,-0.03722 -0.003,-0.02587 0.001,-0.05216 0.008,-0.07729 0.007,-0.02513 0.0164,-0.04956 0.0229,-0.07482 0.007,-0.02526 0.0102,-0.0518 0.005,-0.07744 -0.007,-0.03558 -0.0291,-0.06664 -0.0565,-0.0903 -0.0274,-0.02366 -0.0597,-0.04084 -0.0916,-0.05781 -0.032,-0.01697 -0.0642,-0.03416 -0.0916,-0.05783 -0.0274,-0.02367 -0.0498,-0.05474 -0.0565,-0.09033 -0.005,-0.02565 -0.001,-0.0522 0.005,-0.07746 0.007,-0.02526 0.016,-0.04969 0.023,-0.07482 0.007,-0.02513 0.0117,-0.05143 0.008,-0.07731 -0.002,-0.01294 -0.005,-0.02568 -0.0114,-0.03721 -0.006,-0.01154 -0.0146,-0.02185 -0.0252,-0.02945 -0.0106,-0.0076 -0.023,-0.01237 -0.0359,-0.01464 -0.0128,-0.0023 -0.026,-0.0021 -0.0389,-3.2e-4 -0.0258,0.0035 -0.0503,0.0133 -0.0747,0.02237 -0.0244,0.0091 -0.0495,0.0176 -0.0756,0.01852 -0.013,4.57e-4 -0.0262,-0.001 -0.0385,-0.0052 -0.0123,-0.0042 -0.0238,-0.01113 -0.0327,-0.0207 -0.009,-0.0096 -0.0149,-0.02169 -0.0182,-0.03438 -0.003,-0.01269 -0.004,-0.02598 -0.002,-0.03901 0.003,-0.02605 0.0126,-0.05073 0.0223,-0.07508 0.01,-0.02434 0.0193,-0.04918 0.0214,-0.07529 0.001,-0.01305 1.5e-4,-0.02634 -0.004,-0.03891 -0.004,-0.01257 -0.0102,-0.02441 -0.0195,-0.0336 -0.009,-0.0092 -0.0213,-0.01558 -0.0339,-0.01909 -0.0126,-0.0035 -0.0259,-0.0042 -0.039,-0.003 -0.0261,0.0024 -0.0509,0.01227 -0.0752,0.02204 -0.0243,0.0098 -0.0491,0.01966 -0.0752,0.02208 -0.013,0.0012 -0.0264,5.1e-4 -0.039,-0.003 -0.0126,-0.0035 -0.0246,-0.0098 -0.034,-0.01902 -0.009,-0.0092 -0.0159,-0.02098 -0.0196,-0.03354 -0.004,-0.01255 -0.005,-0.02583 -0.004,-0.03888 0.002,-0.0261 0.0116,-0.05096 0.0212,-0.0753 0.01,-0.02435 0.0195,-0.04901 0.0223,-0.07505 0.001,-0.01302 9.1e-4,-0.0263 -0.002,-0.039 -0.003,-0.0127 -0.009,-0.02481 -0.0179,-0.03449 -0.009,-0.0094 -0.0197,-0.0164 -0.0316,-0.02089 -0.0119,-0.0045 -0.0247,-0.0066 -0.0374,-0.007 -0.0255,-9.27e-4 -0.0508,0.0044 -0.0757,0.0099 -0.0498,0.01107 -0.1005,0.01803 -0.15152,0.01803 h -0.59252 c -0.0495,0 -0.0991,-0.0022 -0.14849,-0.0058 -0.0494,-0.0036 -0.10001,-0.0074 -0.14778,0.0058 -0.0343,0.0095 -0.0657,0.02766 -0.0932,0.05021 -0.0275,0.02254 -0.0512,0.04937 -0.0729,0.07748 -0.0435,0.05622 -0.0799,0.118316 -0.13019,0.168574 -0.0503,0.05026 -0.11235,0.08671 -0.16857,0.130194 -0.0281,0.02174 -0.0549,0.04543 -0.0775,0.0729 -0.0225,0.02747 -0.0408,0.05891 -0.0502,0.09317 -0.0132,0.04776 -0.009,0.09836 -0.006,0.14778 0.004,0.04942 0.006,0.09893 0.006,0.148482 v 0.296262 1.18505 0.888788 c 0,0.04966 -0.003,0.09927 -0.008,0.148718 -0.005,0.04945 -0.009,0.10086 0.008,0.147544 0.0122,0.03348 0.0352,0.06214 0.0619,0.08577 0.0267,0.02363 0.057,0.04268 0.0871,0.06169 0.0301,0.01901 0.0604,0.03822 0.0868,0.06212 0.0264,0.0239 0.049,0.05295 0.0605,0.08667 0.0161,0.0472 0.009,0.09876 0.001,0.148024 -0.008,0.04926 -0.0156,0.100467 -0.001,0.148241 0.0102,0.03405 0.0312,0.0641 0.0563,0.0892 0.0251,0.0251 0.0544,0.04562 0.084,0.0653 0.0296,0.01967 0.0597,0.0387 0.0872,0.06127 0.0274,0.02258 0.0523,0.04901 0.0688,0.0805 0.0233,0.04467 0.0284,0.09692 0.0247,0.147185 -0.004,0.05026 -0.0157,0.09948 -0.0247,0.149077 -0.0177,0.0979 -0.0237,0.199624 0,0.296261 0.0264,0.107784 0.0878,0.203161 0.14814,0.296261 0.0604,0.0931 0.12176,0.18848 0.14813,0.296266 0.0236,0.09664 0.0177,0.198361 0,0.296262 -0.009,0.04959 -0.0209,0.09882 -0.0246,0.149074 -0.004,0.05026 0.001,0.102509 0.0246,0.147188 0.0164,0.0315 0.0413,0.05795 0.0687,0.08055 0.0274,0.0226 0.0575,0.04165 0.0871,0.06133 0.0296,0.01969 0.0589,0.04021 0.084,0.06528 0.0252,0.02507 0.0462,0.05508 0.0565,0.0891 0.0144,0.04772 0.007,0.09894 -9.5e-4,0.148204 -0.008,0.04926 -0.0146,0.100721 9.5e-4,0.148058 0.0111,0.03379 0.0333,0.06312 0.0593,0.08739 0.026,0.02427 0.0559,0.04391 0.0858,0.06315 0.0299,0.01924 0.0601,0.0383 0.087,0.0616 0.0269,0.0233 0.0505,0.05124 0.0641,0.08413 0.019,0.04608 0.017,0.09797 0.011,0.14746 -0.006,0.04949 -0.0157,0.09918 -0.011,0.148802 0.005,0.05634 0.0294,0.109546 0.0603,0.156966 0.0309,0.04742 0.0687,0.08984 0.10523,0.133091 0.0365,0.04325 0.0721,0.08795 0.0975,0.1385 0.0254,0.05056 0.0404,0.107823 0.0332,0.163969 -0.007,0.05264 -0.0321,0.101124 -0.0429,0.153083 -0.005,0.02598 -0.007,0.05316 -7.4e-4,0.07894 0.006,0.02577 0.0212,0.05007 0.0436,0.06424 0.0217,0.01371 0.0487,0.017 0.0742,0.01435 0.0255,-0.0027 0.0501,-0.0108 0.0746,-0.01854 0.0245,-0.0077 0.0494,-0.0152 0.075,-0.01639 0.0256,-0.0012 0.0525,0.0045 0.0725,0.02058 0.0202,0.01626 0.0315,0.04174 0.0347,0.06748 0.003,0.02574 -0.001,0.05186 -0.008,0.07696 -0.007,0.0251 -0.0154,0.04957 -0.0216,0.07475 -0.006,0.02518 -0.01,0.05148 -0.006,0.07707 0.006,0.03546 0.0264,0.06724 0.0521,0.09229 0.0258,0.02505 0.0567,0.04408 0.0878,0.06212 0.0311,0.01805 0.0628,0.03544 0.0909,0.05783 0.0281,0.02239 0.0528,0.05039 0.0655,0.08402 0.009,0.02336 0.0115,0.04867 0.0109,0.07363 -6.5e-4,0.02495 -0.005,0.0497 -0.009,0.07432 -0.008,0.04925 -0.017,0.100626 -0.002,0.148313 0.0105,0.03402 0.0326,0.0636 0.0586,0.08792 0.026,0.02432 0.0561,0.04383 0.0862,0.06289 0.0301,0.01906 0.0605,0.03792 0.0875,0.06115 0.027,0.02323 0.0507,0.05126 0.064,0.0843 0.0186,0.04623 0.0155,0.09812 0.009,0.14754 -0.006,0.04942 -0.0159,0.09936 -0.009,0.148725 0.01,0.07203 0.0542,0.135774 0.10916,0.183411 0.0549,0.04764 0.12035,0.08128 0.18515,0.114261 0.0648,0.03299 0.13036,0.06622 0.18584,0.113222 0.0555,0.047 0.10077,0.109849 0.11238,0.18163 0.008,0.04909 -1.4e-4,0.09915 -0.006,0.148507 -0.006,0.04936 -0.01,0.100658 0.006,0.147755 0.0114,0.03354 0.0323,0.06324 0.0571,0.08855 0.0248,0.02531 0.0534,0.04654 0.0824,0.06686 0.058,0.04064 0.12023,0.0802 0.15681,0.140858 0.0265,0.04391 0.0373,0.09623 0.0356,0.14748 -0.002,0.05125 -0.0156,0.101552 -0.0356,0.148782 -0.0215,0.05077 -0.0503,0.09947 -0.0591,0.153893 -0.004,0.02721 -0.003,0.05568 0.006,0.08155 0.01,0.02587 0.0281,0.04892 0.0529,0.06082 0.0233,0.01114 0.0504,0.01197 0.0758,0.0077 0.0255,-0.0042 0.0498,-0.0132 0.0744,-0.02102 0.0246,-0.0078 0.05,-0.01459 0.0758,-0.01418 0.0129,2.08e-4 0.0258,0.0022 0.0379,0.0067 0.0121,0.0045 0.0234,0.01142 0.0323,0.02075 0.009,0.0092 0.0151,0.0205 0.0192,0.03251 0.004,0.01201 0.006,0.0247 0.006,0.03738 8.1e-4,0.02536 -0.004,0.05054 -0.009,0.0754 -0.0101,0.04973 -0.0165,0.100213 -0.0165,0.150968 v 0.592526 c 0,0.05098 -0.007,0.101651 -0.0178,0.151447 -0.005,0.0249 -0.0107,0.05016 -0.01,0.07564 4.6e-4,0.01274 0.003,0.02549 0.007,0.03743 0.004,0.01195 0.0113,0.02309 0.0207,0.03175 0.01,0.0089 0.0216,0.01494 0.0342,0.01829 0.0126,0.0033 0.0258,0.004 0.0388,0.0029 0.026,-0.0023 0.0508,-0.01178 0.0751,-0.02115 0.0244,-0.0094 0.0491,-0.01884 0.0751,-0.02115 0.013,-0.0012 0.0262,-4.81e-4 0.0388,0.0029 0.0126,0.0033 0.0246,0.0094 0.0342,0.01829 0.009,0.0087 0.0162,0.0198 0.0207,0.03175 0.004,0.01195 0.007,0.02469 0.007,0.03743 9.1e-4,0.02548 -0.004,0.05074 -0.01,0.07564 -0.0109,0.0498 -0.0178,0.100462 -0.0178,0.151447 v 0.888788 c 0,0.05098 -0.007,0.101651 -0.0178,0.151447 -0.005,0.0249 -0.0107,0.05016 -0.01,0.07563 4.6e-4,0.01274 0.003,0.02549 0.007,0.03743 0.004,0.01195 0.0113,0.02309 0.0207,0.03175 0.01,0.0089 0.0216,0.01494 0.0342,0.01829 0.0126,0.0033 0.0259,0.004 0.0389,0.0029 0.026,-0.0023 0.0507,-0.01178 0.0751,-0.02115 0.0244,-0.0094 0.0491,-0.01884 0.0751,-0.02115 0.013,-0.0012 0.0262,-4.81e-4 0.0388,0.0029 0.0126,0.0033 0.0246,0.0094 0.0342,0.01829 0.009,0.0087 0.0162,0.0198 0.0207,0.03175 0.004,0.01195 0.007,0.0247 0.007,0.03743 9.1e-4,0.02548 -0.004,0.05074 -0.01,0.07564 -0.0109,0.0498 -0.0178,0.100462 -0.0178,0.151448 v 0.296262 c 0,0.05098 -0.007,0.101651 -0.0178,0.151447 -0.005,0.0249 -0.0107,0.05016 -0.01,0.07563 4.6e-4,0.01274 0.003,0.02549 0.007,0.03743 0.004,0.01195 0.0113,0.02309 0.0207,0.03175 0.01,0.0089 0.0216,0.01494 0.0342,0.01829 0.0126,0.0033 0.0258,0.004 0.0388,0.0029 0.026,-0.0023 0.0507,-0.01178 0.0751,-0.02115 0.0244,-0.0094 0.0491,-0.01884 0.0751,-0.02115 0.013,-0.0012 0.0262,-4.81e-4 0.0388,0.0029 0.0126,0.0033 0.0246,0.0094 0.0342,0.01829 0.009,0.0087 0.0162,0.0198 0.0207,0.03175 0.004,0.01195 0.007,0.0247 0.007,0.03743 9.1e-4,0.02548 -0.004,0.05074 -0.01,0.07563 -0.0109,0.0498 -0.0178,0.100461 -0.0178,0.151446 v 0.296265 2.962624 1.481315 c 0,0.04967 0.003,0.09929 0.008,0.148735 0.005,0.04945 0.01,0.100921 -0.008,0.147527 -0.0111,0.03009 -0.0316,0.05665 -0.0579,0.07502 -0.0263,0.01837 -0.0583,0.02846 -0.0904,0.02848 -0.0321,2.4e-5 -0.0641,-0.01002 -0.0904,-0.02839 -0.0263,-0.01837 -0.0467,-0.04497 -0.0577,-0.07511 -0.017,-0.04685 -0.0109,-0.09859 -0.003,-0.147869 0.007,-0.04928 0.0161,-0.100165 0.003,-0.148393 -0.0146,-0.05588 -0.0568,-0.101678 -0.10649,-0.131086 -0.0497,-0.02941 -0.10668,-0.04414 -0.16349,-0.05461 -0.0568,-0.01047 -0.11443,-0.01707 -0.17026,-0.03189 -0.0558,-0.01482 -0.11066,-0.03863 -0.15229,-0.07867 -0.0308,-0.02964 -0.0533,-0.06729 -0.068,-0.107463 -0.0146,-0.04017 -0.0216,-0.08287 -0.0237,-0.12557 -0.004,-0.0854 0.0104,-0.17046 0.0174,-0.255689 0.007,-0.08523 0.006,-0.173893 -0.0287,-0.252241 -0.0171,-0.03918 -0.0425,-0.07512 -0.0758,-0.101928 -0.0333,-0.02681 -0.0747,-0.04414 -0.11746,-0.04589 -0.0514,-0.0021 -0.10074,0.01771 -0.15112,0.02799 -0.0252,0.0051 -0.0512,0.0079 -0.0766,0.0043 -0.0255,-0.0036 -0.0505,-0.014 -0.0685,-0.03228 -0.018,-0.01826 -0.0281,-0.04334 -0.0315,-0.06878 -0.003,-0.02544 -4.4e-4,-0.05134 0.005,-0.07647 0.0104,-0.05026 0.0299,-0.09978 0.0267,-0.15101 -0.002,-0.03631 -0.0161,-0.07135 -0.0363,-0.101555 -0.0203,-0.0302 -0.0468,-0.05579 -0.0757,-0.07792 -0.0577,-0.04425 -0.12468,-0.07501 -0.18424,-0.116788 -0.11457,-0.08036 -0.197,-0.197619 -0.29626,-0.296262 -0.0993,-0.09868 -0.21732,-0.180658 -0.29626,-0.296261 -0.0413,-0.06043 -0.0707,-0.128553 -0.11474,-0.186986 -0.022,-0.02922 -0.0478,-0.05598 -0.0785,-0.07594 -0.0307,-0.01996 -0.0665,-0.03288 -0.10305,-0.03334 -0.0525,-6.61e-4 -0.1016,0.02365 -0.15267,0.03569 -0.0255,0.006 -0.0522,0.009 -0.078,0.0041 -0.0258,-0.0049 -0.0506,-0.01824 -0.0656,-0.0398 -0.0146,-0.02114 -0.0186,-0.04824 -0.0162,-0.07385 0.002,-0.02561 0.0107,-0.05025 0.0187,-0.0747 0.008,-0.02445 0.0159,-0.04928 0.0174,-0.07496 0.002,-0.02568 -0.004,-0.05268 -0.0199,-0.07276 -0.0162,-0.02024 -0.0418,-0.03145 -0.0676,-0.03442 -0.0258,-0.003 -0.0519,0.0016 -0.0769,0.0083 -0.025,0.0067 -0.0495,0.01568 -0.0747,0.02177 -0.0252,0.0061 -0.0516,0.0093 -0.0771,0.0043 -0.0355,-0.0069 -0.0664,-0.02924 -0.0902,-0.05645 -0.0238,-0.0272 -0.0412,-0.05924 -0.0584,-0.09102 -0.0172,-0.03178 -0.0345,-0.06388 -0.0581,-0.09126 -0.0236,-0.02739 -0.0542,-0.05007 -0.0896,-0.05753 -0.0252,-0.0053 -0.0516,-0.0027 -0.0767,0.0029 -0.0252,0.0056 -0.0496,0.01409 -0.0746,0.0206 -0.0249,0.0065 -0.0508,0.01106 -0.0765,0.0085 -0.0257,-0.0025 -0.0513,-0.01279 -0.0685,-0.03204 -0.017,-0.01911 -0.0243,-0.04543 -0.0246,-0.07104 -2.5e-4,-0.02561 0.006,-0.05082 0.0131,-0.07542 0.007,-0.0246 0.0152,-0.04904 0.019,-0.07437 0.004,-0.02533 0.003,-0.05201 -0.007,-0.07543 -0.0114,-0.02576 -0.0338,-0.0459 -0.0596,-0.05706 -0.0259,-0.01117 -0.0549,-0.01378 -0.0829,-0.01024 -0.0559,0.0071 -0.10575,0.03738 -0.15366,0.06701 -0.0479,0.02962 -0.0977,0.05997 -0.1536,0.06717 -0.0279,0.0036 -0.057,0.0011 -0.0829,-0.01002 -0.0259,-0.01109 -0.0484,-0.03113 -0.0599,-0.05685 -0.0104,-0.02336 -0.0114,-0.05001 -0.008,-0.07534 0.004,-0.02533 0.0116,-0.04978 0.0187,-0.07437 0.007,-0.02459 0.0133,-0.04977 0.0131,-0.07535 -1.5e-4,-0.02559 -0.007,-0.0519 -0.024,-0.0712 -0.017,-0.01948 -0.0425,-0.03013 -0.0681,-0.03305 -0.0257,-0.0029 -0.0516,0.0013 -0.0767,0.0076 -0.025,0.0063 -0.0495,0.01482 -0.0747,0.02069 -0.0252,0.0059 -0.0514,0.0091 -0.0768,0.0047 -0.0354,-0.0061 -0.0671,-0.02657 -0.0922,-0.05225 -0.0251,-0.02568 -0.0443,-0.05646 -0.0625,-0.08742 -0.0182,-0.03096 -0.0357,-0.06254 -0.058,-0.09063 -0.0224,-0.0281 -0.0501,-0.05287 -0.0836,-0.06596 -0.0231,-0.0091 -0.0482,-0.01227 -0.0731,-0.01261 -0.0248,-3.42e-4 -0.0496,0.0021 -0.0744,0.0045 -0.0495,0.005 -0.0991,0.0081 -0.14881,0.0081 h -0.29626 c -0.051,0 -0.10165,0.0069 -0.15145,0.01783 -0.0249,0.0055 -0.0502,0.01073 -0.0756,0.0098 -0.0127,-4.57e-4 -0.0255,-0.0025 -0.0374,-0.007 -0.0119,-0.0044 -0.0231,-0.01133 -0.0317,-0.02068 -0.009,-0.0096 -0.0149,-0.02156 -0.0183,-0.03418 -0.003,-0.01261 -0.004,-0.02585 -0.003,-0.03885 0.002,-0.026 0.0118,-0.05075 0.0212,-0.07511 0.009,-0.02436 0.0188,-0.04911 0.0212,-0.07511 0.001,-0.013 4.8e-4,-0.02623 -0.003,-0.03885 -0.003,-0.01261 -0.009,-0.0246 -0.0183,-0.03418 -0.009,-0.0094 -0.0198,-0.01624 -0.0317,-0.02068 -0.0119,-0.0044 -0.0247,-0.0065 -0.0374,-0.007 -0.0255,-9.13e-4 -0.0507,0.0043 -0.0756,0.0098 -0.0498,0.01095 -0.10046,0.01783 -0.15145,0.01783 h -0.59253 -1.18505 -0.29626 c -0.0494,0 -0.0989,-0.0013 -0.14825,-0.0034 -0.0494,-0.0021 -0.0992,-0.0043 -0.14802,0.0034 -0.0737,0.01162 -0.14354,0.04714 -0.19633,0.09993 -0.0528,0.05279 -0.0883,0.122579 -0.0999,0.196327 -0.008,0.04883 -0.005,0.09862 -0.003,0.148013 0.002,0.04939 0.003,0.09881 0.003,0.148249 v 0.296264 0.888786 1.18505 0.296265 c 0,0.04947 -0.002,0.09892 -0.004,0.148324 -0.003,0.0494 -0.006,0.09945 0.004,0.147938 0.0142,0.07016 0.0552,0.132743 0.1061,0.183095 0.0509,0.05035 0.11149,0.08965 0.1726,0.12693 0.0611,0.03728 0.12344,0.0731 0.17938,0.117773 0.0559,0.04467 0.10577,0.09914 0.13445,0.164725 0.0406,0.09274 0.0351,0.201329 0,0.296265 -0.0189,0.05101 -0.046,0.09962 -0.0547,0.153319 -0.004,0.02685 -0.004,0.05486 0.005,0.08063 0.009,0.02577 0.0259,0.04915 0.0497,0.06232 0.0223,0.01235 0.0489,0.0151 0.0743,0.01258 0.0254,-0.0025 0.05,-0.01 0.0745,-0.01703 0.0245,-0.0071 0.0494,-0.01377 0.0749,-0.01475 0.0255,-9.77e-4 0.0519,0.0042 0.0726,0.0192 0.0213,0.01538 0.0347,0.03999 0.0401,0.06567 0.005,0.02568 0.003,0.05244 -0.002,0.07811 -0.0109,0.05134 -0.0346,0.100099 -0.0378,0.152474 -0.002,0.03672 0.006,0.07374 0.0213,0.107149 0.0154,0.03341 0.0379,0.06329 0.0642,0.08905 0.0525,0.05153 0.11899,0.0862 0.1855,0.117648 0.0665,0.03145 0.13474,0.06079 0.19422,0.10411 0.0595,0.04332 0.11046,0.102955 0.12734,0.174569 0.0114,0.04828 0.007,0.09873 0.001,0.148053 -0.005,0.04933 -0.0109,0.09952 -0.001,0.148209 0.0138,0.07109 0.0592,0.132912 0.11431,0.179941 0.0551,0.04703 0.11979,0.0811 0.18382,0.114955 0.064,0.03385 0.12859,0.06831 0.18315,0.115939 0.0546,0.04763 0.099,0.110307 0.11125,0.181689 0.008,0.04894 0.001,0.09903 -0.004,0.148372 -0.006,0.04934 -0.01,0.100221 0.004,0.147892 0.01,0.03406 0.0288,0.06508 0.0518,0.09205 0.023,0.02698 0.0503,0.05011 0.0785,0.07153 0.0566,0.04284 0.11851,0.07988 0.16591,0.132682 0.0484,0.05395 0.079,0.121368 0.12109,0.180372 0.0211,0.0295 0.0453,0.05714 0.0747,0.07837 0.0294,0.02123 0.0642,0.03583 0.10046,0.03752 0.0261,0.0012 0.0521,-0.0042 0.0773,-0.01142 0.0251,-0.0072 0.0498,-0.01618 0.0752,-0.02232 0.0254,-0.0061 0.052,-0.0094 0.0778,-0.0049 0.0258,0.0045 0.0508,0.01739 0.066,0.03864 0.015,0.02089 0.0193,0.04793 0.0171,0.07355 -0.002,0.02562 -0.0102,0.05031 -0.0182,0.07476 -0.008,0.02445 -0.0159,0.04922 -0.0177,0.07486 -0.002,0.02565 0.003,0.05264 0.0187,0.0731 0.0158,0.02071 0.0411,0.03272 0.0668,0.03642 0.0258,0.0037 0.0521,-2.14e-4 0.0773,-0.0066 0.0252,-0.0064 0.0497,-0.01537 0.0749,-0.02199 0.0252,-0.0066 0.0514,-0.01091 0.0772,-0.0078 0.0294,0.0036 0.0573,0.0168 0.08,0.03575 0.0228,0.01895 0.0406,0.04344 0.0536,0.07005 0.026,0.05322 0.0329,0.113587 0.0368,0.172705 0.004,0.05912 0.005,0.119099 0.022,0.175976 0.008,0.02844 0.0204,0.05594 0.0376,0.08005 0.0172,0.02411 0.0397,0.04476 0.0662,0.05799 0.0448,0.02236 0.0974,0.02217 0.14714,0.01609 0.0497,-0.0061 0.0991,-0.01756 0.14913,-0.01609 0.056,0.0017 0.11052,0.01959 0.16034,0.04513 0.0498,0.02554 0.0954,0.05855 0.14013,0.09221 0.0447,0.03366 0.089,0.06817 0.13693,0.09712 0.0479,0.02895 0.0999,0.05237 0.15512,0.0618 0.0487,0.0083 0.0986,0.0059 0.14799,0.0037 0.0494,-0.0023 0.0988,-0.0037 0.14827,-0.0037 h 0.59253 c 0.0495,0 0.099,-0.0019 0.14838,-0.0049 0.0494,-0.003 0.0996,-0.0062 0.14788,0.0049 0.0706,0.01628 0.13107,0.06331 0.17707,0.119321 0.046,0.05601 0.0794,0.121087 0.11314,0.18521 0.0338,0.06412 0.0688,0.128527 0.11752,0.182228 0.0487,0.0537 0.11292,0.09645 0.1848,0.105768 0.0494,0.0064 0.0993,-0.0031 0.14874,-0.0095 0.0494,-0.0063 0.10132,-0.0092 0.14752,0.0095 0.033,0.01336 0.061,0.03706 0.0842,0.06406 0.0232,0.02699 0.0421,0.05739 0.0612,0.08745 0.0191,0.03006 0.0386,0.06011 0.063,0.08612 0.0243,0.02601 0.0539,0.04803 0.0879,0.05863 0.0477,0.01485 0.099,0.0062 0.14828,-0.0019 0.0246,-0.0041 0.0494,-0.008 0.0743,-0.0087 0.0249,-6.95e-4 0.0502,0.0019 0.0737,0.01053 0.0337,0.01239 0.0619,0.03667 0.0846,0.06445 0.0227,0.02778 0.0404,0.05918 0.0586,0.09008 0.0182,0.03089 0.0372,0.0617 0.062,0.08765 0.0248,0.02595 0.0559,0.047 0.0911,0.05409 0.0251,0.0051 0.0511,0.0029 0.0762,-0.0021 0.0251,-0.0049 0.0496,-0.01257 0.0745,-0.01847 0.0249,-0.0059 0.0505,-0.01009 0.076,-0.008 0.0255,0.0021 0.051,0.01103 0.0697,0.02853 0.0188,0.01762 0.0293,0.04281 0.0327,0.06834 0.003,0.02553 5e-5,0.05151 -0.006,0.07665 -0.0112,0.05027 -0.0317,0.09999 -0.0271,0.151281 0.003,0.0293 0.0135,0.0576 0.0299,0.08202 0.0164,0.02442 0.0382,0.04502 0.0625,0.06145 0.0488,0.03286 0.10704,0.04879 0.16506,0.05844 0.058,0.0097 0.11696,0.01359 0.17463,0.02519 0.0577,0.01159 0.11512,0.03158 0.16037,0.06915 0.0555,0.04607 0.0874,0.113645 0.1274,0.173613 0.02,0.02998 0.0426,0.05867 0.0707,0.08125 0.0281,0.02258 0.0622,0.03883 0.0981,0.0414 0.0262,0.0019 0.0524,-0.0035 0.0776,-0.01084 0.0252,-0.0074 0.0498,-0.01674 0.0752,-0.02325 0.0254,-0.0065 0.0521,-0.0101 0.0779,-0.0056 0.0129,0.0022 0.0256,0.0065 0.0369,0.01315 0.0113,0.0066 0.0213,0.01563 0.0286,0.02655 0.0144,0.02166 0.0172,0.04938 0.0134,0.07513 -0.004,0.02575 -0.0135,0.05018 -0.0224,0.07464 -0.009,0.02446 -0.0171,0.04964 -0.0177,0.07566 -3e-4,0.01301 0.001,0.02613 0.006,0.0384 0.004,0.01227 0.0114,0.02368 0.021,0.03244 0.01,0.0088 0.0218,0.01478 0.0344,0.01798 0.0127,0.0032 0.026,0.0037 0.039,0.0024 0.026,-0.0027 0.0507,-0.0125 0.0751,-0.02208 0.0243,-0.0096 0.0492,-0.01912 0.0753,-0.02117 0.013,-0.001 0.0263,-1.29e-4 0.0389,0.0035 0.0126,0.0037 0.0244,0.01013 0.0336,0.0194 0.009,0.0093 0.0157,0.02113 0.0193,0.0337 0.004,0.01258 0.004,0.02585 0.003,0.03889 -0.002,0.02609 -0.0117,0.05091 -0.0213,0.07525 -0.01,0.02434 -0.0194,0.04904 -0.022,0.07508 -0.001,0.013 -7.7e-4,0.0263 0.002,0.039 0.003,0.0127 0.009,0.0247 0.0181,0.0344 0.009,0.01 0.0203,0.0165 0.0326,0.0208 0.0123,0.004 0.0255,0.006 0.0385,0.005 0.026,-8.1e-4 0.0512,-0.009 0.0756,-0.0182 0.0244,-0.009 0.0489,-0.0187 0.0747,-0.0223 0.0129,-0.002 0.0261,-0.002 0.0389,1.4e-4 0.0128,0.002 0.0253,0.007 0.036,0.0143 0.0107,0.007 0.0194,0.0177 0.0257,0.0292 0.006,0.0115 0.0102,0.0242 0.012,0.0371 0.004,0.0259 -5.1e-4,0.0523 -0.007,0.0775 -0.007,0.0252 -0.0162,0.0497 -0.0231,0.0749 -0.007,0.0252 -0.0111,0.0517 -0.007,0.0775 0.004,0.0299 0.0194,0.0577 0.0402,0.0795 0.0209,0.0218 0.0473,0.0378 0.0755,0.0485 0.0564,0.0215 0.11824,0.0222 0.17858,0.0224 0.0603,2.1e-4 0.1221,3.8e-4 0.17887,0.0208 0.0284,0.0102 0.0552,0.0256 0.0766,0.0468 0.0214,0.0212 0.0373,0.0485 0.0427,0.0782 0.005,0.0254 0.002,0.0516 -0.004,0.0768 -0.006,0.0252 -0.0143,0.0496 -0.0207,0.0746 -0.006,0.025 -0.0107,0.051 -0.008,0.0766 0.003,0.0257 0.0134,0.0512 0.0328,0.0682 0.0192,0.0169 0.0456,0.024 0.0712,0.0242 0.0256,1.9e-4 0.0508,-0.006 0.0754,-0.0131 0.0246,-0.007 0.049,-0.0151 0.0744,-0.0188 0.0253,-0.004 0.052,-0.003 0.0754,0.008 0.0257,0.0114 0.0458,0.0338 0.057,0.0597 0.0111,0.0258 0.0138,0.0549 0.0102,0.0828 -0.007,0.0558 -0.0372,0.10571 -0.0668,0.15363 -0.0295,0.0479 -0.0598,0.0977 -0.067,0.15355 -0.004,0.0279 -0.001,0.057 0.01,0.0828 0.011,0.0259 0.031,0.0484 0.0566,0.06 0.0233,0.0105 0.0499,0.0117 0.0752,0.008 0.0253,-0.003 0.0498,-0.0114 0.0744,-0.0184 0.0246,-0.007 0.0497,-0.0132 0.0753,-0.0132 0.0256,5e-5 0.0519,0.007 0.0714,0.0234 0.0198,0.0167 0.0309,0.042 0.0343,0.0677 0.003,0.0256 -4.4e-4,0.0518 -0.007,0.0769 -0.006,0.0251 -0.0146,0.0497 -0.0208,0.0748 -0.006,0.0251 -0.0101,0.0512 -0.007,0.0769 0.004,0.0356 0.0225,0.0685 0.0463,0.0954 0.0238,0.0269 0.0531,0.0482 0.0833,0.0676 0.0302,0.0194 0.0615,0.0371 0.0907,0.058 0.0292,0.0209 0.0565,0.0452 0.076,0.0753 0.0275,0.0424 0.0381,0.0941 0.0379,0.1447 -2.4e-4,0.0506 -0.0107,0.10051 -0.0224,0.14971 -0.0117,0.0492 -0.0247,0.0983 -0.0303,0.14856 -0.006,0.0503 -0.003,0.10232 0.0147,0.14955 0.0252,0.066 0.0788,0.11678 0.13439,0.16027 0.0556,0.0435 0.11561,0.0827 0.16187,0.136 0.0475,0.0548 0.0782,0.12187 0.12073,0.18057 0.0213,0.0293 0.0457,0.0568 0.0751,0.0779 0.0294,0.0211 0.0642,0.0357 0.10039,0.0378 0.0519,0.003 0.10133,-0.0195 0.15194,-0.0312 0.0253,-0.006 0.0516,-0.009 0.0773,-0.005 0.0257,0.004 0.0507,0.0159 0.067,0.0362 0.016,0.0199 0.0225,0.0462 0.0223,0.0717 -1.7e-4,0.0255 -0.006,0.0506 -0.0134,0.0752 -0.007,0.0246 -0.0147,0.0491 -0.0179,0.0744 -0.003,0.0253 -0.002,0.0519 0.009,0.075 0.012,0.0256 0.0349,0.0453 0.0611,0.056 0.0262,0.0106 0.0554,0.0127 0.0834,0.009 0.0559,-0.008 0.10545,-0.0394 0.15334,-0.0695 0.0479,-0.0301 0.0981,-0.0605 0.15434,-0.0667 0.0281,-0.003 0.0573,1.6e-4 0.0829,0.0122 0.0256,0.012 0.0473,0.0332 0.0575,0.0596 0.009,0.0242 0.009,0.0513 0.003,0.0767 -0.005,0.0254 -0.0146,0.0497 -0.0224,0.0745 -0.008,0.0247 -0.014,0.0505 -0.0126,0.0764 7.4e-4,0.013 0.003,0.0259 0.009,0.0377 0.005,0.0119 0.013,0.0227 0.023,0.0309 0.0101,0.008 0.0223,0.0137 0.035,0.0165 0.0127,0.003 0.0259,0.003 0.0388,0.002 0.0259,-0.003 0.0505,-0.0123 0.0749,-0.0214 0.0244,-0.009 0.0493,-0.0181 0.0753,-0.0198 0.013,-8.5e-4 0.0262,1.7e-4 0.0387,0.004 0.0125,0.004 0.0243,0.01 0.0336,0.0191 0.009,0.009 0.016,0.0207 0.02,0.033 0.004,0.0124 0.005,0.0255 0.005,0.0385 -0.001,0.026 -0.01,0.051 -0.0185,0.0754 -0.009,0.0244 -0.0185,0.0489 -0.0218,0.0747 -0.002,0.0129 -0.002,0.0261 6.6e-4,0.0388 0.002,0.0128 0.007,0.0252 0.0149,0.0357 0.008,0.0105 0.018,0.019 0.0296,0.0251 0.0115,0.006 0.0243,0.01 0.0372,0.0114 0.0259,0.003 0.0521,-0.001 0.0773,-0.008 0.0251,-0.007 0.0495,-0.0163 0.0748,-0.0228 0.0252,-0.007 0.0518,-0.0101 0.0774,-0.005 0.0356,0.007 0.0666,0.0291 0.0903,0.0565 0.0237,0.0274 0.0409,0.0596 0.0579,0.0916 0.017,0.032 0.0342,0.0642 0.0578,0.0916 0.0237,0.0274 0.0547,0.0499 0.0902,0.0566 0.0256,0.005 0.0521,0.001 0.0774,-0.005 0.0252,-0.006 0.0497,-0.0157 0.0748,-0.0227 0.0251,-0.007 0.0513,-0.0116 0.0772,-0.008 0.0129,0.002 0.0257,0.005 0.0372,0.0112 0.0116,0.006 0.022,0.0144 0.0297,0.0249 0.008,0.0104 0.0127,0.0228 0.0152,0.0355 0.002,0.0127 0.003,0.0259 0.001,0.0388 -0.003,0.0258 -0.0123,0.0503 -0.0211,0.0747 -0.009,0.0244 -0.0173,0.0494 -0.0186,0.0753 -6.5e-4,0.013 5.2e-4,0.0261 0.004,0.0385 0.004,0.0124 0.0101,0.0241 0.0192,0.0335 0.009,0.009 0.02,0.0159 0.032,0.0202 0.012,0.004 0.0247,0.006 0.0374,0.007 0.0254,8.7e-4 0.0507,-0.004 0.0755,-0.01 0.0498,-0.0107 0.10037,-0.0174 0.15127,-0.0174 h 1.18505 2.96263 0.29626 c 0.051,0 0.10165,0.007 0.15145,0.0178 0.0249,0.005 0.0502,0.0107 0.0756,0.01 0.0127,-4.6e-4 0.0255,-0.003 0.0374,-0.007 0.0119,-0.004 0.0231,-0.0113 0.0317,-0.0207 0.009,-0.01 0.0149,-0.0216 0.0183,-0.0342 0.003,-0.0126 0.004,-0.0258 0.003,-0.0388 -0.002,-0.026 -0.0118,-0.0507 -0.0212,-0.0751 -0.009,-0.0244 -0.0188,-0.0491 -0.0212,-0.0751 -0.001,-0.013 -4.8e-4,-0.0262 0.003,-0.0388 0.003,-0.0126 0.009,-0.0246 0.0183,-0.0342 0.009,-0.009 0.0198,-0.0162 0.0318,-0.0207 0.0119,-0.004 0.0247,-0.007 0.0374,-0.007 0.0255,-9.1e-4 0.0507,0.004 0.0756,0.01 0.0498,0.011 0.10046,0.0178 0.15145,0.0178 h 1.18505 0.29626 c -0.014,-0.0981 -0.014,-0.19817 0,-0.29626 0.0353,-0.24694 0.16218,-0.47973 0.35063,-0.64317 0.18845,-0.16344 0.43684,-0.25615 0.68629,-0.25615 0.24945,0 0.49784,0.0927 0.68629,0.25615 0.18845,0.16344 0.31535,0.39623 0.35063,0.64317 z"
     id="path265" /><path
     style="fill:none;stroke:#000000;stroke-width:0.264583px;stroke-linecap:butt;stroke-linejoin:miter;stroke-opacity:1"
     d="m 157.61169,105.46948 8.59162,-2.07384 4.7402,-10.665453 1.77757,-12.443029 0.59253,-4.443939 -1.48132,-1.18505 -2.66636,2.3701 -1.48131,3.555151 -0.59253,4.147677 -1.18505,2.073838 -0.88879,-5.036462 0.88879,-5.628989 -0.59252,-4.443939 -0.88879,-2.666365 -1.48131,2.962626 -0.59253,2.370101 c 0,0 0.29626,2.962627 0.29626,4.147677 0,1.18505 -0.29626,2.962624 -0.29626,2.962624 l -0.59252,2.666365 c 0,0 -2.07384,2.666362 -2.07384,1.481312 0,-1.18505 -0.29626,-5.925251 -0.29626,-5.925251 l 0.29626,-5.628989 -1.18505,-3.851415 -2.07384,0.592526 -0.59252,5.332728 v 5.628989 l 0.29626,3.258886 -2.07384,-1.481312 -1.48131,-2.962627 -1.77758,-4.740201 -1.48131,-2.962624 -2.66636,0.888788 0.59252,2.666362 c 0,0 0.59253,2.666363 1.18505,3.851413 0.59253,1.18505 2.3701,3.555151 2.07384,4.740201 -0.29626,1.18505 0.59252,4.147677 0.59252,4.147677 l -0.29626,3.555151 -2.96262,-3.851413 -3.25889,-0.592526 -1.18505,1.481314 v 2.962625 l 2.07384,3.258888 c 0,0 1.18505,2.962627 2.3701,2.666363 1.18505,-0.296262 2.66636,2.073842 2.66636,2.073842 l 2.96262,1.18505 z"
     id="path266" /></svg>
