<?xml version="1.0" encoding="UTF-8" standalone="no"?>
<!-- Created with Inkscape (http://www.inkscape.org/) -->

<svg
   width="210mm"
   height="297mm"
   viewBox="0 0 210 297"
   version="1.1"
   id="svg1"
   xmlns="http://www.w3.org/2000/svg"
   xmlns:svg="http://www.w3.org/2000/svg">
  <defs
     id="defs1" />
  <path
     style="display:none;fill:#000000;fill-opacity:1;stroke-width:0.264583"
     d="M -1.5172414,-0.37931034 -1.8965517,296.62069 212.41379,297.37931 210.13793,-1.5172414 Z"
     id="path50" />
  <path
     id="path51"
     style="display:inline;fill:#000000;fill-opacity:1;stroke-width:0.264583"
     d="M 210.13808,-1.5172201 -1.5172201,-0.37930501 -1.7172078,156.44678 c 1.14860745,-0.13041 2.3001555,-0.19897 3.4571533,-0.16898 1.1006881,-0.004 2.2010203,-0.0101 3.3016072,-0.0264 1.3462409,-0.0209 2.6931528,-0.0448 4.0379965,-0.11317 1.1939188,-0.0639 2.3877058,-0.1632 3.5832438,-0.18965 0.398513,-0.009 0.797416,-0.009 1.196309,0.002 1.696844,0.0336 3.394278,0.0703 5.088579,0.17363 1.084862,0.0724 2.165592,0.20348 3.254581,0.15968 1.063545,0.001 2.126963,0.001 3.190503,0.005 0.956907,0.005 1.913844,0.0127 2.870626,0.0294 1.222234,0.0253 2.44404,0.0682 3.664376,0.14263 1.051782,0.0689 2.102801,0.19015 3.156396,0.19069 1.013384,-0.006 2.027174,-0.0103 3.040125,-0.0434 0.705897,-0.0236 1.412313,-0.0581 2.114083,-0.14108 0.976611,-0.11621 2.017417,-0.30895 2.881994,0.27647 0.120487,0.10145 0.253452,0.1755 0.389641,0.24236 0.507036,0.0192 1.014516,0.0354 1.521871,0.0424 0.693176,0.007 1.386247,0.009 2.079459,0.0109 0.532372,0.001 1.06443,0.002 1.596802,0.002 0.351368,1.9e-4 0.702831,4.6e-4 1.054199,5.1e-4 0.876248,1e-4 1.696235,0.0566 2.470134,0.154 1.121194,0.0394 2.243157,0.0394 3.364652,0.0522 1.45651,6.7e-4 2.909837,0.0194 4.361491,0.14366 0.967159,0.0997 1.936721,0.16623 2.907833,0.21033 0.973463,0.0319 1.94829,0.047 2.922302,0.0418 1.327852,0.0597 2.64942,0.20039 3.976502,0.27389 1.12492,0.0587 2.251361,0.0804 3.377571,0.0946 1.264231,0.0111 2.528263,0.0254 3.792534,0.0284 1.239682,0.007 2.479425,0.0181 3.719152,0.0186 1.410996,0.0207 2.821791,4.4e-4 4.232817,5.2e-4 1.377066,-0.0114 2.744077,0.11998 4.117061,0.046 1.032464,-0.0188 2.051222,-0.18277 3.075782,-0.30024 0.819771,-0.0768 1.640773,-0.14157 2.462898,-0.18707 0.555332,-0.0307 0.366622,0.04 0.574126,-0.0434 0.811782,-0.10106 1.623816,-0.20055 2.440161,-0.25528 -0.02529,-0.77599 -0.05226,-1.55193 -0.07286,-2.32802 -0.109372,-1.74634 -0.258884,-3.48967 -0.392224,-5.23431 -0.08834,-1.29714 -0.14277,-2.59587 -0.19482,-3.89485 -0.100599,-1.49826 -0.124921,-2.99969 -0.142111,-4.50102 -0.02029,-1.34201 -0.02435,-2.68408 -0.04134,-4.02611 0.0058,-1.17361 -0.02306,-2.3468 -0.03721,-3.5202 -0.0092,-1.17865 -0.02273,-2.3575 -0.02274,-3.53621 -0.01199,-1.06086 -0.007,-2.12192 -0.02222,-3.18276 -0.01751,-0.98601 -0.02144,-1.97193 -0.03669,-2.95795 -0.04644,-1.12255 -0.01993,-2.2403 0.08992,-3.35846 0.0884,-0.85814 0.103231,-1.72125 0.07545,-2.58278 -0.0097,-1.29072 -0.03181,-2.58121 -0.03721,-3.87212 0.04866,-0.86572 -0.04142,-1.70837 -0.131775,-2.56367 -0.144379,-1.2461 -0.198508,-2.49922 -0.252698,-3.75171 -0.03223,-1.12177 -0.04318,-2.24404 -0.05168,-3.3662 0.0021,-0.79998 -0.01514,-1.59997 -0.01654,-2.39985 0.0066,-0.59712 -0.0049,-1.19384 -0.02377,-1.79059 -0.03392,-0.754638 -0.08041,-1.463259 0.06976,-2.226738 0.119636,-0.608238 0.330742,-1.195222 0.496093,-1.792655 0.99077,-2.279045 2.657594,-4.003577 4.928385,-5.04517 0.41584,-0.190745 0.85849,-0.31669 1.28777,-0.474906 2.08018,-0.617373 4.24831,-0.670275 6.40013,-0.639755 1.83182,0.01016 3.66339,0.02124 5.49527,0.01654 2.03815,4e-5 4.07673,0.0076 6.11487,0.01292 2.08224,0.01419 4.16191,0.101804 6.24407,0.05994 2.0122,-0.07079 4.01955,-0.27215 6.01565,-0.530201 2.18164,-0.268282 4.36502,-0.520552 6.54585,-0.7953 2.35214,-0.258663 4.69615,-0.583168 7.03833,-0.918807 2.59404,-0.396663 5.21029,-0.600461 7.8264,-0.780831 2.16898,-0.128877 4.34151,-0.16756 6.5133,-0.21394 1.92604,-0.02522 3.85175,-0.03726 5.77794,-0.04186 2.03501,-0.04242 4.06644,0.01986 6.09782,0.134359 1.80125,0.110325 3.60466,0.169307 5.40845,0.217557 1.90974,0.055 3.821,0.05401 5.73144,0.06201 1.68337,-0.04102 3.36125,0.09188 5.03948,0.198954 1.33036,0.08999 2.66384,0.08973 3.99614,0.117823 1.37874,-10e-5 2.75745,-5.5e-5 4.13618,-0.0088 1.77623,0.02589 3.54129,0.219133 5.30459,0.417028 1.25976,0.127699 2.52187,0.227019 3.78633,0.292489 0.9323,-0.03599 1.86495,-0.08485 2.79673,-0.137459 0.50756,-0.03279 1.01612,-0.03806 1.52445,-0.05013 z M 167.0358,101.82583 c -1.8686,0.005 -3.73737,0.005 -5.60586,0.0264 -1.9363,0.0122 -3.87314,0.0539 -5.80688,0.1571 -2.22855,0.12149 -4.45364,0.31395 -6.66161,0.64647 -2.45789,0.35076 -4.92054,0.67092 -7.38766,0.94981 -2.14061,0.24036 -4.28084,0.48457 -6.41667,0.7643 -2.41752,0.30647 -4.83348,0.63227 -7.26312,0.82837 -2.29605,0.13623 -4.5936,0.21364 -6.89415,0.20464 -2.08916,-0.005 -4.17858,-0.0118 -6.26732,-0.0589 -0.31603,-0.009 -0.63179,-0.0249 -0.94774,-0.0357 -5e-5,0.0551 4e-5,0.11024 0,0.16537 -0.001,0.91677 -0.002,1.83345 -0.005,2.75022 -0.004,1.23051 -0.0101,2.46081 -0.0243,3.69124 -0.017,1.29982 -0.0446,2.59965 -0.0579,3.89951 -0.004,1.25564 0.0302,2.50366 0.27544,3.74137 0.23684,1.74433 0.44137,3.49661 0.46147,5.25911 0.003,1.88932 -0.10506,3.77648 -0.30076,5.65599 -0.1683,1.55801 -0.39063,3.10928 -0.5457,4.66844 -0.1323,1.26222 -0.31393,2.51874 -0.43253,3.7791 -0.0303,1.34895 -0.0215,2.69763 -0.0114,4.04678 0.0161,1.334 0.0268,2.66853 0.0744,4.00183 0.0307,1.07128 0.0794,2.14187 0.15245,3.21117 0.0809,1.24804 0.22457,2.49016 0.32918,3.73621 0.037,0.84856 0.0897,1.69672 0.19998,2.53938 0.0976,0.99909 0.13938,1.99877 0.11628,3.0024 -2e-4,0.58251 -0.009,1.16526 -0.0165,1.74769 -0.002,0.65662 -0.004,1.31283 -0.0134,1.96939 -0.0146,0.78046 -0.0208,1.56408 -0.14056,2.33733 -0.0465,0.23813 -0.0504,0.48901 -0.13952,0.71468 -0.52388,1.3267 -1.4774,3.75414 -3.03548,4.46588 -3.37245,1.54054 -2.84643,1.61147 -4.38681,1.38234 -0.0496,0 -0.082,0.006 -0.091,-0.0444 -0.0195,-0.0228 -0.0349,-0.0452 -0.0667,-0.0522 -0.0971,-0.0365 -0.20216,-0.0461 -0.29766,-0.0889 -0.20318,-0.0498 -0.41546,-0.0487 -0.62373,-0.0517 -0.40063,10e-5 -0.80073,0.0246 -1.20096,0.0377 -0.49563,0.0329 -0.99254,0.0276 -1.48777,0.0693 -0.57332,0.0366 -1.14546,0.10004 -1.72031,0.11214 -0.602,0.0247 -1.203759,0.0505 -1.80402,0.10128 -0.758609,0.1069 -1.519914,0.19888 -2.277897,0.31265 -1.033021,0.0965 -2.068791,0.14249 -3.102136,0.23719 -1.450084,0.12851 -2.895797,0.32064 -4.35529,0.28784 -1.462134,-0.004 -2.921758,-0.0875 -4.369759,-0.29611 -1.412728,-7e-5 -2.825794,-0.0203 -4.238501,-5.1e-4 -1.250023,-6e-4 -2.499645,0.009 -3.749642,0.0114 -1.314505,-0.003 -2.628996,0.004 -3.943428,-0.015 -1.339407,-0.0173 -2.679031,-0.0445 -4.016809,-0.11627 -1.097874,-0.0628 -2.195784,-0.13847 -3.289722,-0.25115 -1.152479,-0.0266 -2.305301,-0.0355 -3.457153,-0.0868 -1.178063,-0.055 -2.354974,-0.13237 -3.528467,-0.25166 -0.263568,-0.025 -0.52812,-0.0236 -0.7922,-0.0346 -1.314197,0.22074 -2.642925,0.2541 -3.977535,0.15864 -0.492108,-0.0541 -0.986454,-0.0554 -1.479496,-0.0853 -0.825195,0.11231 -1.709121,0.17272 -2.653068,0.1726 -0.353818,-4e-5 -0.707616,-3.3e-4 -1.061434,-5.2e-4 -0.541039,0 -1.082119,-0.001 -1.623157,-0.002 -0.749757,-0.002 -1.49976,-0.003 -2.249475,-0.0124 -0.836905,-0.0115 -1.673421,-0.0289 -2.509407,-0.0718 -1.100021,-0.0557 -2.198591,-0.1338 -3.295406,-0.23513 -0.9522,-0.0796 -1.906892,-0.0505 -2.863392,-0.0455 -1.087601,0.008 -2.175217,0.0175 -3.262333,0.0532 -1.284387,0.048 -2.568663,0.11166 -3.84886,0.22841 -1.869655,0.1915 -3.735126,0.45371 -5.618262,0.46561 -1.543891,0 -3.087869,0.001 -4.631759,0.004 -1.50233,0.004 -3.004942,0.008 -4.507218,0.0222 -1.430015,0.0163 -2.860023,0.039 -4.289661,0.0765 -1.9025271,0.0369 -3.815162,0.0672 -5.6957762,-0.27647 -1.1386603,-0.18308 -2.2721113,-0.39381 -3.41839599,-0.52658 -0.8736602,-0.066 -1.74818732,-0.0651 -2.62361251,-0.0615 L -1.8965251,296.62169 212.41391,297.3803 210.93389,102.987 c -0.27054,0.014 -0.54114,0.0261 -0.81183,0.0367 -1.40287,0.0787 -2.80177,0.23642 -4.20905,0.22272 -1.57334,-0.0481 -3.14611,-0.12525 -4.71134,-0.29921 -1.28186,-0.121 -2.55989,-0.27838 -3.84576,-0.35398 -1.46469,-0.0196 -2.92946,-0.0306 -4.39353,-0.0837 -1.5407,-0.0328 -3.08018,-0.10961 -4.61832,-0.20361 -1.38826,-0.0888 -2.77434,-0.21348 -4.16719,-0.16898 -1.98219,-0.008 -3.96425,-0.0301 -5.94641,-0.0351 -1.98812,-0.0228 -3.9776,-0.0493 -5.96294,-0.16382 -1.74335,-0.0985 -3.48489,-0.15462 -5.23172,-0.11162 z" />
</svg>
