<?xml version="1.0" encoding="UTF-8" standalone="no"?>
<!-- Created with Inkscape (http://www.inkscape.org/) -->

<svg
   width="210mm"
   height="297mm"
   viewBox="0 0 210 297"
   version="1.1"
   id="svg1"
   xmlns="http://www.w3.org/2000/svg"
   xmlns:svg="http://www.w3.org/2000/svg">
  <defs
     id="defs1" />
  <path
     id="path31"
     style="fill:#000000;fill-opacity:1;stroke-width:0.264583"
     d="M 210.51738,0.75861003 0.37930501,1.5172201 0.06356201,124.31231 c 0.51973415,-0.0516 0.78904477,-0.1152 1.17098799,0.27492 0.2687997,0.17322 0.4650366,0.50598 0.7544759,0.66869 0.4034122,0.0813 0.7969094,0.20021 1.190625,0.31833 0.1437086,-0.0252 0.2886177,-0.0431 0.4325317,-0.0672 -0.3563045,-0.28383 -0.7473807,-0.5386 -1.173055,-0.75706 0.6703484,0.20776 1.3420893,0.41216 2.01073,0.62632 1.7595324,-0.26765 3.5274587,-0.48272 5.3025187,-0.59583 2.3109207,-0.20805 4.6262407,-0.34088 6.9427287,-0.46457 2.722484,-0.23225 5.451869,-0.0901 8.177279,-0.0264 3.85108,0.014 7.702185,0.0143 11.5533,-0.0103 4.864173,-0.001 9.724923,0.1265 14.588773,0.0341 6.90269,-0.1252 13.793083,-0.58123 20.688143,-0.90175 7.903079,-0.37207 15.815238,-0.46544 23.722066,-0.72657 7.880144,-0.21894 15.753194,-0.60649 23.629564,-0.92243 7.55994,-0.3741 15.1252,-0.6103 22.69216,-0.78031 7.34952,-0.14977 14.70058,-0.18963 22.05136,-0.22273 6.94065,0.006 13.87909,-0.19979 20.8194,-0.22479 5.62399,0.0299 11.24768,-0.0549 16.87133,-0.10594 3.06084,-0.0372 6.12185,-0.052 9.1829,-0.0656 z M 210.70807,148.91287 c -1.61693,0.0766 -3.23413,0.14833 -4.84983,0.24908 -3.21159,0.19543 -6.42589,0.3636 -9.64076,0.49041 -3.25086,0.13033 -6.50319,0.15537 -9.75548,0.23617 -3.36567,0.0877 -6.73041,0.15581 -10.09757,0.10231 -3.05981,-0.0136 -6.11947,-0.0176 -9.17929,-0.0186 -2.96426,-0.0115 -5.92871,-0.0115 -8.89299,-0.0145 -2.96329,0.004 -5.92654,0.003 -8.88938,0.0646 -3.3532,0.0909 -6.70523,0.2073 -10.05469,0.39481 -3.82426,0.16126 -7.6528,0.22103 -11.48043,0.19843 -3.59503,0.001 -7.18984,0.001 -10.78487,0.002 -3.13118,0.001 -6.26258,0.003 -9.39375,0.01 -2.85325,0.008 -5.70612,0.0174 -8.559163,0.0548 -2.67938,0.0421 -5.359431,0.0932 -8.036202,0.22479 -2.688314,0.13291 -5.37597,0.24604 -8.066692,0.31574 -2.759284,0.11913 -5.511463,0.35706 -8.271329,0.46406 -2.790541,0.15563 -5.581486,0.29054 -8.376233,0.34364 -2.686997,0.0489 -5.374287,-0.0208 -8.061524,-0.0362 -2.620093,-0.0182 -5.240402,-0.0382 -7.860502,-0.0553 -2.488783,-0.0144 -4.979391,-0.055 -7.466211,0.0661 -2.187845,0.0329 -4.374948,0.0872 -6.56084,0.19069 -2.327325,0.0306 -4.654055,-0.0402 -6.979935,-0.12041 -2.290507,-0.096 -4.57959,-0.23428 -6.85798,-0.49506 -1.752153,-0.17097 -3.51015,-0.22229 -5.269962,-0.24649 -1.215083,-0.0461 -2.439828,-0.12505 -3.647323,0.0568 -1.630769,0.22543 -3.260714,0.52985 -4.9118446,0.53485 -1.3755063,0.0459 -2.745964,-0.0134 -4.1196452,0.0713 -1.5496363,0.10074 -3.1012931,0.0703 -4.65242919,0.12868 L -0.37930501,295.86256 H 210.89669 Z" />
</svg>
