<?xml version="1.0" encoding="UTF-8" standalone="no"?>
<!-- Created with Inkscape (http://www.inkscape.org/) -->

<svg
   width="210mm"
   height="297mm"
   viewBox="0 0 210 297"
   version="1.1"
   id="svg1"
   inkscape:version="1.4 (86a8ad7, 2024-10-11)"
   sodipodi:docname="level 9.svg"
   xmlns:inkscape="http://www.inkscape.org/namespaces/inkscape"
   xmlns:sodipodi="http://sodipodi.sourceforge.net/DTD/sodipodi-0.dtd"
   xmlns="http://www.w3.org/2000/svg"
   xmlns:svg="http://www.w3.org/2000/svg">
  <sodipodi:namedview
     id="namedview1"
     pagecolor="#ffffff"
     bordercolor="#000000"
     borderopacity="0.25"
     inkscape:showpageshadow="2"
     inkscape:pageopacity="0.0"
     inkscape:pagecheckerboard="0"
     inkscape:deskcolor="#d1d1d1"
     inkscape:document-units="mm"
     inkscape:zoom="0.69753788"
     inkscape:cx="397.11105"
     inkscape:cy="561.97665"
     inkscape:window-width="1920"
     inkscape:window-height="1001"
     inkscape:window-x="-9"
     inkscape:window-y="-9"
     inkscape:window-maximized="1"
     inkscape:current-layer="svg1" />
  <defs
     id="defs1">
    <inkscape:path-effect
       effect="spiro"
       id="path-effect31"
       is_visible="true"
       lpeversion="1" />
    <inkscape:path-effect
       effect="spiro"
       id="path-effect30"
       is_visible="true"
       lpeversion="1" />
    <inkscape:path-effect
       effect="spiro"
       id="path-effect20"
       is_visible="true"
       lpeversion="1" />
    <inkscape:path-effect
       effect="spiro"
       id="path-effect19"
       is_visible="true"
       lpeversion="1" />
    <inkscape:path-effect
       effect="spiro"
       id="path-effect12"
       is_visible="true"
       lpeversion="1" />
    <inkscape:path-effect
       effect="spiro"
       id="path-effect11"
       is_visible="true"
       lpeversion="1" />
    <inkscape:path-effect
       effect="spiro"
       id="path-effect10"
       is_visible="true"
       lpeversion="1" />
    <inkscape:path-effect
       effect="spiro"
       id="path-effect9"
       is_visible="true"
       lpeversion="1" />
  </defs>
  <path
     style="display:none;fill:#000000;fill-opacity:1;stroke-width:0.264583"
     d="M -1.5172414,-0.37931034 -1.8965517,296.62069 212.41379,297.37931 210.13793,-1.5172414 Z"
     id="path50"
     inkscape:label="base black layer" />
  <path
     id="path51"
     style="display:none;fill:#000000;fill-opacity:1;stroke-width:0.264583"
     d="M 210.13808,-1.5172201 -1.5172201,-0.37930501 -1.7172078,156.44678 c 1.14860745,-0.13041 2.3001555,-0.19897 3.4571533,-0.16898 1.1006881,-0.004 2.2010203,-0.0101 3.3016072,-0.0264 1.3462409,-0.0209 2.6931528,-0.0448 4.0379965,-0.11317 1.1939188,-0.0639 2.3877058,-0.1632 3.5832438,-0.18965 0.398513,-0.009 0.797416,-0.009 1.196309,0.002 1.696844,0.0336 3.394278,0.0703 5.088579,0.17363 1.084862,0.0724 2.165592,0.20348 3.254581,0.15968 1.063545,10e-4 2.126963,10e-4 3.190503,0.005 0.956907,0.005 1.913844,0.0127 2.870626,0.0294 1.222234,0.0253 2.44404,0.0682 3.664376,0.14263 1.051782,0.0689 2.102801,0.19015 3.156396,0.19069 1.013384,-0.006 2.027174,-0.0103 3.040125,-0.0434 0.705897,-0.0236 1.412313,-0.0581 2.114083,-0.14108 0.976611,-0.11621 2.017417,-0.30895 2.881994,0.27647 0.120487,0.10145 0.253452,0.1755 0.389641,0.24236 0.507036,0.0192 1.014516,0.0354 1.521871,0.0424 0.693176,0.007 1.386247,0.009 2.079459,0.0109 0.532372,10e-4 1.06443,0.002 1.596802,0.002 0.351368,1.9e-4 0.702831,4.6e-4 1.054199,5.1e-4 0.876248,10e-5 1.696235,0.0566 2.470134,0.154 1.121194,0.0394 2.243157,0.0394 3.364652,0.0522 1.45651,6.7e-4 2.909837,0.0194 4.361491,0.14366 0.967159,0.0997 1.936721,0.16623 2.907833,0.21033 0.973463,0.0319 1.94829,0.047 2.922302,0.0418 1.327852,0.0597 2.64942,0.20039 3.976502,0.27389 1.12492,0.0587 2.251361,0.0804 3.377571,0.0946 1.264231,0.0111 2.528263,0.0254 3.792534,0.0284 1.239682,0.007 2.479425,0.0181 3.719152,0.0186 1.410996,0.0207 2.821791,4.4e-4 4.232817,5.2e-4 1.377066,-0.0114 2.744077,0.11998 4.117061,0.046 1.032464,-0.0188 2.051222,-0.18277 3.075782,-0.30024 0.819771,-0.0768 1.640773,-0.14157 2.462898,-0.18707 0.555332,-0.0307 0.366622,0.04 0.574126,-0.0434 0.811782,-0.10106 1.623816,-0.20055 2.440161,-0.25528 -0.02529,-0.77599 -0.05226,-1.55193 -0.07286,-2.32802 -0.109372,-1.74634 -0.258884,-3.48967 -0.392224,-5.23431 -0.08834,-1.29714 -0.14277,-2.59587 -0.19482,-3.89485 -0.100599,-1.49826 -0.124921,-2.99969 -0.142111,-4.50102 -0.02029,-1.34201 -0.02435,-2.68408 -0.04134,-4.02611 0.0058,-1.17361 -0.02306,-2.3468 -0.03721,-3.5202 -0.0092,-1.17865 -0.02273,-2.3575 -0.02274,-3.53621 -0.01199,-1.06086 -0.007,-2.12192 -0.02222,-3.18276 -0.01751,-0.98601 -0.02144,-1.97193 -0.03669,-2.95795 -0.04644,-1.12255 -0.01993,-2.2403 0.08992,-3.35846 0.0884,-0.85814 0.103231,-1.72125 0.07545,-2.58278 -0.0097,-1.29072 -0.03181,-2.58121 -0.03721,-3.87212 0.04866,-0.86572 -0.04142,-1.70837 -0.131775,-2.56367 -0.144379,-1.2461 -0.198508,-2.49922 -0.252698,-3.75171 -0.03223,-1.12177 -0.04318,-2.24404 -0.05168,-3.3662 0.0021,-0.79998 -0.01514,-1.59997 -0.01654,-2.39985 0.0066,-0.59712 -0.0049,-1.19384 -0.02377,-1.79059 -0.03392,-0.754638 -0.08041,-1.463259 0.06976,-2.226738 0.119636,-0.608238 0.330742,-1.195222 0.496093,-1.792655 0.99077,-2.279045 2.657594,-4.003577 4.928382,-5.04517 0.41584,-0.190745 0.85849,-0.31669 1.28777,-0.474906 2.08018,-0.617373 4.24831,-0.670275 6.40013,-0.639755 1.83182,0.01016 3.66339,0.02124 5.49527,0.01654 2.03815,4e-5 4.07673,0.0076 6.11487,0.01292 2.08224,0.01419 4.16191,0.101804 6.24407,0.05994 2.0122,-0.07079 4.01955,-0.27215 6.01565,-0.530201 2.18164,-0.268282 4.36502,-0.520552 6.54585,-0.7953 2.35214,-0.258663 4.69615,-0.583168 7.03833,-0.918807 2.59404,-0.396663 5.21029,-0.600461 7.8264,-0.780831 2.16898,-0.128877 4.34151,-0.16756 6.5133,-0.21394 1.92604,-0.02522 3.85175,-0.03726 5.77794,-0.04186 2.03501,-0.04242 4.06644,0.01986 6.09782,0.134359 1.80125,0.110325 3.60466,0.169307 5.40845,0.217557 1.90974,0.055 3.821,0.05401 5.73144,0.06201 1.68337,-0.04102 3.36125,0.09188 5.03948,0.198954 1.33036,0.08999 2.66384,0.08973 3.99614,0.117823 1.37874,-1e-4 2.75745,-5.5e-5 4.13618,-0.0088 1.77623,0.02589 3.54129,0.219133 5.30459,0.417028 1.25976,0.127699 2.52187,0.227019 3.78633,0.292489 0.9323,-0.03599 1.86495,-0.08485 2.79673,-0.137459 0.50756,-0.03279 1.01612,-0.03806 1.52445,-0.05013 z M 167.0358,101.82583 c -1.8686,0.005 -3.73737,0.005 -5.60586,0.0264 -1.9363,0.0122 -3.87314,0.0539 -5.80688,0.1571 -2.22855,0.12149 -4.45364,0.31395 -6.66161,0.64647 -2.45789,0.35076 -4.92054,0.67092 -7.38766,0.94981 -2.14061,0.24036 -4.28084,0.48457 -6.41667,0.7643 -2.41752,0.30647 -4.83348,0.63227 -7.26312,0.82837 -2.29605,0.13623 -4.5936,0.21364 -6.89415,0.20464 -2.08916,-0.005 -4.17858,-0.0118 -6.26732,-0.0589 -0.31603,-0.009 -0.63179,-0.0249 -0.94774,-0.0357 -5e-5,0.0551 4e-5,0.11024 0,0.16537 -0.001,0.91677 -0.002,1.83345 -0.005,2.75022 -0.004,1.23051 -0.0101,2.46081 -0.0243,3.69124 -0.017,1.29982 -0.0446,2.59965 -0.0579,3.89951 -0.004,1.25564 0.0302,2.50366 0.27544,3.74137 0.23684,1.74433 0.44137,3.49661 0.46147,5.25911 0.003,1.88932 -0.10506,3.77648 -0.30076,5.65599 -0.1683,1.55801 -0.39063,3.10928 -0.5457,4.66844 -0.1323,1.26222 -0.31393,2.51874 -0.43253,3.7791 -0.0303,1.34895 -0.0215,2.69763 -0.0114,4.04678 0.0161,1.334 0.0268,2.66853 0.0744,4.00183 0.0307,1.07128 0.0794,2.14187 0.15245,3.21117 0.0809,1.24804 0.22457,2.49016 0.32918,3.73621 0.037,0.84856 0.0897,1.69672 0.19998,2.53938 0.0976,0.99909 0.13938,1.99877 0.11628,3.0024 -2e-4,0.58251 -0.009,1.16526 -0.0165,1.74769 -0.002,0.65662 -0.004,1.31283 -0.0134,1.96939 -0.0146,0.78046 -0.0208,1.56408 -0.14056,2.33733 -0.0465,0.23813 -0.0504,0.48901 -0.13952,0.71468 -0.52388,1.3267 -1.4774,3.75414 -3.03548,4.46588 -3.37245,1.54054 -2.84643,1.61147 -4.38681,1.38234 -0.0496,0 -0.082,0.006 -0.091,-0.0444 -0.0195,-0.0228 -0.0349,-0.0452 -0.0667,-0.0522 -0.0971,-0.0365 -0.20216,-0.0461 -0.29766,-0.0889 -0.20318,-0.0498 -0.41546,-0.0487 -0.62373,-0.0517 -0.40063,1e-4 -0.80073,0.0246 -1.20096,0.0377 -0.49563,0.0329 -0.99254,0.0276 -1.48777,0.0693 -0.57332,0.0366 -1.14546,0.10004 -1.72031,0.11214 -0.602,0.0247 -1.203759,0.0505 -1.80402,0.10128 -0.758609,0.1069 -1.519914,0.19888 -2.277897,0.31265 -1.033021,0.0965 -2.068791,0.14249 -3.102136,0.23719 -1.450084,0.12851 -2.895797,0.32064 -4.35529,0.28784 -1.462134,-0.004 -2.921758,-0.0875 -4.369759,-0.29611 -1.412728,-7e-5 -2.825794,-0.0203 -4.238501,-5.1e-4 -1.250023,-6e-4 -2.499645,0.009 -3.749642,0.0114 -1.314505,-0.003 -2.628996,0.004 -3.943428,-0.015 -1.339407,-0.0173 -2.679031,-0.0445 -4.016809,-0.11627 -1.097874,-0.0628 -2.195784,-0.13847 -3.289722,-0.25115 -1.152479,-0.0266 -2.305301,-0.0355 -3.457153,-0.0868 -1.178063,-0.055 -2.354974,-0.13237 -3.528467,-0.25166 -0.263568,-0.025 -0.52812,-0.0236 -0.7922,-0.0346 -1.314197,0.22074 -2.642925,0.2541 -3.977535,0.15864 -0.492108,-0.0541 -0.986454,-0.0554 -1.479496,-0.0853 -0.825195,0.11231 -1.709121,0.17272 -2.653068,0.1726 -0.353818,-4e-5 -0.707616,-3.3e-4 -1.061434,-5.2e-4 -0.541039,0 -1.082119,-10e-4 -1.623157,-0.002 -0.749757,-0.002 -1.49976,-0.003 -2.249475,-0.0124 -0.836905,-0.0115 -1.673421,-0.0289 -2.509407,-0.0718 -1.100021,-0.0557 -2.198591,-0.1338 -3.295406,-0.23513 -0.9522,-0.0796 -1.906892,-0.0505 -2.863392,-0.0455 -1.087601,0.008 -2.175217,0.0175 -3.262333,0.0532 -1.284387,0.048 -2.568663,0.11166 -3.84886,0.22841 -1.869655,0.1915 -3.735126,0.45371 -5.618262,0.46561 -1.543891,0 -3.087869,0.001 -4.631759,0.004 -1.50233,0.004 -3.004942,0.008 -4.507218,0.0222 -1.430015,0.0163 -2.860023,0.039 -4.289661,0.0765 -1.9025271,0.0369 -3.815162,0.0672 -5.6957762,-0.27647 -1.1386603,-0.18308 -2.2721113,-0.39381 -3.41839599,-0.52658 -0.8736602,-0.066 -1.74818732,-0.0651 -2.62361251,-0.0615 L -1.8965251,296.62169 212.41391,297.3803 210.93389,102.987 c -0.27054,0.014 -0.54114,0.0261 -0.81183,0.0367 -1.40287,0.0787 -2.80177,0.23642 -4.20905,0.22272 -1.57334,-0.0481 -3.14611,-0.12525 -4.71134,-0.29921 -1.28186,-0.121 -2.55989,-0.27838 -3.84576,-0.35398 -1.46469,-0.0196 -2.92946,-0.0306 -4.39353,-0.0837 -1.5407,-0.0328 -3.08018,-0.10961 -4.61832,-0.20361 -1.38826,-0.0888 -2.77434,-0.21348 -4.16719,-0.16898 -1.98219,-0.008 -3.96425,-0.0301 -5.94641,-0.0351 -1.98812,-0.0228 -3.9776,-0.0493 -5.96294,-0.16382 -1.74335,-0.0985 -3.48489,-0.15462 -5.23172,-0.11162 z"
     inkscape:label="level 2" />
  <path
     id="path56"
     style="display:none;fill:#000000;fill-opacity:1;stroke-width:0.264583"
     inkscape:label="level 3"
     d="M 210.13808,-1.5172201 -1.5172201,-0.37930501 -1.7311605,167.1407 c 0.4917777,7.7e-4 0.98333207,-0.003 1.47587892,0.0212 1.12704968,0.0662 2.25521288,0.0945 3.38377278,0.12041 1.1561832,-0.14443 2.3335809,-0.17947 3.4990112,-0.23617 1.4492308,-0.0559 2.8983889,-0.10067 4.3485716,-0.11937 1.275888,-0.0206 2.550091,-0.0283 3.82509,0.0227 1.333909,0.0991 2.668618,0.18158 4.004923,0.23978 1.115792,0.0445 2.23262,0.0612 3.34915,0.0739 1.06385,0.0105 2.127641,0.0135 3.191536,0.0155 1.06148,0.002 2.122821,0.003 3.184302,0.003 0.861918,2.7e-4 1.723971,4.6e-4 2.585889,5.2e-4 0.720833,3e-5 1.441825,-1e-5 2.162658,0 0.767201,1e-5 1.534469,0 2.301669,0 h 1.079004 c 0.02207,-0.34569 0.06226,-0.69006 0.077,-1.03612 0.06627,-1.03052 0.244976,-2.04814 0.328146,-3.07681 0.04871,-0.98692 0.104741,-1.97048 0.221692,-2.95228 0.0977,-0.70187 0.162635,-1.40685 0.203605,-2.11408 0.03566,-0.72752 0.04384,-1.45613 0.05374,-2.18436 8.9e-4,-1.13506 0.163128,-2.26086 0.252698,-3.39049 0.04012,-1.24961 0.150532,-2.49315 0.269751,-3.73724 0.109276,-1.0534 0.155293,-2.11135 0.189653,-3.16932 0.03514,-1.40544 0.188913,-2.80464 0.282153,-4.20698 0.07466,-1.2371 0.09477,-2.47544 0.17725,-3.71191 0.116541,-1.104 0.2072,-2.20954 0.26355,-3.31815 0.05174,-1.08027 0.06448,-2.16194 0.077,-3.24321 0.01152,-1.10103 0.01404,-2.20208 0.01654,-3.30316 0.002,-1.20739 0.0022,-2.41512 0.0026,-3.62252 2.93e-4,-1.23031 4.61e-4,-2.46042 5.17e-4,-3.69073 -0.02021,-1.23264 8.67e-4,-2.46072 0.115238,-3.68866 0.102521,-0.82735 0.155074,-1.65907 0.195854,-2.49132 0.03083,-0.76108 0.04466,-1.52249 0.05426,-2.2841 0.0074,-0.60763 0.01,-1.21546 0.01189,-1.82314 -0.04751,-1.14854 0.129296,-2.2768 0.413411,-3.38739 0.836902,-2.38726 2.458253,-4.24892 4.730978,-5.38366 0.443891,-0.22162 0.924938,-0.35855 1.387512,-0.53795 1.756504,-0.55973 3.584642,-0.64802 5.411556,-0.56792 1.239628,0.047 2.475196,0.11071 3.709851,0.23358 1.14691,0.11241 2.297683,0.18084 3.448885,0.22944 0.939158,0.006 1.893235,-0.0288 2.826701,-0.14573 1.170849,-0.11464 2.333408,-0.27936 3.496944,-0.4501 1.325708,-0.19181 2.644935,-0.40984 3.977535,-0.553454 1.524971,-0.146748 3.056944,-0.200181 4.587834,-0.237711 1.229492,0.01685 2.450924,-0.06187 3.675744,-0.151412 1.631705,-0.149484 3.274097,-0.115078 4.906678,-0.235645 1.6789,-0.147709 3.361804,-0.240674 5.045686,-0.305924 2.085192,-0.06825 4.171392,-0.08188 6.2575,-0.0956 2.084834,-0.01203 4.170052,-0.01507 6.254915,-0.01757 2.055498,-0.0022 4.110548,-0.0027 6.166038,-0.0031 1.70721,0.01086 3.41158,-0.121526 5.11596,-0.206706 1.77715,-0.08368 3.55631,-0.113943 5.33508,-0.138493 1.61267,-0.02018 3.22568,-0.02474 4.83846,-0.02894 1.55622,-0.0034 3.11223,-0.0039 4.66845,-0.0047 1.27262,-5.03e-4 2.54524,-9.62e-4 3.81786,-0.001 1.14074,-0.105755 2.2849,-0.175065 3.42873,-0.238745 1.01128,-0.04771 2.01634,-0.189498 3.02359,-0.291972 1.13284,-0.110135 2.27022,-0.156519 3.40754,-0.187069 1.01493,-0.0225 2.03015,-0.02891 3.04529,-0.03411 0.74054,0.038 0.97653,-0.03451 1.70377,-0.124024 0.94914,-0.118848 1.90399,-0.173756 2.85926,-0.211356 0.48768,-0.01794 0.97552,-0.02799 1.46348,-0.03462 0.63708,-0.110337 1.27889,-0.18942 1.92185,-0.255798 -1.403,0.233792 0.19804,-0.123326 0.50022,-0.190686 0.50337,-0.117375 1.01242,-0.202719 1.52601,-0.260449 0.40116,-0.044 0.74209,-0.04887 1.06195,-0.02429 0.95956,0.07374 1.73043,0.411332 3.37344,0.745691 2.9758,1.514191 4.2195,4.036263 4.57801,7.176303 0.10226,1.17883 0.11941,2.36304 0.13591,3.54552 0.0384,1.44002 0.007,2.87745 -0.0718,4.3155 -0.0666,1.74505 -0.2086,3.48394 -0.36845,5.22242 -0.11402,1.51726 -0.24929,3.0325 -0.37879,4.54856 -0.18833,1.52488 -0.37547,3.04843 -0.49971,4.58008 -0.0907,1.16009 -0.11623,2.32413 -0.13953,3.48713 -0.007,0.3915 -0.006,0.78307 -0.0103,1.1746 0.007,0.35099 0.012,0.70225 0.0429,1.05213 0.10585,0.85738 0.33176,1.6982 0.31626,2.57039 0.004,0.46657 0.008,0.93351 0.0217,1.39991 0.0146,0.3555 0.0312,0.71115 0.0749,1.06454 0.1341,1.04872 0.29849,2.09871 0.27699,3.1595 -2e-5,0.80789 1.1e-4,1.61625 0,2.42414 -7e-5,0.7666 -2.4e-4,1.533 -0.001,2.2996 -9e-4,0.75179 0.0143,1.50513 -0.0294,2.25567 -0.0409,0.91889 -0.0344,1.83873 -0.0646,2.75798 -0.0214,1.09967 -0.0765,2.19919 -0.15968,3.29592 -0.0724,0.86219 -0.2015,1.71483 -0.1757,2.58227 -0.0127,0.44648 -0.0322,0.89269 -0.0517,1.33894 0.006,0.10942 0.021,0.21818 0.0264,0.32763 0.0291,0.65856 0.0386,1.31752 0.0491,1.97662 0.19068,-1e-5 0.38138,0 0.57206,0 0.70742,-1e-5 1.41492,0 2.12235,0 0.87171,-1e-5 1.74312,0 2.61483,0 0.0995,0.005 0.19778,-0.0169 0.29714,-0.0155 0.78622,-0.13462 1.57512,-0.24874 2.36988,-0.29559 1.01244,-0.0245 2.02409,-0.006 3.03651,-0.0351 1.13689,-0.0193 2.2711,-0.11175 3.40651,-0.16795 1.22916,-0.0214 2.45019,0.0489 3.67419,0.16691 0.88325,0.0777 1.76374,0.18176 2.63912,0.3204 0.3752,0.004 0.75033,0.0143 1.12551,0.017 0.92464,0.007 1.84933,0.008 2.77399,0.009 1.08657,6.3e-4 2.17318,8.7e-4 3.25975,10e-4 1.14686,1.6e-4 2.29376,-2e-5 3.44062,0 1.58815,-0.0379 3.1717,0.0909 4.75526,0.19017 1.30436,0.0794 2.61072,0.11913 3.91708,0.14573 1.29979,0.0132 2.59875,-0.10392 3.89692,-0.17002 1.59034,-0.0787 3.18244,-0.10979 4.77438,-0.13229 0.75531,-0.0472 1.516,-0.027 2.27583,-0.0165 z M 131.83743,113.26492 c -0.76927,0.0533 -1.53829,0.11188 -2.3089,0.14159 -1.27068,1e-4 -2.54149,5.8e-4 -3.81217,0.001 -1.54546,0.001 -3.09045,0.002 -4.6359,0.005 -1.55639,0.004 -3.11319,0.009 -4.66948,0.0279 -1.59636,0.0218 -3.19284,0.0474 -4.78782,0.12093 -1.95506,0.0974 -3.91033,0.24261 -5.86889,0.22531 -2.05031,0.001 -4.10023,0.001 -6.150531,0.003 -2.057825,0.002 -4.115986,0.006 -6.173783,0.0176 -1.925391,0.0126 -3.850741,0.0243 -5.775358,0.0847 -1.553184,0.059 -3.104866,0.15073 -4.653463,0.28577 -1.591043,0.0951 -3.185304,0.11057 -4.775419,0.22634 -1.470413,0.10748 -2.94059,0.19607 -4.415751,0.18707 -1.123668,0.0265 -2.247626,0.0621 -3.367753,0.15968 -1.127774,0.11327 -2.239427,0.32736 -3.362586,0.47594 -1.382775,0.20278 -2.76656,0.3916 -4.157369,0.53175 -1.665526,0.15749 -3.343356,0.27374 -5.016748,0.21084 -1.144568,-0.0498 -2.287084,-0.13593 -3.428731,-0.23203 -0.04919,0.85902 -0.09778,1.71825 -0.199471,2.57297 -0.0672,0.61357 -0.04141,1.46873 -0.04341,2.21692 -5.6e-5,1.2315 -2.25e-4,2.46284 -5.17e-4,3.69435 -4e-4,1.21732 -4.68e-4,2.43464 -0.0026,3.65197 -0.0026,1.14854 -0.0054,2.2973 -0.01757,3.44579 -0.01501,1.2832 -0.03199,2.56643 -0.0956,3.84834 -0.06448,1.23306 -0.152819,2.46471 -0.287838,3.69228 -0.143529,1.17877 -0.02537,2.38667 -0.166915,3.56774 -0.08279,1.23171 -0.216942,2.46091 -0.256832,3.69435 -0.04577,1.37452 -0.1111,2.74834 -0.25063,4.11706 -0.112474,1.17196 -0.207304,2.34128 -0.250114,3.51865 -0.06692,0.81026 -0.180232,1.64107 -0.204122,2.36936 -0.01323,0.96308 -0.02691,1.92633 -0.0801,2.8882 -0.06259,1.01659 -0.150469,2.03163 -0.287837,3.04116 -0.09246,0.7191 -0.09213,1.58616 -0.163815,2.38745 -0.07086,0.82212 -0.142775,1.65223 -0.288354,2.46341 -0.0574,1.29658 -0.138503,2.59336 -0.320911,3.87935 -0.174357,1.12927 -0.328919,2.06963 -0.590145,3.24063 -0.573853,1.85594 -1.283631,3.31624 -2.52646,4.79919 -1.530706,1.61238 -3.270001,2.9504 -5.520077,3.3936 -1.015211,0.17627 -2.037169,0.25449 -3.066996,0.22169 H 37.80956 35.581273 c -0.767247,0 -1.534422,1e-5 -2.301669,0 -0.721097,-1e-5 -1.442078,-4.8e-4 -2.163175,-5.2e-4 -0.863418,-5e-5 -1.727123,2.7e-4 -2.59054,0 -1.069916,-0.001 -2.139708,-0.001 -3.209623,-0.003 -1.111218,-0.002 -2.222477,-0.005 -3.333646,-0.0165 -1.279611,-0.0146 -2.559292,-0.0344 -3.838009,-0.0868 -1.372581,-0.0602 -2.744153,-0.13851 -4.113961,-0.24547 -0.945642,-0.0996 -1.910482,0.037 -2.859257,-0.004 -1.3167491,0.0169 -2.6339696,0.0206 -3.9501464,0.0651 -1.554377,0.0431 -3.1052452,0.1793 -4.6612141,0.1478 -1.2429071,-0.0627 -2.48494237,-0.14577 -3.723287,-0.27079 -0.1949868,-0.0169 -0.3918541,0.006 -0.5870443,-0.002 l -0.1462443,114.5961 214.3104331,0.75861 -0.93173,-122.38426 c -0.75159,0.16597 -1.51868,0.26571 -2.28306,0.3452 -0.81117,0.0829 -1.62525,0.11546 -2.43965,0.14676 -0.69275,0.0208 -1.38561,0.0432 -2.07842,0.0579 -0.81945,0.009 -1.63872,0.009 -2.45825,0.009 -0.75621,-0.007 -1.51232,-0.007 -2.2686,-0.007 -0.8966,0.005 -1.79356,0.007 -2.68976,0.0372 -1.04649,0.0671 -2.07784,-0.12045 -3.11143,-0.24081 -0.80286,-0.0779 -1.59129,-0.25462 -2.39159,-0.35192 -0.55264,-0.0617 -1.10855,-0.0827 -1.66398,-0.10077 -0.18155,-0.005 -0.36242,-0.0251 -0.54364,-0.0372 -0.41667,0 -0.83334,6e-5 -1.25005,0 -1.09135,0 -2.18287,-7e-5 -3.27422,-0.001 -0.95775,-0.001 -1.91549,-0.002 -2.87321,-0.009 -1.09727,-0.008 -2.19494,-0.0197 -3.29179,-0.0527 -1.27955,-0.0464 -2.55863,-0.11012 -3.83542,-0.20722 -0.78787,-0.067 -1.55784,-0.12983 -2.35335,-0.0667 -0.9483,0.0252 -1.89715,0.0526 -2.84272,0.13281 -0.6478,0.0572 -1.29867,0.0559 -1.94768,0.0966 -0.17973,0.0329 -0.36083,0.0562 -0.53795,0.0997 -1.17309,0.26972 -2.36368,0.44459 -3.55947,0.57361 -0.99159,0.10283 -1.98833,0.13751 -2.98432,0.16381 -0.72515,0.0171 -1.45027,0.0218 -2.17558,0.0258 -0.52875,0.003 -1.0577,0.004 -1.58646,0.004 -0.5308,0.0187 -1.05982,-0.0152 -1.58957,-0.0289 -1.01603,0.0317 -2.01224,-0.16924 -2.99982,-0.37569 0.0707,0.0485 -0.21568,0.005 -0.28008,-0.003 -0.94047,-0.0788 -1.78255,-0.37272 -2.57039,-0.77773 -0.56147,-0.19552 -1.01515,-0.46698 -1.36477,-0.83768 -0.0192,-0.0141 -0.0398,-0.0256 -0.0589,-0.0398 -1.62249,-1.35725 -2.51027,-2.93931 -3.13676,-4.90616 -0.34014,-1.16616 -0.40511,-2.36715 -0.41135,-3.57084 -0.0393,-0.0891 -0.0467,-0.13368 -0.0873,-0.22427 0.0239,-0.0745 0.0508,-0.14796 0.0755,-0.22221 6.5e-4,-0.0728 -0.007,-0.14523 -0.006,-0.21808 0.0721,-0.84608 0.16709,-1.68903 0.20929,-2.53731 0.0129,-1.21454 0.15621,-2.42076 0.2775,-3.62769 0.0266,-0.2756 0.0265,-0.55273 0.0439,-0.82889 -0.031,-0.42657 -0.0493,-0.85417 -0.10129,-1.27899 -0.12541,-1.05156 -0.24266,-2.10324 -0.30696,-3.16053 -0.11992,-1.33109 -0.24095,-2.66472 -0.18345,-4.00285 0.02,-1.42147 0.0433,-2.84329 0.11421,-4.26331 0.0643,-1.1286 0.15304,-2.25561 0.23874,-3.38274 1.1e-4,-1.35859 4.9e-4,-2.71713 0.001,-4.07572 0,-1.25207 8.1e-4,-2.5043 0.005,-3.75636 0.003,-0.73143 0.013,-1.46279 0.0196,-2.19418 -0.012,-0.72047 -0.018,-1.44107 -0.0217,-2.16163 -0.003,-0.71498 -0.004,-1.4296 -0.004,-2.14457 -4.3e-4,-0.75629 -4.4e-4,-1.51282 -5.1e-4,-2.26911 0.0334,-0.71783 -0.0425,-0.98451 -0.12764,-1.74098 -0.10889,-0.94901 -0.16141,-1.90318 -0.20051,-2.85719 -0.0277,-0.77346 -0.0374,-1.54743 -0.0434,-2.3213 -0.012,-0.24462 0.007,-0.48971 -0.004,-0.73433 -0.005,-0.10605 0.008,0.21256 -5.2e-4,0.31833 -0.003,0.034 -0.0131,-0.067 -0.0181,-0.10077 -0.033,-0.22687 -0.072,-0.54527 -0.0997,-0.76326 -0.0191,-0.15388 -0.02,-0.30937 -0.0362,-0.46354 -0.067,-1e-5 -0.13401,10e-6 -0.20102,0 -0.41155,-4e-5 -0.823,-5e-4 -1.23455,-5.1e-4 -0.79448,0.0309 -1.55756,-0.0847 -2.35541,-0.16899 -0.065,-0.026 -0.48308,-0.1158 -0.77101,-0.17725 -0.74824,-0.0352 -1.48121,-0.19803 -2.20349,-0.38499 -0.71069,-0.18434 -1.37433,-0.49728 -2.0779,-0.69866 -0.81597,-0.1599 -1.60108,-0.46233 -2.37712,-0.75396 -0.54392,-0.20459 -0.94725,-0.40396 -1.3162,-0.6134 z" />
  <path
     id="path63"
     style="display:none;fill:#000000;fill-opacity:1;stroke-width:0.264583"
     inkscape:label="level 4"
     d="M 210.13808,-1.5172201 -1.5172201,-0.37930501 -1.7569987,187.66038 c 1.15059685,-0.0833 2.30432121,-0.0999 3.4571533,-0.12764 0.9338879,0.0101 1.8529194,-0.0623 2.7786418,-0.16433 1.0924515,-0.12588 2.1907585,-0.18723 3.2892049,-0.22893 1.3894542,-0.0475 2.7755687,-0.0426 4.1620197,0.0651 0.961077,0.10189 1.926365,0.15798 2.89078,0.21808 0.936345,0.0587 1.865762,0.0725 2.801379,0.0165 1.462411,-0.0949 2.915915,-0.27743 4.379578,-0.35243 1.55584,-0.0433 3.112629,-0.0551 4.668965,-0.0651 1.500519,-0.008 3.000998,-0.01 4.501534,-0.0119 1.425574,-0.005 2.850732,-0.002 4.276225,0.0129 1.441967,0.007 2.884356,0.0222 4.326351,0.0222 1.058485,-0.007 2.121871,-0.0691 3.173967,-0.18706 1.559507,-0.19822 3.126621,-0.31851 4.695837,-0.40411 1.339127,-0.0635 2.67819,-0.0737 4.014742,-0.17777 1.491101,-0.11807 2.984769,-0.19038 4.47983,-0.23048 1.336747,-0.0421 2.674233,-0.0608 4.011641,-0.0568 1.473604,-0.007 2.947282,-0.003 4.420919,-0.005 1.400876,0.008 2.801934,0.0132 4.202844,0.0129 1.424379,2e-4 2.848752,0.0145 4.273125,0.0145 1.295191,-3e-5 2.59036,1e-5 3.885551,0 1.283765,-0.0105 2.567094,-0.0222 3.850927,-0.0222 1.10251,0.003 2.205383,-0.008 3.307809,0.007 0.0124,1.6e-4 0.0248,3.6e-4 0.03721,5.2e-4 0.01561,-0.21089 0.03559,-0.42141 0.04599,-0.63252 0.05716,-0.80746 0.245651,-1.59377 0.324011,-2.39779 0.04255,-0.50431 0.05728,-1.01043 0.0708,-1.51618 0.01316,-0.54942 0.01684,-1.09894 0.01964,-1.64848 0.0028,-0.69294 0.0032,-1.38599 0.0036,-2.07894 4.4e-4,-0.88392 4.46e-4,-1.76761 5.17e-4,-2.65152 -0.02282,-1.09983 0.0095,-2.1948 0.130225,-3.28869 0.07329,-0.62496 0.158841,-1.25008 0.181901,-1.87947 0.0361,-0.98794 0.04423,-1.97671 0.05323,-2.9652 0.03608,-1.21189 0.195874,-2.41471 0.282154,-3.62303 0.05124,-0.86451 0.07124,-1.73045 0.0863,-2.59622 0.0142,-0.99074 0.01757,-1.98161 0.02067,-2.97243 0.0023,-0.83817 0.0031,-1.67589 0.0036,-2.51406 3.66e-4,-0.7205 4.37e-4,-1.44113 5.17e-4,-2.16163 0.04114,-1.13093 0.221186,-2.25181 0.398425,-3.36775 0.148096,-0.65087 0.207455,-1.31418 0.256315,-1.97817 0.05443,-0.69765 0.06985,-1.39764 0.08165,-2.09703 0.01333,-0.88257 0.0158,-1.76525 0.0186,-2.6479 0.0021,-0.81072 0.0026,-1.62118 0.0031,-2.4319 3.69e-4,-0.66836 4.51e-4,-1.33668 5.17e-4,-2.00504 4.8e-5,-0.65967 -9e-6,-1.31954 0,-1.97921 6e-6,-0.64345 -10e-7,-1.28666 0,-1.93011 v -1.64331 c -0.31032,-0.0636 -0.618063,-0.14016 -0.919841,-0.23823 -0.04837,-1.1e-4 -0.09684,-4.6e-4 -0.14521,-5.2e-4 -0.189201,-2.1e-4 -0.378207,-4.8e-4 -0.567408,-5.2e-4 -0.115617,-3e-5 -0.231132,0 -0.346748,0 h -0.05994 c -2.931947,-8e-5 -5.288362,-0.58025 -7.074504,-1.51153 -1.14825,0.13643 -2.300864,0.23354 -3.455603,0.28939 -0.953295,0.0428 -1.90722,0.06 -2.861324,0.0708 -0.843418,0.008 -1.687143,0.0104 -2.530595,0.0114 -1.016125,0.002 -2.032266,0.002 -3.048392,0.002 -1.113129,0.032 -2.214394,-0.14359 -3.318144,-0.25477 -0.847581,-0.0303 -1.666367,-0.28535 -2.505274,-0.37775 -0.490905,-0.0523 -0.98415,-0.0759 -1.477429,-0.0899 -0.745842,-0.0182 -1.491562,-0.0246 -2.237589,-0.0294 -0.66226,-0.004 -1.324692,-0.005 -1.986959,-0.006 -0.437286,-5.5e-4 -0.874779,-3.8e-4 -1.312065,-5.2e-4 -2.834168,0.0295 -5.140476,-1.34885 -6.852295,-3.54552 -1.539051,-2.19365 -1.85208,-4.71337 -1.67845,-7.30395 0.09021,-1.10583 0.191968,-2.20931 0.33693,-3.30936 0.127858,-0.8766 0.188954,-1.76022 0.234094,-2.64428 0.03973,-0.84985 0.0549,-1.70064 0.06615,-2.55127 0.01071,-0.94497 0.01184,-1.88994 0.01344,-2.83496 -0.0065,-0.91054 0.03555,-1.82072 -0.04961,-2.72645 -0.116614,-1.06059 -0.189809,-2.12447 -0.241329,-3.18999 -0.03767,-0.77225 -0.167994,-1.61316 -0.251664,-2.46807 -0.08179,-0.95005 -0.248306,-1.889285 -0.3514,-2.838066 -0.121254,-1.129526 -0.168374,-2.264834 -0.198954,-3.399792 -0.02545,-1.085641 -0.03056,-2.17128 -0.03566,-3.257166 -0.01007,-0.854742 -0.125054,-1.707903 -0.195854,-2.561084 -0.03672,-0.838306 -0.100634,-1.410634 -0.205672,-2.133203 -0.143685,-0.936061 -0.221687,-1.879693 -0.283187,-2.824117 -0.03621,-0.588351 -0.05523,-1.177544 -0.0677,-1.766817 0.01842,-1.73214 0.45861,-3.284002 1.215946,-4.829679 0.930609,-1.738553 1.736148,-2.252285 3.342949,-3.564641 1.973693,-1.207074 4.264383,-1.276176 6.501929,-1.340486 1.841595,-0.128168 3.684382,-0.227498 5.528861,-0.302308 1.587891,-0.04525 3.169056,-0.213186 4.753715,-0.318326 1.641663,-0.10759 3.286899,-0.141422 4.931482,-0.167432 1.581151,-0.0119 3.157762,-0.151832 4.736145,-0.237712 1.587556,-0.04647 3.168589,-0.198101 4.752682,-0.304374 1.619507,-0.05995 3.230767,-0.230678 4.845699,-0.357084 1.876242,-0.123024 3.754548,-0.174322 5.63118,-0.289388 2.209175,-0.16351 4.425195,-0.185188 6.636288,-0.304374 2.197369,-0.129398 4.395681,-0.23157 6.591333,-0.387573 2.43341,-0.180356 4.87181,-0.270613 7.31066,-0.333313 2.28509,-0.0067 4.56518,-0.149203 6.84713,-0.251148 2.62458,-0.112122 5.2515,-0.151874 7.87807,-0.181384 2.65858,-0.01975 5.31627,-0.01098 7.97316,-0.113688 2.63458,-0.120014 5.2708,-0.186124 7.90753,-0.234094 2.56057,-0.04171 5.12136,-0.05555 7.68221,-0.06563 2.36327,-2.73e-4 4.72391,-0.141802 7.08536,-0.223242 2.42533,-0.07871 4.85171,-0.111962 7.27811,-0.135392 2.4125,0.02321 4.82188,-0.103868 7.2316,-0.198438 2.27665,-0.176256 4.55819,-0.275261 6.83576,-0.435115 2.48146,-0.202035 4.96788,-0.321246 7.45587,-0.401526 2.13558,-0.06216 4.27073,-0.06643 6.40426,-0.181901 1.88862,-0.116622 3.77902,-0.199217 5.67046,-0.251147 1.82182,-0.04334 3.64407,-0.05836 5.46633,-0.06925 1.59435,-0.03756 3.19271,0.04045 4.78575,-0.03927 1.62158,-0.09413 3.24387,-0.174313 4.86689,-0.238745 z m 0.64854,85.1302041 c -0.006,0.0013 -0.0127,5.99e-4 -0.0191,0.0021 -1.57172,0.171161 -3.1414,0.364209 -4.72323,0.415479 -1.56901,0.117282 -3.1357,0.272074 -4.70979,0.304374 -1.6001,0.08432 -3.20128,0.161719 -4.79764,0.30179 -1.86014,0.146936 -3.72398,0.264345 -5.59087,0.251665 -1.36427,0.01746 -2.72858,0.05164 -4.09174,0.110587 -1.54973,0.07901 -3.09468,0.218238 -4.64365,0.308508 -1.55826,0.05484 -3.11684,0.101783 -4.67155,0.22686 -1.73016,0.133241 -3.45948,0.258293 -5.19606,0.247013 -1.49656,0.03991 -2.9933,0.08772 -4.48603,0.207223 -1.61149,0.128006 -3.22264,0.240999 -4.83847,0.297139 -1.73019,0.104456 -3.46249,0.214807 -5.19606,0.125057 -1.42008,-0.04484 -2.84002,-0.10486 -4.26021,-0.14366 -1.47657,-0.02076 -2.95385,-0.04444 -4.42867,-0.12299 -1.0505,-0.04932 -2.1037,-0.16077 -3.15433,-0.12454 -1.38644,0.08137 -2.76612,0.241055 -4.15427,0.293005 -1.24968,0.01402 -2.49851,0.05489 -3.74809,0.0739 -1.17018,0.01694 -2.34066,0.02457 -3.51089,0.03721 -1.37921,0.01552 -2.75796,0.04107 -4.13722,0.05323 -1.15361,0.0011 -2.30717,0.0026 -3.46077,0.0088 -1.25695,0.0075 -2.51416,0.01739 -3.77083,0.04651 -1.09862,0.02933 -2.19716,0.06816 -3.2923,0.164848 -1.37594,0.121559 -2.75274,0.195077 -4.13464,0.160197 -1.1649,0.0016 -2.33,0.0025 -3.49487,0.01189 -1.05122,0.01023 -2.10269,0.02206 -3.1533,0.06149 -1.13847,0.04456 -2.27657,0.101524 -3.41064,0.214974 -1.14282,0.107194 -2.28657,0.152115 -3.43287,0.200505 -1.28439,0.08314 -2.563796,0.236837 -3.851443,0.267167 -1.111584,-0.01423 -2.22351,-0.02442 -3.335197,-0.02222 -1.049399,0 -2.098874,0.006 -3.148128,-0.01499 -0.987503,0 -1.974598,-0.01972 -2.962093,-0.02222 -0.861053,0 -1.723012,0.0011 -2.582788,0.05219 -0.705299,0.0148 -1.410731,0.004 -2.11615,0.0072 -0.77661,3e-6 -1.553481,-1.9e-5 -2.330091,0 -0.833101,2.4e-5 -1.665971,-1.34e-4 -2.499072,0 -0.856133,2e-4 -1.712186,7.23e-4 -2.568319,0.0015 -0.933778,0.0012 -1.867616,0.0027 -2.801379,0.0083 -0.893896,0.0066 -1.788001,0.0131 -2.68149,0.04289 -0.594473,0.0247 -1.190523,-0.0018 -1.783354,0.06666 -0.869987,0.09326 -1.726202,0.288528 -2.601908,0.319878 -0.970655,0.125138 -1.942566,0.217847 -2.917651,0.270267 7.04e-4,0.208627 5.46e-4,0.417257 0.0021,0.625802 0.0033,0.4606 0.007,0.920907 0.0217,1.381311 0.02015,0.512758 0.05214,1.025105 0.09715,1.53634 0.107489,1.152046 0.274985,2.303908 0.218075,3.464388 -0.02963,1.099612 -0.06412,2.200133 -0.165365,3.295923 -0.0762,0.74909 -0.18615,1.364761 -0.18035,1.835036 -0.0021,0.83576 -0.0025,1.67169 -0.01757,2.50734 -0.01885,0.90414 -0.03893,1.80872 -0.0956,2.71146 -0.06103,0.91828 -0.136174,1.83554 -0.248047,2.74919 -0.06828,-0.17947 -0.01483,-0.0537 -0.01499,0.40927 -1.39e-4,0.40614 -7.34e-4,0.8124 -10e-4,1.21853 -1.35e-4,0.12711 -3.66e-4,0.25428 -5.17e-4,0.38138 -0.0013,0.73047 -0.07478,1.44675 -0.179317,2.17041 -0.1206,0.67491 -0.221095,1.35312 -0.333313,2.02933 0.545357,0.0281 1.091436,0.0486 1.632975,0.12196 0.348785,0.0509 0.423818,0.0617 0.666109,0.10335 0.03628,0.006 0.05325,0.007 0.09974,0.0155 0.01361,0.002 0.02722,0.005 0.04082,0.007 0.104468,0.0112 0.20894,0.0208 0.313159,0.0512 h 1.300696 2.428276 2.182812 2.016931 c 0.574306,-1e-5 1.148587,3e-5 1.722893,0 0.492295,-3e-5 0.984618,1.7e-4 1.476912,0 0.522312,-10e-4 1.044517,-10e-4 1.566829,-0.002 0.578103,-0.001 1.156188,-0.003 1.734261,-0.0103 0.659168,-0.009 1.318546,-0.0205 1.977141,-0.0506 0.596054,-0.0309 1.190478,-0.0807 1.783353,-0.14934 0.522507,-0.0992 1.044129,-0.20365 1.571998,-0.2713 0.184561,-0.0246 0.371717,-0.0219 0.556555,-0.045 0.218956,-0.0315 0.436674,-0.0722 0.657324,-0.0915 0.68308,-0.0806 1.367647,-0.11403 2.053105,-0.12764 0.218814,-0.007 0.435045,-0.0526 0.654223,-0.0527 0.81589,-0.0233 1.632828,-0.0463 2.445846,-0.12196 1.024243,-0.10499 2.048833,-0.25239 3.081465,-0.20929 1.374807,0.0204 2.753542,0.17434 4.004924,0.80047 0.41025,0.64428 0.653753,0.91643 0.99271,1.39526 0.75615,0.48225 1.4659,1.00708 2.07377,1.68982 0.1258,0.14129 0.24693,0.28671 0.37052,0.42995 0.41797,0.55673 1.26912,1.58802 1.8619,3.06752 -0.006,-0.0143 -0.0101,-0.0292 -0.016,-0.0434 -0.0232,-0.0562 0.0487,0.11212 0.0729,0.16795 -0.0172,-0.045 -0.0391,-0.0803 -0.0568,-0.12454 0.39055,0.94966 0.73345,1.92272 0.86972,2.94555 0.0747,0.85683 0.13807,1.70529 0.12557,2.56522 0.0135,0.58175 0.0324,1.16354 0.0817,1.74356 0.0916,1.16763 0.2515,2.33018 0.2744,3.50263 -1e-5,1.22667 4e-5,2.45321 0,3.67988 -6e-5,1.50576 -2.2e-4,3.01179 -5.2e-4,4.51755 -10e-4,1.67526 0.001,3.35028 -0.003,5.02554 -0.002,1.62903 -0.004,3.25805 -0.0181,4.88704 -0.0144,1.54567 -0.0324,3.09179 -0.0951,4.63641 -0.0647,1.42274 -0.15891,2.8433 -0.29404,4.26124 -0.11436,1.2755 -0.0577,2.56456 -0.19792,3.83955 -0.0686,0.8566 -0.18501,1.70418 -0.15141,2.56316 v 3.21427 c -1e-5,1.03634 4e-5,2.07303 0,3.10937 -5e-5,0.94869 2.7e-4,1.89713 0,2.84582 -0.001,0.99958 -5e-5,1.9992 -0.003,2.99878 -0.002,0.98624 -0.004,1.97282 -0.0165,2.959 -0.0162,1.02622 -0.037,2.05258 -0.0977,3.07733 -0.0807,1.34222 -0.17463,2.6893 -0.48834,4.0013 -0.0395,0.1693 -0.10726,0.33167 -0.14056,0.5023 -0.0811,0.41563 -0.0701,0.8654 -0.18707,1.27382 -0.006,0.02 -0.0126,-0.0395 -0.0186,-0.0594 -0.0559,1.23791 -0.11778,2.47806 -0.28526,3.70675 -0.20448,1.50428 -0.4562,3.00727 -0.99373,4.43487 -0.62854,1.93554 -1.41576,3.81704 -2.905771,5.26738 -0.778248,0.5432 -1.471471,1.26431 -2.364197,1.58646 -0.513824,0.18542 -1.079561,0.25129 -1.552877,0.524 -0.0034,0.002 0.008,9e-4 0.01189,0.002 0.05915,-0.0166 0.1181,-0.033 0.17725,-0.0496 -0.592117,0.22926 -1.206334,0.42985 -1.83503,0.52555 -0.893643,0.20568 -1.799637,0.39036 -2.720247,0.40256 -0.795763,0.0631 -1.587193,0.16163 -2.380734,0.24753 -0.996536,0.0547 -1.991383,0.0668 -2.989481,0.0506 -0.894763,-0.003 -1.789421,0.005 -2.684074,-0.015 -1.080061,-0.0215 -2.160128,-0.0515 -3.237528,-0.13436 -0.119954,-0.0104 -0.239278,-0.0261 -0.359152,-0.0372 -0.280728,0.0233 -0.562515,0.0319 -0.842842,0.061 -1.219468,0.10106 -2.438976,0.12894 -3.662309,0.11214 -1.03861,0.004 -2.077088,0.008 -3.115572,0.0264 -0.897883,0.0185 -1.795891,0.0433 -2.691826,0.10852 -1.186911,0.0907 -2.371491,0.25495 -3.564123,0.23875 -0.911243,5e-5 -1.82244,2.2e-4 -2.733683,5.1e-4 -0.969831,0.001 -1.939553,0.001 -2.909383,0.003 -0.851292,0.002 -1.70262,0.004 -2.55385,0.015 -0.709945,0.0117 -1.420165,0.0261 -2.129069,0.0687 -0.945375,0.0573 -1.889157,0.12996 -2.830318,0.23771 -0.998966,0.0542 -1.996228,0.0685 -2.996716,0.0543 -0.758701,-10e-4 -1.517138,-10e-4 -2.27583,-0.005 -0.804539,-0.005 -1.609447,-0.0119 -2.413806,-0.0305 -1.121715,-0.0291 -2.245047,-0.0627 -3.361036,-0.18758 -0.04664,-0.006 -0.280564,-0.0343 -0.465604,-0.0558 -0.7202,0.006 -1.440341,0.0181 -2.160592,0.0191 -1.524177,-7e-4 -3.048255,-0.009 -4.572331,-0.0274 -0.805251,-0.0162 -1.610242,-0.0403 -2.415356,-0.0594 -0.02376,6.3e-4 -0.04755,6.1e-4 -0.07131,0.001 -0.574262,0.0174 -1.148987,0.0357 -1.720825,0.0941 -0.980379,0.11038 -1.95374,0.30137 -2.942973,0.31987 -0.8431,0.0427 -1.684891,0.10674 -2.523877,0.20154 -1.158901,0.10251 -2.317393,0.13147 -3.480407,0.11007 H 19.183842 16.551444 14.074076 11.582756 8.4894043 5.8409871 c -0.7279805,0 -1.4558655,-1e-5 -2.183846,0 -0.8438289,0 -1.6877995,-3e-5 -2.5316284,0 -0.83611252,3e-5 -1.67226178,3e-4 -2.508374,5.2e-4 -0.1331682,0 -0.2663031,4.7e-4 -0.3994588,5.2e-4 l -0.114205,89.52373 214.3104351,0.75861 z M 65.955147,114.93769 h -0.03152 c 0.02651,0.005 0.05308,0.01 0.07958,0.0145 0.05726,0.0107 0.228739,0.0261 0.171049,0.0341 -0.07265,0.0101 -0.146008,-0.0273 -0.219109,-0.0486 z m -0.03152,0 c -0.09381,-0.0173 -0.1877,-0.0345 -0.281637,-0.0512 -0.04688,-0.005 -0.09358,-0.028 -0.14056,-0.0227 -0.06377,0.007 -0.127506,0.0231 -0.191203,0.0739 z" />
  <path
     id="path73"
     style="display:none;fill:#000000;fill-opacity:1;stroke-width:0.264583"
     inkscape:label="level 5"
     d="M 210.13808,-1.5172201 -1.5172201,-0.37930501 -1.8500163,260.4394 c 0.3217287,0.007 0.6432179,0.0133 0.96118166,-0.0191 0.0863765,-0.009 0.16809329,-0.0435 0.25218099,-0.0651 0.18250625,-0.0154 0.36526395,-0.0306 0.54777019,-0.046 1.88835716,-0.14536 3.77862686,0.013 5.65236816,0.24546 1.0081263,0.14783 2.0141644,0.30236 3.0292725,0.39326 0.6348681,0.026 1.270281,0.0122 1.9053098,0.0253 0.897644,0.002 1.795256,-0.002 2.692859,5.1e-4 0.876912,0.003 1.75393,0.004 2.630847,0.004 0.92808,-0.0164 1.854551,-0.12819 2.781226,-0.19689 1.203644,-0.0809 2.40881,-0.13606 3.612182,-0.22066 1.399288,-0.11962 2.79989,-0.0648 4.199744,0.006 1.008844,-0.0439 2.017321,-0.0967 3.026689,-0.12454 1.278934,-0.0535 2.558767,-0.0729 3.838525,-0.0946 1.513074,-0.0259 3.02662,-0.0181 4.539775,-0.0351 1.477027,-0.005 2.954284,0.005 4.431254,-0.01 1.517371,-0.0124 3.035516,-0.003 4.552177,-0.0522 2.026738,-0.0294 4.053355,-0.0438 6.080249,-0.0594 1.753339,0.007 3.50102,-0.0335 5.250842,-0.13074 1.990267,-0.12582 3.982888,-0.21077 5.975863,-0.27957 1.615516,-0.0405 3.224699,-0.20209 4.837947,-0.29249 1.406916,-0.072 2.813981,-0.0926 4.219381,-0.18087 -0.585695,-0.41227 -0.381907,-0.75656 0.297656,-0.0129 1.134399,-0.0834 2.270761,-0.13018 3.407027,-0.17828 0.04257,-0.0425 0.07663,-0.0803 0.12144,-0.12402 0.401824,-0.3577 0.677243,-0.63284 1.170988,-0.90848 0.01751,-0.01 0.06295,-0.0327 0.08992,-0.047 0.248255,-0.28498 0.453868,-0.52075 0.648022,-0.7276 2.43e-4,-0.57002 5.17e-4,-1.14005 5.17e-4,-1.70998 -0.02056,-1.28475 0.133656,-2.56273 0.243913,-3.84059 0.06886,-0.95623 0.08462,-1.91546 0.102319,-2.87373 -0.01694,-1.42991 0.06743,-2.85461 0.178801,-4.27932 0.08381,-1.01362 0.142797,-2.0289 0.177767,-3.04529 0.04211,-1.29455 0.193835,-2.58187 0.276985,-3.87419 0.03494,-1.34711 0.205706,-2.68334 0.330729,-4.02352 0.09421,-1.07546 0.129247,-2.15513 0.158647,-3.23391 0.08986,-1.33094 0.222554,-2.65782 0.304374,-3.98943 0.04135,-1.23077 0.140146,-2.45617 0.261483,-3.68142 0.102534,-1.04633 0.148901,-2.09662 0.180351,-3.1471 0.05234,-1.21778 0.234284,-2.42415 0.320394,-3.63905 0.06879,-1.11928 0.248222,-2.2267 0.330212,-3.34502 0.07815,-1.13154 0.106325,-2.26558 0.131775,-3.39927 0.01762,-1.16673 0.0185,-2.33212 0.07958,-3.49747 0.09806,-1.06152 0.187933,-2.12347 0.247013,-3.18791 0.04299,-0.87888 0.05713,-1.75838 0.0708,-2.63809 0.08375,-1.2265 0.214377,-2.45075 0.378271,-3.66902 0.1328,-0.75399 0.238896,-1.51046 0.296106,-2.27377 0.0498,-0.727 0.06785,-1.45594 0.08061,-2.18436 -0.0054,-0.91044 0.02776,-1.81524 0.09043,-2.72335 0.07773,-0.64851 0.186889,-1.29327 0.239779,-1.94458 0.03628,-0.57761 0.04403,-1.15675 0.05323,-1.7353 0.01114,-0.80878 0.01289,-1.61788 0.01499,-2.42672 -0.04182,-1.05893 0.105673,-2.10695 0.239778,-3.15381 0.06356,-0.84345 0.191395,-1.6785 0.332797,-2.51199 0.07068,-0.48208 0.108102,-0.96744 0.133842,-1.45366 0.0095,-0.98113 0.109866,-1.95505 0.245979,-2.92592 0.07557,-0.44341 0.116484,-0.89086 0.143144,-1.33946 0.01953,-0.89021 0.208666,-1.76306 0.296106,-2.64635 0.05945,-0.54334 0.07997,-1.09008 0.09663,-1.63607 0.01786,-0.6805 0.02246,-1.36104 0.02636,-2.04174 0.0034,-0.68842 0.004,-1.37706 0.0047,-2.0655 -0.01353,-1.04979 0.15504,-2.08859 0.24753,-3.1316 0.05876,-0.6915 0.08333,-1.3854 0.101803,-2.07894 0.01634,-0.70171 0.02112,-1.40343 0.02532,-2.1053 -0.02225,-0.55593 0.0374,-1.11683 0.0047,-1.67225 -0.0049,-0.0831 -0.0046,0.1664 -0.0067,0.2496 -0.111691,-0.94745 -0.192462,-1.89814 -0.255282,-2.84995 -0.06348,-1.0299 -0.08119,-2.06134 -0.09612,-3.09284 -0.01086,-0.79416 -0.01455,-1.58858 -0.01705,-2.3828 -0.0021,-0.78136 -0.0022,-1.56267 -0.0026,-2.34404 -2.67e-4,-0.72917 -4.56e-4,-1.45829 -5.17e-4,-2.18747 -0.05335,-2.00553 0.452903,-3.96126 1.643828,-5.61361 0.457896,-0.6353 1.082829,-1.13221 1.62419,-1.69808 1.871763,-1.46518 3.58161,-2.16711 5.948474,-2.5554 1.389813,-0.14248 2.789816,-0.10729 4.184758,-0.10129 1.190752,0.006 2.381624,0.0115 3.572394,0.0145 1.34938,0.0423 2.69285,-0.022 4.03851,-0.10904 1.2539,-0.16991 2.51376,-0.28697 3.76979,-0.4377 1.4969,-0.15764 2.99018,-0.3371 4.48397,-0.52141 1.49637,-0.18785 3.00118,-0.28775 4.50722,-0.35295 1.38972,-0.0522 2.78027,-0.0664 4.1708,-0.077 1.03896,-0.11154 2.09274,-0.10947 3.12798,-0.25011 1.27177,-0.15799 2.54768,-0.27553 3.82043,-0.42478 1.58997,-0.18913 3.18797,-0.29194 4.78679,-0.36794 1.25462,-0.0548 2.51054,-0.0762 3.76618,-0.0909 1.21412,-0.0117 2.42799,-0.0135 3.64216,-0.0155 1.36535,-0.0386 2.72572,0.0345 4.08502,0.15658 0.84736,0.0868 1.69765,0.13586 2.54868,0.16536 0.85723,0.0268 1.71487,0.0369 2.57245,0.0439 0.77494,0.006 1.54997,0.008 2.32492,0.009 0.52694,4.2e-4 1.05386,4.9e-4 1.58079,5.1e-4 -6.8e-4,-0.0346 -0.003,-0.0692 -0.004,-0.10387 -0.0528,-1.19022 0.0299,-2.3764 0.14366,-3.5605 0.0725,-1.14286 0.19905,-2.27942 0.33848,-3.41581 0.12129,-1.3196 0.28072,-2.63325 0.46251,-3.94602 0.21533,-1.58613 0.34152,-3.18106 0.53537,-4.76973 0.15482,-1.67055 0.35019,-3.33759 0.49092,-5.00951 0.14309,-1.76774 0.16507,-3.54132 0.26407,-5.31131 0.15581,-1.90501 0.2088,-3.816093 0.33641,-5.722646 0.15925,-1.753011 0.2583,-3.509694 0.3235,-5.268412 0.048,-1.878323 0.075,-3.754747 0.18655,-5.630664 0.12095,-1.8374 0.18586,-3.677897 0.22996,-5.518527 0.0404,-1.907814 0.0543,-3.816027 0.0646,-5.724198 0.008,-1.660579 0.0104,-3.321012 0.0124,-4.981608 -0.0151,-1.64302 0.13716,-3.281031 0.22996,-4.920113 0.0659,-1.203505 0.0974,-2.40875 0.11885,-3.613733 -0.0203,-1.228896 0.11631,-2.449765 0.24081,-3.67006 0.0714,-0.737474 0.10365,-1.477798 0.13075,-2.217953 0.0477,-0.910929 0.23015,-1.804259 0.33176,-2.708878 0.0306,-0.320609 0.0562,-0.641874 0.0677,-0.963766 0.25457,-2.993614 1.46928,-5.131849 3.92586,-6.937561 1.82969,-1.206237 3.92014,-1.633756 6.05286,-1.885673 1.30197,-0.129492 2.6108,-0.164309 3.91811,-0.190169 1.39333,0.02087 2.78018,0.162754 4.17132,0.232544 1.4357,0.0442 2.86866,0.07958 4.30103,0.192753 1.35242,0.125256 2.70926,0.182709 4.06642,0.222209 1.60612,0.03883 3.21282,0.05355 4.81934,0.06356 1.68838,-0.08497 3.37578,-0.173901 5.06533,-0.233061 2.01111,-0.02497 4.0168,-0.172288 6.02495,-0.271818 2.17994,-0.06841 4.35701,-0.185509 6.53449,-0.306441 0.64138,-0.02479 1.28108,-0.07395 1.92185,-0.10542 z M 78.254655,258.03593 c -0.262781,0.30166 -0.578731,0.65562 -0.960665,1.0573 0.176498,-0.007 0.352763,-0.0186 0.529167,-0.0274 -0.06003,-0.02 -0.119635,-0.0393 -0.180868,-0.0615 0.06617,-0.0312 0.132181,-0.0625 0.197921,-0.0946 0.358538,-0.17524 0.61342,-0.29778 0.993738,-0.5271 0.02285,-0.01 0.04539,-0.0182 0.06821,-0.0279 1.5e-4,-0.21203 4.09e-4,-0.42409 5.16e-4,-0.63613 -0.281929,0.13105 -0.517272,0.24777 -0.648022,0.31729 z M 210.6321,63.347555 c -0.58291,0.0023 -1.16584,0.0032 -1.74873,0.0088 -1.2906,0.01391 -2.58117,0.02946 -3.87108,0.07648 -1.50095,0.06274 -3.0004,0.155874 -4.49946,0.253214 -1.42734,0.06003 -2.85526,0.05458 -4.28346,0.08733 -1.28965,0.0341 -2.57903,0.08079 -3.86592,0.175183 -1.55771,0.110714 -3.10249,0.17749 -4.65863,-0.0098 -1.43688,-0.04575 -2.8736,-0.07059 -4.31136,-0.0615 -0.95106,-0.0149 -1.90207,-0.03252 -2.85306,-0.05064 -9.9e-4,0.706 -0.001,1.412222 -0.004,2.118217 -0.006,1.320113 -0.0149,2.640083 -0.0419,3.959965 -0.0366,1.584592 -0.0873,3.169302 -0.1912,4.751131 -0.1068,1.529368 -0.2477,3.055905 -0.2527,4.590418 -0.0865,2.207877 -0.20798,4.415806 -0.45889,6.611999 -0.0722,0.610051 -0.15276,1.219113 -0.22789,1.828829 0.048,0.830411 0.0724,1.659729 0.0811,2.492354 0.0187,0.493783 0.043,0.987707 0.10852,1.477946 0.14394,1.169137 0.27301,2.342449 0.23151,3.522783 0,1.016598 -1.2e-4,2.033345 -0.001,3.049943 -0.001,0.866921 -0.002,1.733995 -0.009,2.600873 -0.008,0.82102 -0.0189,1.64226 -0.061,2.46239 -0.06,1.03446 -0.14734,2.0683 -0.31368,3.0918 -0.13418,0.79562 -0.28817,1.45337 -0.36897,2.22467 -0.009,0.0482 -0.009,0.0353 -0.0139,0.0599 -0.003,0.33411 -0.006,0.66795 -0.0124,1.00201 -0.0201,0.96275 -0.0411,1.92695 -0.13229,2.88613 -0.133,1.33338 -0.29272,2.66823 -0.64544,3.96461 -0.11153,0.41439 -0.23694,0.82339 -0.34881,1.23559 -0.003,1.09298 -0.005,2.18603 -0.0186,3.27887 -0.0194,1.37377 -0.0462,2.74768 -0.13384,4.11912 -0.0753,1.05672 -0.16906,2.11265 -0.31109,3.1626 -0.0611,1.23109 -0.14436,2.46149 -0.293,3.68557 -0.11723,1.07476 -0.13201,2.15586 -0.23565,3.23236 -0.13451,1.3377 -0.144,0.80907 -0.154,1.7942 -0.0204,0.97171 -0.0661,1.94415 -0.28318,2.89595 -0.12991,0.42119 -0.21745,0.85776 -0.38964,1.26349 -0.94214,2.21985 -2.65423,3.91724 -4.96094,4.73459 -0.52828,0.14791 -1.06149,0.27239 -1.59939,0.3607 -0.8237,0.6524 -1.7619,1.1847 -2.92126,1.56373 0.24321,-0.0849 -0.15971,0.0567 -0.46509,0.13385 -0.84935,0.2144 -1.72153,0.34386 -2.59984,0.32556 -0.50208,0.005 -1.00446,0.0107 -1.50637,0.0253 -0.6603,0.0198 -1.32023,0.051 -1.97869,0.10542 -1.05995,0.0947 -2.11483,0.27017 -3.18172,0.26717 -0.69221,0.0147 -1.38409,0.0335 -2.07481,0.0837 -1.09641,0.0842 -2.18609,0.24229 -3.28559,0.28629 -0.89441,0.01 -1.78883,0.0204 -2.68252,0.0599 -0.89141,0.0469 -1.78134,0.11447 -2.66702,0.22841 -1.1422,0.12248 -2.28702,0.18092 -3.43235,0.26252 -1.12399,0.11083 -2.24599,0.25589 -3.37654,0.28009 -0.97337,0.0567 -1.94215,0.15521 -2.913,0.24391 -1.29212,0.0621 -2.58424,0.0521 -3.8778,0.0481 h -3.67729 -3.18689 c -1.11995,0 -2.23952,1e-5 -3.35948,0 -0.96898,-1e-5 -1.93835,5e-5 -2.90732,0 -0.9212,-6e-5 -1.84195,-2e-4 -2.76314,-5.2e-4 -1.03216,-0.001 -2.06429,-0.001 -3.09645,-0.003 -1.06308,-0.002 -2.12644,-0.005 -3.18947,-0.0176 -1.07985,-0.0143 -2.16022,-0.0318 -3.23804,-0.10542 -0.0435,-0.003 -0.0867,-0.009 -0.13023,-0.0124 -0.0207,0.21138 -0.0348,0.4233 -0.0563,0.63458 -0.17964,1.14932 0.009,2.3528 -0.16019,3.50677 -0.0836,1.24746 -0.224,2.4931 -0.231,3.74395 -0.0274,1.66833 -0.0529,3.33736 -0.16226,5.0028 -0.0939,1.37758 -0.23475,2.75276 -0.28525,4.13256 -0.0604,1.55048 -0.14341,3.09962 -0.24805,4.64778 -0.0803,1.42135 0.003,2.84871 -0.031,4.27158 -0.004,1.67693 -0.009,3.35387 -0.0289,5.0307 -0.0234,1.6716 -0.0575,3.34308 -0.13642,5.01313 -0.0752,1.6931 -0.20536,3.38543 -0.21136,5.08031 -0.002,1.77233 -0.006,3.5447 -0.0176,5.31699 -0.0139,1.81851 -0.0306,3.6374 -0.0956,5.45496 -0.0733,1.92004 -0.16469,3.83956 -0.30179,5.75624 -0.10527,1.77523 -0.10172,3.55609 -0.23358,5.33042 -0.0936,1.56032 -0.17168,3.1183 -0.15658,4.6824 -0.034,1.65734 -0.0803,3.31499 -0.19223,4.96921 -0.10015,1.42122 -0.23877,2.83966 -0.25477,4.26537 -0.0816,1.62213 -0.19042,3.24416 -0.39997,4.85552 -0.15503,1.26041 -0.26831,2.52418 -0.42633,3.78426 -0.10805,1.4793 -0.24482,2.95638 -0.38654,4.43281 -0.0872,1.55467 -0.22548,3.10617 -0.28888,4.66173 -0.0709,1.70519 -0.15566,3.41043 -0.36225,5.10563 -0.1719,1.39796 -0.2473,2.80747 -0.50591,4.19406 -0.20475,1.17929 -0.31155,2.37375 -0.56741,3.545 -0.18456,0.82918 -0.33092,1.66331 -0.39842,2.51148 -0.12683,0.93529 -0.14192,1.88208 -0.17312,2.83187 -0.0845,1.42753 -0.14174,2.85668 -0.21084,4.28501 -0.0882,1.71906 -0.15226,3.45936 -0.686261,5.11183 -0.192997,0.48619 -0.328528,0.99949 -0.578776,1.45883 -1.286988,2.36237 -3.189597,3.7825 -5.727299,4.45347 -1.014854,0.22825 -2.046558,0.34406 -3.08715,0.31316 -0.696886,0.0224 -1.394061,0.0279 -2.090828,0.0558 -0.734853,0.0224 -1.469567,0.0613 -2.200383,0.14366 -1.078768,0.12302 -2.141329,0.3807 -3.22771,0.4439 -1.376912,0.14447 -2.755374,0.22611 -4.140315,0.21911 -1.241606,0.0142 -2.482531,0.0412 -3.724321,0.03 -1.246716,4e-4 -2.493732,7.8e-4 -3.74034,-0.0191 -1.339597,-0.0122 -2.678795,-0.0348 -4.018359,-0.0486 -1.291251,-0.0146 -2.582607,-0.002 -3.873149,0.0449 -1.39906,0.051 -2.796089,0.13668 -4.190959,0.25735 -1.505591,0.11216 -3.014758,0.16297 -4.520137,0.28061 -1.603702,0.0652 -3.207862,0.0441 -4.812626,0.0661 -1.434737,0.0207 -2.869933,0.0464 -4.303097,0.12041 -1.463933,0.083 -2.918944,0.24215 -4.376477,0.40101 -1.514247,0.0913 -3.025356,0.27478 -4.544425,0.25218 -1.419532,0.0157 -2.839033,0.0254 -4.258655,0.0274 -1.342609,0.004 -2.685161,0.0106 -4.027661,0.0294 -1.340559,0.021 -2.681626,0.0458 -4.020944,0.11007 -1.525974,0.076 -3.059609,0.16377 -4.580599,-0.0382 -1.116832,-0.11987 -2.2305,-0.26526 -3.3538,-0.31006 -1.213908,-0.10429 -2.421447,-0.25726 -3.612699,-0.51883 -0.719199,-0.10456 -0.850558,-0.12648 -1.615406,-0.14418 -1.009862,-0.0483 -2.0178108,-0.11806 -3.0225541,-0.23306 -0.8787414,-0.0295 -1.7817416,-0.009 -2.6701213,-0.0248 -1.1370026,-0.0158 -2.2734168,-0.0428 -3.4101278,-0.0734 -1.21533187,-0.0283 -2.43628097,-0.0355 -3.646289,-0.15141 -0.093572,-0.006 -0.1852307,-0.0248 -0.278536,-0.032 l -0.022221,17.2868 214.3104352,0.75861 z" />
  <path
     id="path81"
     style="display:none;fill:#000000;fill-opacity:1;stroke-width:0.264583"
     inkscape:label="level 6"
     d="M 210.13808,-1.5172201 -1.5172201,-0.37930501 -1.8210775,237.57981 c 1.06782531,-0.006 2.1371633,0.10739 3.1941203,0.24495 0.7863146,0.12569 1.582096,0.17504 2.3765991,0.21394 0.9277966,0.0211 1.8480774,0.0461 2.7729574,0.12557 0.4476351,0.0651 0.8963108,0.12284 1.3446208,0.18294 1.0445913,0.1401 1.9869948,0.35769 2.8509889,0.62632 1.021295,-0.0445 2.042586,-0.0883 3.064412,-0.12093 1.098647,-0.0491 2.196863,-0.0933 3.29489,-0.15399 1.318615,-0.0645 2.639169,-0.0775 3.958931,-0.1049 1.571971,0.0406 3.139574,-0.0414 4.708757,-0.11938 1.827559,-0.0978 3.656343,-0.15855 5.48597,-0.19895 1.70226,-0.0336 3.405165,-0.0421 5.107698,-0.0501 1.754837,0.0285 3.505887,-0.10023 5.258077,-0.17673 2.012857,-0.0895 4.027019,-0.13573 6.041492,-0.16743 1.71594,-0.0246 3.43192,-0.0322 5.148006,-0.0382 1.895474,-0.006 3.790995,-0.006 5.686475,-0.007 1.910918,-6.8e-4 3.822065,-10e-4 5.732983,-10e-4 1.804217,-1.2e-4 3.608373,-5.1e-4 5.41259,-5.2e-4 1.807628,-0.0716 3.613717,-0.17243 5.421374,-0.24443 1.764058,-0.0232 3.523001,-0.1163 5.283399,-0.22376 1.734192,-0.11545 3.470648,-0.18118 5.20795,-0.22428 1.714983,0.009 3.426129,0.13316 5.139222,0.20206 1.529305,0.056 3.059751,0.073 4.5899,0.0879 1.544912,0.0546 3.085275,0.19119 4.628142,0.28319 0.549113,0.0337 1.099183,0.0398 1.648993,0.0548 -0.0626,-0.37078 -0.1128,-0.74327 -0.17156,-1.11466 -0.18389,-1.0931 -0.29872,-2.19499 -0.37052,-3.30057 -0.0522,-0.90409 -0.0674,-1.80974 -0.0786,-2.71508 -0.01,-0.93061 -0.0104,-1.86091 -0.0114,-2.79156 -0.002,-1.10459 -0.002,-2.20942 -0.002,-3.31401 -1.9e-4,-1.26201 -4.9e-4,-2.52381 -5.2e-4,-3.78582 -3e-5,-1.39218 0,-2.78431 0,-4.17649 -10e-6,-1.63025 0,-3.26092 0,-4.89117 -0.0406,-1.6842 0.041,-3.36377 0.14212,-5.04414 0.15695,-1.66066 0.33683,-3.31835 0.44493,-4.98316 0.10129,-1.58174 0.11631,-3.1673 0.13591,-4.75164 0.0184,-1.79016 0.025,-3.57997 0.03,-5.37022 0.003,-1.58824 0.004,-3.17684 0.005,-4.76508 5.2e-4,-1.44957 10e-4,-2.899 10e-4,-4.34857 8e-5,-1.4038 -10e-6,-2.80783 0,-4.21163 0.0341,-1.01787 -0.0131,-2.02752 -0.0956,-3.04013 -0.006,3e-4 -0.0122,0.001 -0.0186,0.002 -0.68804,0.0312 -1.37718,0.0403 -2.063443,0.10387 -1.536288,0.0985 -3.075778,0.20549 -4.615739,0.12609 -1.568082,-0.0366 -3.137727,-0.0859 -4.699455,-0.23978 -1.640072,-0.18282 -3.273147,-0.42956 -4.879289,-0.81494 -1.007406,-0.22876 -2.037553,-0.31679 -3.069063,-0.33899 -1.764866,0.0498 -3.53248,0.12954 -5.297351,0.0527 -1.355804,-0.12615 -2.70945,-0.27253 -4.050915,-0.5116 -1.157713,-0.12327 -2.307735,-0.31088 -3.462321,-0.43925 -0.848726,-0.11874 -1.732021,0.0662 -2.585372,0.0181 -1.056101,0.0323 -2.111571,0.0831 -3.166215,0.14727 -1.511033,0.1025 -3.019732,0.13199 -4.53099,0.004 -1.231513,-0.0944 -2.464953,-0.19906 -3.685046,-0.39532 -1.277076,-0.11607 -2.548568,-0.29442 -3.799252,-0.5824 -1.010497,-0.21576 -1.992672,-0.52123 -3.021521,-0.65215 -0.683158,-0.23251 -1.413288,-0.35652 -2.049487,-0.69712 -1.359194,-0.72768 -2.709275,-2.05867 -3.409094,-3.61166 -2.504902,-1.25486 -3.934661,-3.18173 -4.263823,-5.20899 -0.121674,-0.31024 -0.263591,-0.581 -0.373103,-0.91984 -0.159263,-0.49276 -0.190858,-1.01804 -0.286288,-1.52704 -0.301538,-3.12876 0.408658,-6.21242 1.086756,-9.24594 0.472098,-2.15424 0.998537,-4.29684 1.376143,-6.47041 0.290052,-1.73853 0.414892,-3.49756 0.502812,-5.25601 0.119786,-1.79292 0.06689,-3.58448 -0.0026,-5.37745 -0.08081,-2.23069 -0.108467,-4.46164 -0.240812,-6.69003 -0.148765,-1.78787 -0.157516,-3.58534 -0.295073,-5.37332 -0.128612,-1.51304 -0.218912,-3.02786 -0.375688,-4.53822 -0.156668,-1.40313 -0.273315,-2.80959 -0.347265,-4.21938 -0.05685,-1.18735 -0.07632,-2.37616 -0.09095,-3.56464 -0.0097,-0.80972 -0.0131,-1.61954 -0.0155,-2.42931 -0.0456,-2.03548 0.534432,-4.06377 1.736329,-5.72213 0.302198,-0.41697 0.669318,-0.78278 1.004073,-1.174091 1.273509,-1.226773 2.734836,-2.069636 4.426603,-2.584855 1.049936,-0.319752 2.179947,-0.427832 3.26285,-0.595313 2.264105,-0.397011 4.532824,-0.675421 6.82904,-0.785481 2.509171,-0.07625 5.019717,-0.0694 7.529773,-0.06925 1.934573,-0.01923 3.857805,-0.22165 5.776909,-0.447001 2.35466,-0.305404 4.714958,-0.541017 7.079671,-0.752925 2.654723,-0.232752 5.316032,-0.38073 7.967472,-0.650607 2.344342,-0.225273 4.686786,-0.468455 7.030579,-0.699182 2.331859,-0.219071 4.672773,-0.309418 7.013008,-0.378788 1.833767,-0.05001 3.668177,-0.06792 5.502507,-0.08062 1.46875,-0.0087 2.93716,-0.01195 4.40593,-0.01395 1.15075,-0.05095 2.31363,0.07386 3.46181,-0.02532 1.28891,-0.101989 2.57908,-0.186491 3.87056,-0.247531 1.45128,-0.06349 2.90392,-0.07779 4.35633,-0.0894 1.54977,-0.07105 3.09693,-0.162948 4.64106,-0.311609 1.6,-0.159483 3.205,-0.247081 4.80487,-0.40566 1.92175,-0.18822 3.85079,-0.276411 5.78001,-0.340031 1.91026,-0.05748 3.8215,-0.07096 5.73247,-0.08268 1.79516,-0.0094 3.59002,-0.01247 5.3852,-0.01447 1.90232,-0.0017 3.80481,-0.0023 5.70714,-0.0026 1.7502,-2.44e-4 3.50013,-4.73e-4 5.25033,-5.17e-4 1.47609,-3.2e-5 2.95258,6e-6 4.42867,0 1.2731,-4e-6 2.54579,10e-7 3.81889,0 1.25409,-0.03044 2.50102,0.124982 3.74499,0.259933 1.69689,0.12098 3.25266,0.74465 4.72271,1.559594 2.27065,1.461572 3.78464,3.773194 4.32893,6.416663 0.11061,0.537189 0.16608,1.084121 0.24908,1.626261 0.20238,3.21622 -0.48797,6.40495 -0.98392,9.5684 -0.11545,0.7049 -0.22952,1.41 -0.34675,2.1146 0.0102,0.0253 0.0237,0.0493 0.0331,0.0749 0.30099,0.82627 0.53809,2.03822 0.68213,2.91455 0.11706,1.20732 0.22361,2.42076 0.25941,3.63389 0.0208,0.008 0.0595,0.002 0.0625,0.0243 0.14708,0.96157 0.0893,1.98987 0.11731,2.96106 -0.0208,1.91061 -0.11607,3.82046 -0.17157,5.73092 -0.0348,1.74038 -0.0756,3.48111 -0.0796,5.2219 -0.0143,1.60081 -0.15036,3.19725 -0.23306,4.79557 -0.0869,1.6869 -0.32224,3.35766 -0.53072,5.03174 -0.15702,1.36642 -0.1839,2.74228 -0.2036,4.11602 -0.016,1.58108 -0.0159,3.16222 -0.0119,4.74338 0.0103,1.51602 0.0121,3.03204 0.0238,4.54805 -10e-4,1.59536 0.005,3.19038 0.005,4.78575 -2.2e-4,1.91214 -4.7e-4,3.82446 -5.1e-4,5.7366 0.036,2.06753 -0.0442,4.13204 -0.1447,6.19652 -0.0789,1.5517 -0.14379,3.10428 -0.14779,4.65812 -0.0187,1.8356 -0.13576,3.66878 -0.22686,5.50199 -0.0632,1.61579 -0.0923,3.23289 -0.0853,4.84983 -6.6e-4,0.43584 -0.001,0.87161 -0.002,1.30741 0.11024,-0.004 0.22032,-0.007 0.33073,-0.004 0.16976,0.006 0.33981,0.0203 0.50953,0.045 0.37991,0.0598 0.72077,0.20974 1.10123,0.25994 0.55706,0.0544 1.11318,0.10727 1.67431,0.11627 0.85892,0.0357 1.71159,0.1733 2.56522,0.27492 0.94332,0.22441 1.86403,0.47274 2.76573,0.82424 0.36151,0.11398 0.78642,0.24476 1.11672,0.43511 0.11312,0.0652 0.20493,0.16156 0.30748,0.24236 -0.0366,0.0262 -0.14506,0.051 -0.10956,0.0786 0.0888,0.0689 0.21665,0.0593 0.32505,0.0889 0.053,0.0145 0.10156,0.0298 0.15399,0.0444 0.58632,0.0333 1.17308,0.0671 1.757,0.11524 1.35623,0.15935 2.70704,0.26914 4.07004,0.25734 1.26,-0.0289 2.51823,-0.1778 3.75946,-0.39635 1.38183,-0.24316 2.74828,-0.55578 4.13721,-0.76688 1.43553,-0.18555 2.87866,-0.29389 4.32429,-0.35709 1.12027,-0.0378 2.24126,-0.0498 3.36207,-0.0568 0.58324,-0.003 1.1665,-0.003 1.74976,-0.005 z M 138.89747,115.20382 c -0.88347,0.0236 -1.76662,0.0701 -2.64997,0.13023 -2.05435,0.12515 -4.10854,0.2253 -6.16655,0.2651 -2.041,0.0836 -4.08123,0.23069 -6.12469,0.22169 -1.8481,-0.0145 -3.69627,-0.003 -5.54437,-0.0196 -1.67626,0.002 -3.3524,0.005 -5.02863,0.0165 -1.64939,0.0273 -3.29918,0.0397 -4.9475,0.11058 -1.76045,0.0627 -3.5162,0.208 -5.27461,0.31058 -1.98394,0.0872 -3.969722,0.11175 -5.95468,0.16795 -1.822594,0.0518 -3.649185,0.0949 -5.4684,-0.0569 -1.096486,-0.0706 -2.198887,-0.0106 -3.296957,-0.0362 -1.115057,-0.0258 -2.231691,-0.0179 -3.346049,0.031 -1.587889,0.0896 -3.177269,0.21367 -4.768184,0.19637 -1.517964,-0.0156 -3.035905,-0.0301 -4.553727,-0.0553 -1.091163,-0.0379 -2.182521,-0.0641 -3.273702,-0.10077 -1.135836,-0.063 -2.287078,-0.0928 -3.398759,-0.34933 -0.214954,-0.032 -0.419684,-0.0928 -0.627352,-0.14056 -0.266701,0.0989 -0.430424,0.20052 -0.754476,0.29766 -1.087801,0.32608 -2.157718,0.74638 -3.31556,0.56689 -0.456116,-0.0419 -0.90605,-0.11618 -1.361157,-0.16588 -0.01101,-10e-4 -0.02205,-0.002 -0.03307,-0.004 -0.09177,1.17093 -0.18181,2.34204 -0.324011,3.50832 -0.181452,1.54 -0.273028,3.09356 -0.338998,4.64209 -0.07074,1.73687 -0.208327,3.47116 -0.230477,5.20898 -0.0074,1.74743 -0.0089,3.49463 -0.001,5.24206 0.0065,1.42474 -0.03292,2.85086 0.08372,4.27313 0.124457,1.72759 0.311659,3.45065 0.368969,5.18262 0.02145,1.24986 -0.0032,2.49857 -0.147277,3.7419 -0.08221,0.70139 -0.143833,1.71341 -0.376722,2.38176 -0.01468,0.0421 -0.0074,-0.0889 -0.01085,-0.13332 -0.105505,0.83322 -0.206634,1.679 -0.471289,2.47943 0.0047,-0.12758 0.130528,-0.33082 0.01395,-0.38292 -0.11236,-0.0502 -0.03378,0.24375 -0.05271,0.36535 -0.0523,0.33589 -0.111148,0.67201 -0.182418,1.00511 0.807247,0.11176 1.615051,0.21908 2.421558,0.339 0.834892,0.12852 1.665955,0.26 2.511991,0.2961 1.213475,0.1076 2.443906,-0.0318 3.660242,0.0238 h 4.117061 4.240051 c 1.103961,0 2.207982,-1e-5 3.311943,0 1.35259,1e-5 2.705559,-6e-5 4.05815,0 1.264465,6e-5 2.528584,6e-5 3.79305,5.2e-4 1.11656,0.001 2.233109,7.7e-4 3.349667,0.004 1.36877,0.004 2.7375,0.008 4.106209,0.0222 1.403031,0.0171 2.806303,0.0403 4.207494,0.11886 1.25291,0.073 2.50532,0.15838 3.75636,0.25838 1.16416,0.0167 2.32964,0.0369 3.48919,0.15141 2.08834,0.26009 4.20613,0.89905 5.71387,2.44533 0.92439,0.23262 1.82221,0.55092 2.62154,1.11001 0.85666,0.59918 1.51686,1.43908 2.27532,2.15853 0.29255,0.51573 0.62173,1.01249 0.87798,1.54719 0.49891,1.041 0.70895,2.24056 0.87385,3.36827 0.14506,1.23605 0.29748,2.47586 0.26768,3.72329 0,1.39108 5.7e-4,2.78232 10e-4,4.17339 0.002,1.69755 0.004,3.39517 0.009,5.09271 0.008,2.06423 0.0168,4.12834 0.0465,6.19239 0.0328,2.02837 0.0818,4.05684 0.17777,6.08334 0.1006,2.23606 0.1633,4.47119 0.0956,6.70967 -0.0323,2.28322 -0.08,4.5663 -0.1819,6.84765 -0.0981,2.28148 -0.22962,4.56217 -0.25322,6.84609 -0.0613,2.22529 -0.14569,4.44955 -0.25631,6.67298 -0.0836,2.31314 -0.0238,4.62975 -0.0796,6.94376 -0.0411,2.82882 -0.10328,5.65735 -0.20412,8.48475 -0.10893,3.31845 -0.12792,6.64729 -0.58807,9.94203 -0.50999,3.5089 -1.15016,6.49971 -3.64888,9.19169 -0.52747,0.43715 -1.02043,0.91963 -1.58233,1.31155 -1.55043,1.08142 -3.47748,1.5221 -5.34438,1.4919 -0.9308,0.0102 -1.86147,0.0252 -2.79207,0.047 -1.89921,0.0468 -3.79797,0.1137 -5.6963,0.1881 -3.044338,0.11158 -6.08821,0.16918 -9.134842,0.13178 -3.494665,-0.002 -6.989455,-0.004 -10.484114,-0.0119 -4.190946,-0.01 -8.382093,-0.0215 -12.572876,-0.062 -4.557363,-0.0485 -9.114617,-0.11384 -13.671,-0.22221 -3.857189,-0.0834 -7.714532,-0.0868 -11.571387,-0.1819 -3.141253,-0.13889 -6.276088,-0.40586 -9.420614,-0.48266 -3.285417,-0.0352 -6.568341,0.0538 -9.850044,0.21704 -2.899209,0.13444 -5.79876,0.23551 -8.700244,0.30851 -2.732445,0.0502 -5.4651797,0.0104 -8.1979497,0.0134 -2.3526119,-0.0134 -4.7051678,-0.0268 -7.05745033,-0.0662 -0.62653407,-0.009 -1.25254827,-0.0363 -1.87895507,-0.0496 l -0.05271,41.13341 214.3104361,0.75861 -0.63821,-83.82331 c -1.08119,-0.0628 -2.15968,-0.17118 -3.24269,-0.18965 -2.25122,-0.0474 -4.50105,-0.076 -6.74998,0.0713 -2.33378,0.082 -4.66666,0.0641 -7.0006,-0.0176 -2.03705,-0.0686 -4.07242,-0.17136 -6.10506,-0.32401 -1.61823,-0.0977 -3.24147,-0.1057 -4.86223,-0.1204 -1.85936,0.11755 -3.71239,0.3068 -5.56297,0.52141 -2.52688,0.21665 -5.06245,0.21219 -7.5613,-0.28784 -2.61821,-0.55341 -5.39725,-1.37622 -7.23676,-3.47162 -0.12328,-0.14042 -0.2188,-0.30322 -0.3328,-0.45113 -1.6462,-1.68025 -2.85107,-4.45126 -3.00705,-8.34936 -0.0134,-0.33288 -0.0337,-0.66487 -0.0532,-0.99736 -0.0992,-0.95902 -0.27924,-1.9097 -0.29094,-2.87683 0,-0.85597 -0.007,-1.71184 -0.008,-2.5678 -0.003,-0.17638 -7.5e-4,-0.35278 -0.002,-0.52917 -0.005,-0.36881 -0.0586,-0.73578 -0.0439,-1.10535 0.007,-0.5546 0.0256,-1.10896 0.0372,-1.66347 -9.5e-4,-1.35385 -0.002,-2.70793 -0.005,-4.06177 -0.004,-1.83154 -0.01,-3.66322 -0.0186,-5.49475 -0.0109,-2.43025 -0.0295,-4.86053 0.0181,-7.29051 0.0367,-1.1462 0.0926,-2.29187 0.14366,-3.43752 -0.0674,-1.49767 -0.14732,-2.99479 -0.18087,-4.49378 0.0106,-2.09579 0.0251,-4.19153 0.0677,-6.28696 0.0114,-0.52198 0.0409,-1.04339 0.0553,-1.56528 -0.004,-0.11661 -0.008,-0.23324 -0.0124,-0.34984 -0.10335,-2.9432 -0.12226,-5.8866 -0.13126,-8.83151 -0.016,-2.43367 0.0215,-4.86743 -0.0305,-7.30033 -0.0602,-2.11756 -0.14937,-4.23379 -0.24547,-6.35 -0.0609,-2.18117 -0.0302,-4.36294 -0.0372,-6.54482 0,-1.81799 0.005,-3.63595 0.007,-5.45393 0.0136,-1.4463 0.01,-2.89292 0.0129,-4.33927 -0.001,-0.94439 0.007,-1.88833 0.0326,-2.83238 0.004,-0.17605 0.009,-0.35208 0.0134,-0.52814 -0.17112,-0.0243 -0.33572,-0.0397 -0.51056,-0.0692 -0.64355,-0.10882 -1.26893,-0.26597 -1.92908,-0.26097 -1.35999,-0.1456 -2.723,-0.0977 -4.09123,-0.0822 -1.88568,-0.008 -3.7686,-0.11895 -5.6534,-0.17415 -1.90307,-0.0697 -3.80487,-0.17366 -5.70818,-0.23616 -0.88479,-0.0314 -1.76857,-0.0316 -2.65203,-0.007 z m -93.976181,52.82882 v 5.1e-4 c 0.04023,0.0383 0.07802,0.0791 0.118339,0.11731 0.03742,0.0355 -0.07091,-0.0774 -0.104903,-0.11369 -0.0043,-10e-4 -0.0091,-0.002 -0.01344,-0.004 z" />
  <path
     id="path95"
     style="display:none;fill:#000000;fill-opacity:1;stroke-width:0.264583"
     inkscape:label="level 7"
     d="M 210.13808,-1.5172201 -1.5172201,-0.37930501 -1.5559774,29.955278 -1.1280965,30.26637 c 0.41663386,0.312492 0.82089056,0.63277 1.26400552,0.933793 0.27759288,0.09342 2.35198078,2.064094 1.48569738,1.225765 0.2670985,0.260785 0.530257,0.525391 0.8015015,0.781864 0.083152,0.07862 -0.159494,-0.164073 -0.236678,-0.248563 -0.012378,-0.01355 0.028173,0.02343 0.041858,0.03566 0.068629,0.06132 0.1366246,0.123002 0.2046386,0.185002 0.1955575,0.178258 0.3201626,0.294069 0.5090129,0.468705 0.00435,0.0041 0.00731,0.0065 0.010852,0.0098 0.596635,0.506825 1.1560368,1.055235 1.7079061,1.609721 0.6121458,0.644225 1.2693715,1.23836 1.8996257,1.863968 0.4494475,0.470765 0.9440377,0.894164 1.4350545,1.324467 0.5003976,0.385539 0.2257889,0.244819 1.0030396,0.726571 0.7406489,0.539518 1.4678897,1.095321 2.1735107,1.680001 -0.01008,-0.01172 -0.04326,-0.04384 -0.03049,-0.03514 0.321895,0.219607 0.831192,0.543527 1.302763,0.872298 0.830541,0.57905 1.589715,1.247807 2.372981,1.88619 0.638205,0.521713 1.328399,0.970902 1.981792,1.475362 0.901803,0.708256 1.775356,1.447271 2.615344,2.228288 0.679919,0.60827 1.334175,1.244057 2.005045,1.862418 0.650164,0.551451 1.2612,1.180074 1.965255,1.662948 1.153955,0.889588 2.334067,1.743478 3.479891,2.643766 1.186864,0.922085 2.3192,1.907283 3.441134,2.906283 0.971265,0.848746 1.980879,1.647738 2.992065,2.447912 0.980036,0.614115 1.90789,1.305848 2.845305,1.981792 1.298613,0.974183 2.477664,2.092652 3.645772,3.216341 0.999424,0.890871 1.993817,1.787274 2.977079,2.695959 0.977154,0.927423 2.030044,1.767611 3.03289,2.666504 1.107391,0.921875 2.155088,1.909727 3.213757,2.886129 0.866894,0.787319 1.749799,1.561808 2.658753,2.300635 0.916493,0.765929 1.878512,1.47245 2.806547,2.224153 1.047043,0.924567 2.114883,1.82123 3.185852,2.717147 0.916482,0.790789 1.883799,1.526583 2.859257,2.244307 1.129329,0.827691 2.163621,1.774858 3.251998,2.653585 1.147832,0.994645 2.317773,1.962732 3.512963,2.900082 1.358365,1.031338 2.617782,2.181163 3.906222,3.295923 1.350913,1.188532 2.595648,2.489511 3.905188,3.721736 1.35879,1.17973 2.718,2.358489 4.053499,3.56464 1.220112,1.1547 2.488811,2.255498 3.736723,3.379648 1.31638,1.17426 2.712011,2.25182 4.051949,3.39824 1.380997,1.24455 2.77902,2.47195 4.137732,3.74086 1.1779,1.16995 2.432647,2.25826 3.677812,3.35535 1.387248,1.19767 2.729581,2.44475 4.092257,3.67006 1.334177,1.22432 2.735677,2.37156 4.132567,3.52278 2.02457,1.5824 3.90752,3.33308 5.85442,5.00744 1.74241,1.53398 3.53794,3.00489 5.31802,4.4943 1.87087,1.58102 3.79075,3.09964 5.7273,4.59869 1.85839,1.42133 3.68736,2.87934 5.52318,4.32945 2.04029,1.66033 4.14011,3.24415 6.18722,4.89583 1.95953,1.56152 3.93142,3.10807 5.9154,4.63847 1.80621,1.3963 3.57584,2.83796 5.34386,4.28191 1.61027,1.3657 3.24495,2.69995 4.91288,3.99459 1.77999,1.29767 3.50555,2.66759 5.18728,4.08967 1.62911,1.49988 3.37144,2.86678 5.07101,4.28398 1.7066,1.508 3.52428,2.87934 5.30665,4.29431 1.71328,1.39905 3.45284,2.76533 5.17849,4.1491 1.87319,1.49165 3.69506,3.0454 5.49889,4.61987 1.74989,1.43757 3.43345,2.95274 5.15369,4.42506 1.94768,1.52912 3.82036,3.14591 5.69785,4.7594 1.62812,1.53092 3.36711,2.93285 5.09064,4.3527 1.97694,1.62223 3.83984,3.37484 5.68854,5.13974 1.93396,1.84633 3.94907,3.60353 5.96191,5.36246 1.97446,1.79492 3.92221,3.61687 5.95881,5.34128 1.45268,1.15257 2.83565,2.38275 4.18786,3.64732 z M -1.6148885,75.966939 -1.8965251,296.62065 212.41391,297.37926 212.06768,251.86111 c -1.92572,0.0782 -4.28355,-0.50484 -6.92826,-2.03863 -1.82794,-1.06012 -3.60028,-2.21587 -5.34283,-3.41065 -2.43624,-1.67128 -4.79969,-3.44207 -7.19491,-5.17074 -2.42842,-1.7585 -4.80478,-3.58716 -7.10861,-5.50664 -2.32651,-1.8808 -4.66414,-3.74945 -6.91327,-5.72317 -2.30724,-1.93791 -4.65585,-3.8272 -6.91999,-5.8167 -2.39988,-2.05079 -4.8091,-4.09069 -7.27036,-6.06784 -2.34402,-1.89241 -4.61879,-3.8684 -6.90707,-5.82755 -2.31757,-1.99594 -4.62157,-4.00603 -6.90139,-6.04511 -2.40996,-2.0387 -4.83561,-4.05914 -7.22127,-6.12624 -2.09914,-1.78908 -4.28832,-3.46544 -6.43113,-5.20124 -2.03652,-1.71803 -4.07624,-3.43233 -6.09058,-5.17643 -1.83696,-1.59401 -3.69926,-3.15879 -5.56659,-4.71702 -1.75481,-1.47145 -3.54847,-2.89509 -5.36814,-4.28553 -1.80882,-1.43531 -3.61069,-2.8802 -5.37487,-4.37027 -1.71957,-1.44522 -3.41463,-2.92004 -5.05551,-4.45451 -1.49323,-1.34785 -3.06005,-2.60156 -4.65242,-3.83026 -1.72091,-1.3821 -3.44387,-2.76643 -5.083932,-4.24418 -1.644657,-1.43545 -3.288022,-2.87217 -4.921664,-4.32015 -1.636462,-1.51117 -3.187196,-3.11147 -4.854484,-4.58939 -1.705351,-1.51787 -3.441825,-2.99682 -5.235856,-4.40955 -1.787147,-1.44304 -3.562083,-2.90075 -5.318021,-4.38164 -1.71899,-1.40103 -3.396189,-2.84855 -5.066875,-4.30672 -1.75193,-1.52262 -3.47244,-3.08351 -5.314921,-4.49791 -1.830374,-1.48427 -3.699247,-2.92395 -5.459615,-4.49223 -1.806041,-1.56611 -3.62447,-3.12154 -5.334558,-4.79351 -1.509087,-1.487 -3.076641,-2.91198 -4.621423,-4.36149 -1.473484,-1.31023 -2.921904,-2.6495 -4.455025,-3.89072 -1.6381,-1.39887 -3.246096,-2.83345 -4.887557,-4.22868 -1.675874,-1.4513 -3.34631,-2.90796 -4.95732,-4.43177 -1.376137,-1.26133 -2.73939,-2.53914 -4.183724,-3.72277 -1.418855,-1.21891 -2.815706,-2.46345 -4.199744,-3.72174 -1.513933,-1.32301 -2.970644,-2.70997 -4.529956,-3.980635 C 24.75607,98.357008 23.1075,97.00537 21.497913,95.607084 20.254362,94.512999 19.001877,93.428049 17.727083,92.370589 16.322682,91.252151 14.928828,90.118786 13.617773,88.890698 12.47521,87.757498 11.285102,86.669755 10.236068,85.446464 9.4561221,84.592886 8.6817189,83.719252 7.7566325,83.019739 6.7943521,82.189109 5.7601731,81.441031 4.7438965,80.67828 3.1564335,79.690128 1.5754103,78.68251 0.12402344,77.499146 -0.43454287,76.964123 -1.0281857,76.469334 -1.6148885,75.966939 Z" />
  <path
     id="path100"
     style="display:none;fill:#000000;fill-opacity:1;stroke-width:0.264583"
     inkscape:label="level 8"
     d="M 210.13808,-1.5172201 -1.5172201,-0.37930501 -1.60507,68.410811 c 0.230152,0.08083 0.460606,0.160701 0.66455893,0.293006 0.38914491,0.252439 3.32945937,3.17101 3.53208417,3.377571 1.7042548,1.737364 3.3438999,3.543017 4.9826416,5.341793 2.154818,2.294805 4.1241603,4.755999 6.2409623,7.083805 1.240286,1.357107 2.553386,2.644736 3.827157,3.970301 1.467929,1.474381 2.707674,3.147265 3.927409,4.826062 1.007838,1.403198 2.011025,2.81155 3.081982,4.167704 1.078262,1.338953 2.278807,2.570587 3.469039,3.808557 1.672337,1.69347 3.288095,3.44044 4.964555,5.12992 1.722073,1.70478 3.385076,3.46798 5.063774,5.21518 1.569524,1.61198 2.972938,3.3743 4.528405,4.99866 1.276057,1.27233 2.559551,2.5371 3.84111,3.8039 1.381194,1.40587 2.781541,2.79319 4.152201,4.20957 1.458117,1.51691 2.91218,3.03799 4.363041,4.56199 1.309177,1.37323 2.575896,2.7849 3.871598,4.17081 1.18348,1.21593 2.343443,2.45467 3.523816,3.67367 1.253462,1.24381 2.380388,2.60507 3.567741,3.90933 1.041994,1.22685 2.149507,2.39533 3.247347,3.57187 1.052592,1.21092 2.23734,2.2806 3.428731,3.34967 1.393101,1.1885 2.786548,2.37632 4.174939,3.57032 1.498105,1.20838 2.949049,2.47167 4.386296,3.75119 1.210746,1.08286 2.477264,2.09947 3.742407,3.11713 1.375808,1.12633 2.749785,2.25468 4.116545,3.39204 1.350986,1.20792 2.678673,2.44099 4.031795,3.6468 1.173452,1.07093 2.329317,2.1606 3.511414,3.22203 1.29536,1.15161 2.550321,2.3454 3.792531,3.55379 1.09137,1.05751 2.1571,2.14544 3.30781,3.13934 0.95862,0.88119 1.94058,1.73125 2.95848,2.54248 0.0835,0.0599 0.16687,0.12002 0.25011,0.18035 0.13882,-0.18559 0.33293,-0.43723 0.41806,-0.54622 -0.0396,0.0155 -0.13745,0.0848 -0.11885,0.0465 0.12898,-0.26597 0.75053,-0.97588 0.86661,-1.12189 0.36063,-0.45366 0.72524,-0.90159 1.10381,-1.34152 0.73034,-0.74168 1.42533,-1.50385 2.19625,-2.2071 1.03908,-0.91774 2.12523,-1.77784 3.23598,-2.60656 0.567,-0.48034 1.00012,-1.10791 1.46451,-1.68724 0.92762,-1.16739 1.93991,-2.25639 3.00653,-3.29696 0.55203,-0.60116 1.0511,-1.25911 1.53789,-1.91616 0.90967,-1.17652 1.92721,-2.26405 2.85461,-3.42563 0.84962,-1.10891 1.72384,-2.19777 2.61948,-3.27008 0.88562,-0.99043 1.72094,-2.02153 2.54506,-3.06287 0.93058,-1.24351 1.91674,-2.44495 2.92799,-3.62355 0.90178,-1.08038 1.8414,-2.12657 2.67529,-3.2613 1.20972,-1.69163 2.56668,-3.26081 3.98373,-4.77955 1.54024,-1.55626 2.92281,-3.25697 4.31137,-4.94698 1.45443,-1.83715 3.06366,-3.53691 4.67723,-5.23224 1.50586,-1.67217 2.90261,-3.43458 4.3956,-5.11855 1.53726,-1.76068 3.1811,-3.42349 4.73511,-5.1692 1.70918,-2.04972 3.42638,-4.09267 5.1878,-6.09782 1.72306,-1.89448 3.26895,-3.93624 4.88032,-5.92367 1.63836,-2.08692 3.37508,-4.0925 5.09788,-6.10918 1.69241,-2.02457 3.42822,-4.013055 5.14904,-6.01359 1.77519,-1.967053 3.51549,-3.964252 5.23689,-5.978446 1.74255,-1.964709 3.30505,-4.07609 4.94026,-6.128309 1.82878,-2.232512 3.82796,-4.316233 5.74436,-6.472989 1.79838,-2.12551 3.63955,-4.214043 5.52886,-6.25905 1.84381,-1.949057 3.67569,-3.910753 5.42499,-5.945374 2.03437,-2.380714 4.2243,-4.618791 6.3655,-6.901387 0.22109,-0.228187 0.4398,-0.45867 0.66043,-0.687297 z M -1.6582967,109.98347 -1.8965251,296.62065 212.41391,297.37926 210.99901,111.59732 c -0.6954,0.71904 -1.38858,1.44037 -2.06034,2.18178 -1.91353,2.11598 -3.84268,4.21708 -5.84667,6.2482 -1.80341,1.96724 -3.67029,3.88104 -5.34696,5.96036 -1.75619,2.19874 -3.37759,4.50226 -5.20279,6.64559 -1.52912,1.78649 -3.01799,3.60354 -4.46019,5.46116 -1.57916,1.84852 -3.24978,3.60766 -5.11648,5.17178 -1.21458,1.09112 -2.26646,2.34413 -3.40341,3.51348 -1.39633,1.43877 -2.85263,2.81658 -4.27313,4.23127 -1.45449,1.4421 -2.80499,2.97933 -4.20853,4.47053 -1.53957,1.58144 -3.14191,3.09622 -4.74854,4.60902 -1.38811,1.35271 -2.70446,2.77539 -4.05557,4.1646 -1.40011,1.37072 -2.79225,2.7503 -4.15479,4.1584 -1.49283,1.60962 -2.87237,3.31414 -4.29172,4.98833 -1.46534,1.59838 -2.95667,3.1691 -4.56768,4.62349 -1.30784,1.348 -2.5565,2.75045 -3.85351,4.10879 -1.35852,1.35065 -2.7491,2.65887 -4.23799,3.86747 -1.05722,0.90011 -2.1349,1.77663 -3.06803,2.81068 -1.09054,1.09105 -2.08602,2.26729 -3.14864,3.38635 -1.29815,1.42177 -2.57499,2.86246 -3.82613,4.32584 -1.4003,1.57582 -2.79469,3.15812 -4.26795,4.6669 -1.1146,1.09807 -2.28364,2.13671 -3.37551,3.25716 -1.08901,1.15277 -2.0111,2.45374 -3.11505,3.5941 -1.11913,1.18887 -2.19117,2.42665 -3.40031,3.52743 -0.95632,0.80736 -1.95575,1.5604 -3.07682,2.12752 -1.33442,0.68375 -2.6714,1.22431 -4.22248,1.17151 -0.5593,-0.0114 -1.1185,-0.0426 -1.66915,-0.15193 -0.33772,-0.25325 -0.52925,-0.35596 -0.81235,-0.55087 -0.53957,0.68325 -1.6465,0.56502 -3.74292,-0.96015 -0.10235,-0.0745 -0.0533,-0.0419 -0.12765,-0.0966 -0.0491,-0.0316 -0.008,-0.002 -0.0692,-0.0424 -0.91231,-0.58975 -1.63464,-1.14742 -2.23087,-1.69861 -0.58097,-0.55311 -1.247634,-1.01897 -1.866556,-1.52755 -1.219678,-1.01962 -2.399922,-2.08239 -3.496944,-3.23495 -0.803316,-0.78075 -1.564685,-1.61703 -2.48357,-2.26549 -1.364475,-1.00003 -2.692963,-2.04743 -4.007507,-3.11196 -1.49784,-1.19229 -2.95806,-2.42984 -4.340304,-3.75584 -1.080558,-1.05033 -2.160267,-2.10638 -3.327962,-3.06079 -1.330724,-1.15851 -2.690694,-2.28563 -3.934643,-3.53932 -1.246137,-1.30126 -2.377515,-2.70294 -3.632853,-3.99614 -1.081918,-1.12313 -2.357375,-2.02438 -3.543453,-3.03186 -1.372593,-1.20462 -2.718474,-2.43973 -4.087606,-3.64835 -1.377156,-1.18074 -2.736146,-2.38283 -4.166154,-3.50057 -1.471716,-1.24839 -2.929127,-2.51718 -4.288111,-3.88916 -1.204531,-1.21811 -2.367962,-2.47892 -3.66851,-3.59823 -1.568442,-1.34168 -3.119322,-2.7071 -4.626074,-4.11758 -1.655194,-1.54432 -3.264008,-3.13672 -4.861718,-4.74028 -1.683797,-1.68989 -3.314337,-3.4338 -4.779554,-5.31957 -1.081028,-1.38372 -2.091013,-2.82703 -3.296439,-4.1088 -1.464217,-1.61481 -2.980852,-3.18186 -4.44314,-4.79867 -1.483814,-1.58983 -3.03089,-3.11867 -4.627624,-4.59507 -1.565238,-1.50542 -3.104702,-3.03967 -4.626075,-4.58887 -1.208635,-1.30974 -2.481317,-2.55254 -3.790983,-3.76152 -1.178877,-1.14536 -2.272747,-2.3675 -3.286621,-3.66231 -0.80219,-1.08152 -1.670425,-2.11623 -2.506307,-3.17138 -0.933672,-1.14366 -1.825792,-2.31648 -2.889229,-3.34709 -1.0486026,-1.16693 -2.0212923,-2.39618 -2.9651938,-3.64887 -0.5559744,-0.7854 -1.1530411,-1.54175 -1.6991211,-2.33319 -0.7282369,-0.68458 -1.4716227,-1.34624 -2.2267375,-1.99781 -1.0828326,-0.88 -2.0979555,-1.82698 -3.10420328,-2.79518 -0.74586763,-0.70702 -1.44035171,-1.4587 -2.10271402,-2.23862 z" />
  <path
     id="path107"
     style="display:inline;fill:#000000;fill-opacity:1;stroke-width:0.264583"
     inkscape:label="level 9"
     d="M 210.13808,-1.5172201 -1.5172201,-0.37930501 -1.778186,204.06661 c 0.1381515,5.8e-4 0.2762974,0.003 0.414445,0.004 1.16316899,0.004 2.32601883,0.005 3.4891927,0.005 1.2993286,5.9e-4 2.5986245,4.3e-4 3.8979532,5.2e-4 1.8176708,0.0623 3.6326456,0.18094 5.4497961,0.25734 1.504902,0.0617 3.011089,0.0821 4.517037,0.0972 1.71828,0.015 3.43691,0.0187 5.155241,0.0217 2.026141,0.003 4.05204,0.004 6.078182,0.004 1.829909,3.7e-4 3.659679,4.4e-4 5.489588,5.1e-4 1.706632,6e-5 3.413469,-1e-5 5.120101,0 1.686425,10e-6 3.372697,0 5.059122,0 h 5.118551 5.062223 c 1.849394,0.12 3.699733,0.0969 5.551599,0.076 1.954243,-0.0233 3.910723,-0.10857 5.852356,-0.33642 2.047056,-0.2484 4.088597,-0.54972 6.117456,-0.9188 1.7041,-0.31743 3.378604,-0.78542 5.012098,-1.36271 1.793383,-0.66818 3.557436,-1.41117 5.327323,-2.13837 1.614821,-0.7176 3.24896,-1.40041 4.837431,-2.17558 1.396585,-0.79351 2.776162,-1.61878 4.141349,-2.46548 1.427947,-0.91725 2.824345,-1.88332 4.226099,-2.84014 0.921027,-0.69718 1.849395,-1.40291 2.622579,-2.26601 0.694972,-0.81829 1.332941,-1.67534 1.936832,-2.5616 0.58114,-0.90411 1.095532,-1.85036 1.581812,-2.80861 0.30246,-1.03448 0.61412,-2.07548 0.8816,-3.12333 0.37303,-1.423 0.64381,-2.86772 0.86093,-4.3217 0.1661,-1.28719 0.25328,-2.58325 0.31058,-3.87935 0.052,-1.30438 0.0617,-2.60978 0.0724,-3.915 -0.0829,-0.61195 -0.005,-1.34611 -0.29353,-1.91927 -0.40411,-1.0557 -0.80482,-2.11277 -1.21543,-3.16621 -0.5895,-1.47884 -1.247274,-2.92894 -1.854147,-4.40025 -0.621189,-1.39552 -1.137159,-2.85346 -1.918746,-4.1708 -0.771717,-1.24504 -1.730932,-2.35761 -2.703194,-3.44889 -1.082046,-1.2868 -2.314821,-2.41524 -3.576526,-3.51968 -1.584469,-1.33014 -3.216989,-2.60209 -4.812109,-3.91914 -1.48189,-1.18522 -3.089013,-2.19641 -4.621423,-3.31453 -1.9498,-1.34952 -3.733774,-2.91009 -5.43326,-4.55838 -1.33286,-1.26491 -2.765762,-2.4159 -4.157886,-3.61321 -1.892301,-1.64261 -3.541165,-3.52122 -5.041036,-5.52163 -1.297339,-1.74189 -2.420082,-3.59725 -3.410128,-5.52783 -0.977735,-2.01017 -1.623823,-4.15181 -2.289266,-6.27868 -0.808017,-2.54042 -1.069016,-5.1968 -1.169954,-7.84655 -0.09954,-2.43336 0.03992,-4.8614 0.35605,-7.27346 0.336769,-2.135155 0.876816,-4.229282 1.507919,-6.294191 0.576812,-2.06214 1.619044,-3.903613 2.830318,-5.649267 1.350036,-1.854315 3.116898,-3.311097 4.892724,-4.733562 1.243558,-1.002287 2.526468,-1.94784 3.828191,-2.872692 1.693428,-1.171976 3.493843,-2.175492 5.330424,-3.102137 1.723285,-0.881939 3.538476,-1.566258 5.347994,-2.246891 2.256445,-0.74283 4.557469,-1.346121 6.875032,-1.864486 2.048477,-0.455887 4.098922,-0.896982 6.154146,-1.321366 2.268536,-0.466604 4.572977,-0.717782 6.866767,-1.02216 2.70637,-0.331528 5.40717,-0.704699 8.11113,-1.054716 3.58749,-0.474354 7.20294,-0.63575 10.81588,-0.765844 3.73479,-0.199604 7.47347,-0.301114 11.21017,-0.452686 3.67625,-0.151957 7.34797,-0.402689 11.01793,-0.662492 3.35347,-0.269279 6.717,-0.348726 10.07639,-0.503328 3.13833,-0.172368 6.27916,-0.286576 9.42113,-0.363286 3.17458,-0.07144 6.34976,-0.08926 9.525,-0.103869 3.25562,-0.02657 6.50982,0.112171 9.76374,0.199471 2.6172,0.113149 5.23305,0.06982 7.85017,-0.0021 2.7855,-0.08913 5.57199,-0.136058 8.35866,-0.166398 2.57359,-0.02548 5.14728,-0.03592 7.72098,-0.04393 0.96701,0.01915 1.93134,-0.03922 2.89646,-0.06666 z m 0.32091,87.9352011 c -0.27564,2.69e-4 -0.5499,0.02947 -0.82579,0.02429 -3.23847,-0.02182 -6.47243,0.09067 -9.70897,0.200504 -3.04218,0.05932 -6.08547,0.0651 -9.12812,0.08527 -2.81869,0.03643 -5.63764,0.05181 -8.45582,0.121439 -2.71576,0.06318 -5.43252,0.144485 -8.14834,0.02894 -2.52448,-0.05121 -5.04829,-0.01313 -7.57318,-0.03979 -2.14426,-0.0115 -4.27991,0.172693 -6.42286,0.227893 -1.91687,0.08967 -3.83187,0.236858 -5.75056,0.271818 -1.68535,0.0301 -3.3707,0.07547 -5.05292,0.187586 -1.75915,0.137573 -3.51597,0.302218 -5.27926,0.378788 -1.60691,0.102757 -3.20593,0.283439 -4.80178,0.497127 -1.61053,0.161582 -3.21176,0.407709 -4.82554,0.538469 -1.98421,0.186965 -3.97288,0.305612 -5.96036,0.452685 -1.79721,0.124911 -3.5975,0.205607 -5.38572,0.437183 -1.61008,0.168298 -3.22353,0.323546 -4.83795,0.439249 -1.24716,0.07331 -2.48251,0.267659 -3.72793,0.364319 -0.98237,0.06167 -1.96321,0.144529 -2.93523,0.303858 -0.87457,0.129948 -1.75537,0.233319 -2.61689,0.437182 -1.24383,0.301105 -2.48859,0.59767 -3.73466,0.889352 -1.38378,0.261908 -2.7781,0.47243 -4.17597,0.643888 -1.240931,0.151403 -2.477674,0.344783 -3.726903,0.419613 -0.591537,0.0298 -1.188134,0.03419 -1.772502,0.137976 -0.422228,0.07753 -0.433788,0.08444 -0.768945,0.250114 -0.73088,0.359667 -1.384537,0.614812 -2.037602,0.99012 -0.935517,0.557625 -1.844262,1.163496 -2.846855,1.599903 -0.6774,0.297605 -1.280213,0.513794 -1.835547,0.861446 -0.492526,0.305117 -1.005829,0.567426 -1.467093,0.919323 -0.07671,0.05139 -0.153251,0.102606 -0.229961,0.153996 0.03244,-0.05179 0.147982,-0.189466 0.09715,-0.155546 -0.683646,0.456267 -0.534633,0.580537 -0.15968,-0.193787 -0.284606,0.290521 -0.365965,0.07283 -0.526583,0.657325 -0.152114,0.14882 -0.03565,0.02384 -0.220658,0.466638 -0.271989,0.650986 -0.560169,1.295395 -0.859896,1.934245 -0.450827,0.81723 -0.728009,1.71952 -1.162203,2.54558 -0.236662,0.37597 -0.271185,0.71468 -0.516764,1.17823 -0.01351,0.0254 0.006,-0.0576 0.0088,-0.0863 -0.01469,0.048 -0.03772,0.087 -0.04393,0.14418 -0.01199,0.40268 -0.0284,0.93849 0,0.44751 4e-4,0.73708 5e-4,1.47417 0.0031,2.21124 0.0028,0.76832 5.16e-4,1.53933 0.0646,2.30528 0.04951,0.57959 0.07605,1.1619 0.165881,1.73736 0.07839,0.63204 0.192964,1.25944 0.341065,1.87896 0.0492,0.33529 0.01671,0.0355 -0.03566,0.0837 -0.141659,0.13024 0.666759,0.48738 0.33538,0.54208 -0.03637,-0.0277 -0.06349,-0.0867 -0.109037,-0.0827 -0.03896,0.003 0.110644,0.10688 0.07596,0.0889 -0.05265,-0.0274 -0.174838,-0.16024 -0.132808,-0.11834 0.846452,0.84368 0.06671,0.002 1.102258,1.16944 0.0383,0.0555 0.03323,0.0442 -0.03152,-0.0207 l 0.52865,0.61857 c 0.0062,0.007 -0.01482,-0.0126 -0.02222,-0.0186 -0.05744,-0.0577 -0.114642,-0.1149 -0.172082,-0.1726 0.07114,0.0776 0.147078,0.15001 0.220658,0.22531 0.395428,0.42573 0.7932,0.84909 1.182874,1.28003 0.52566,0.61027 1.28283,1.00601 1.851566,1.57355 0.54457,0.45606 1.210451,0.75641 1.810742,1.12758 0.961548,0.57964 1.944274,1.12084 2.867009,1.76216 0.780686,0.54433 1.276769,0.97792 2.079976,1.50327 0.948279,0.70862 1.947977,1.34981 2.856673,2.11202 1.261725,1.10406 2.492686,2.24979 3.524846,3.57807 0.59173,0.72834 1.15071,1.4889 1.80144,2.16473 0.8604,0.87553 1.75626,1.71422 2.64119,2.5647 1.24019,1.23479 2.38747,2.55585 3.43028,3.96255 1.00093,1.37524 1.99441,2.76552 2.82928,4.24935 0.43102,0.76603 0.7965,1.54176 1.21543,2.30425 0.58374,0.99864 1.15663,2.00624 1.71669,3.01739 0.63062,1.09902 1.26379,2.1966 1.942,3.2675 0.57993,1.01205 1.13986,2.0347 1.68982,3.06338 0.59241,1.21479 1.09613,2.46495 1.53479,3.74344 0.23044,0.78017 0.49145,1.55098 0.71314,2.33112 0.36071,0.99117 0.69318,2.00288 0.92242,3.03289 0.21215,1.05742 0.35263,2.11736 0.42013,3.19412 0.0318,0.93029 0.0139,1.85619 -0.0191,2.7864 -0.0139,0.66603 -0.0273,1.33213 -0.0522,1.99781 -0.029,0.58949 -0.0332,1.17953 -0.0522,1.7694 -10e-4,0.5595 -0.002,1.11896 -0.004,1.67845 -0.003,0.64955 -0.007,1.29939 -0.0253,1.94872 -0.028,0.79316 -0.08,1.58692 -0.22996,2.36781 -0.20355,0.95802 -0.47359,1.89855 -0.89865,2.78485 -0.29733,0.66984 -0.6428,1.48707 -1.05317,2.17247 0.42669,-1.22731 -0.21312,0.42681 -0.17932,0.64389 -0.27318,0.87876 -0.57127,1.7485 -0.94464,2.58899 -0.24357,0.71008 -0.5043,1.44571 -0.71365,2.18126 -0.33697,1.0243 -0.63861,2.05991 -1.05265,3.0577 -0.33176,0.85867 -0.72104,1.66112 -1.0511,2.44223 -0.43031,0.97709 -0.8674,1.95451 -1.41904,2.87062 -0.67352,1.11392 -1.3722,2.21286 -2.22932,3.19877 -0.63019,0.6992 -1.20517,1.44858 -1.87172,2.1146 -0.68683,0.72546 -0.70462,0.68119 -1.11466,1.15807 -0.55676,0.64338 -1.11643,1.28287 -1.68878,1.91203 -0.83592,0.85386 -1.66524,1.72194 -2.64635,2.41484 -1.05773,0.80753 -2.14496,1.586 -3.3383,2.18384 -0.7944,0.41188 -1.59103,0.82972 -2.402439,1.22525 -0.552353,0.27116 -1.104854,0.55655 -1.65778,0.87023 -0.806617,0.45863 -1.542442,1.03379 -2.351277,1.48984 -0.733808,0.43282 -1.462605,0.87605 -2.207617,1.28881 -0.854672,0.5418 -1.704428,1.08857 -2.588473,1.58181 -0.79507,0.46647 -1.612144,0.89164 -2.420007,1.33532 -1.071823,0.54996 -2.182096,1.01135 -3.319178,1.41025 -1.109756,0.36806 -2.23908,0.66776 -3.39049,0.8754 -1.025573,0.20041 -2.057931,0.36507 -3.089217,0.53382 -1.146902,0.18021 -2.291802,0.37885 -3.450953,0.46405 -1.332058,0.10755 -2.664806,0.1449 -4.000272,0.185 -1.234484,0.0603 -2.465542,0.15972 -3.693832,0.29869 -0.485464,0.0402 -0.971587,0.0714 -1.457792,0.10077 -0.979665,0.18005 -1.956722,0.37721 -2.944006,0.50333 -1.457229,0.19031 -2.916832,0.35596 -4.364075,0.61805 -1.437851,0.17342 -2.88085,0.28504 -4.318082,0.4625 -1.677135,0.21706 -3.361541,0.36546 -5.053956,0.36846 -1.45847,0.0407 -2.914646,0.11892 -4.371309,0.20102 -1.515907,0.046 -3.031605,0.0143 -4.548043,0.0103 -1.284966,-0.0142 -2.570007,-0.0345 -3.855062,-0.0305 -1.275519,0.006 -2.551187,0.0178 -3.826639,0.0305 -1.281464,0.0298 -2.562683,0.0683 -3.841626,0.15762 -0.782545,0.0547 -1.566761,0.076 -2.349728,0.12299 -0.885751,0.0692 -1.770912,0.14854 -2.658752,0.18293 -1.373786,0.093 -2.747396,0.23953 -4.12533,0.22893 -1.234582,0.0114 -2.469292,0.0237 -3.703133,0.0708 -1.092764,0.0476 -2.182089,0.14908 -3.270085,0.25994 -1.600278,0.13982 -3.2035472,0.22714 -4.8100419,0.25114 -1.0366556,-0.009 -2.0586551,0.137 -3.0912841,0.25322 -1.0815515,0.0742 -2.1600307,0.13478 -3.2282268,0.33073 -1.08036384,0.0721 -2.15673461,0.18253 -3.2395955,0.17725 l -0.090434,71.03132 214.3104351,0.75861 -1.60662,-210.961799 c -0.1161,1.4e-5 -0.2322,-4e-6 -0.3483,0 z" />
</svg>
