<?xml version="1.0" encoding="UTF-8" standalone="no"?>
<!-- Created with Inkscape (http://www.inkscape.org/) -->

<svg
   width="210mm"
   height="297mm"
   viewBox="0 0 210 297"
   version="1.1"
   id="svg1"
   xmlns="http://www.w3.org/2000/svg"
   xmlns:svg="http://www.w3.org/2000/svg">
  <defs
     id="defs1" />
  <path
     style="display:none;fill:#000000;fill-opacity:1;stroke-width:0.264583"
     d="M -1.5172414,-0.37931034 -1.8965517,296.62069 212.41379,297.37931 210.13793,-1.5172414 Z"
     id="path50" />
  <path
     id="path51"
     style="display:none;fill:#000000;fill-opacity:1;stroke-width:0.264583"
     d="M 210.13808,-1.5172201 -1.5172201,-0.37930501 -1.7172078,156.44678 c 1.14860745,-0.13041 2.3001555,-0.19897 3.4571533,-0.16898 1.1006881,-0.004 2.2010203,-0.0101 3.3016072,-0.0264 1.3462409,-0.0209 2.6931528,-0.0448 4.0379965,-0.11317 1.1939188,-0.0639 2.3877058,-0.1632 3.5832438,-0.18965 0.398513,-0.009 0.797416,-0.009 1.196309,0.002 1.696844,0.0336 3.394278,0.0703 5.088579,0.17363 1.084862,0.0724 2.165592,0.20348 3.254581,0.15968 1.063545,10e-4 2.126963,10e-4 3.190503,0.005 0.956907,0.005 1.913844,0.0127 2.870626,0.0294 1.222234,0.0253 2.44404,0.0682 3.664376,0.14263 1.051782,0.0689 2.102801,0.19015 3.156396,0.19069 1.013384,-0.006 2.027174,-0.0103 3.040125,-0.0434 0.705897,-0.0236 1.412313,-0.0581 2.114083,-0.14108 0.976611,-0.11621 2.017417,-0.30895 2.881994,0.27647 0.120487,0.10145 0.253452,0.1755 0.389641,0.24236 0.507036,0.0192 1.014516,0.0354 1.521871,0.0424 0.693176,0.007 1.386247,0.009 2.079459,0.0109 0.532372,10e-4 1.06443,0.002 1.596802,0.002 0.351368,1.9e-4 0.702831,4.6e-4 1.054199,5.1e-4 0.876248,10e-5 1.696235,0.0566 2.470134,0.154 1.121194,0.0394 2.243157,0.0394 3.364652,0.0522 1.45651,6.7e-4 2.909837,0.0194 4.361491,0.14366 0.967159,0.0997 1.936721,0.16623 2.907833,0.21033 0.973463,0.0319 1.94829,0.047 2.922302,0.0418 1.327852,0.0597 2.64942,0.20039 3.976502,0.27389 1.12492,0.0587 2.251361,0.0804 3.377571,0.0946 1.264231,0.0111 2.528263,0.0254 3.792534,0.0284 1.239682,0.007 2.479425,0.0181 3.719152,0.0186 1.410996,0.0207 2.821791,4.4e-4 4.232817,5.2e-4 1.377066,-0.0114 2.744077,0.11998 4.117061,0.046 1.032464,-0.0188 2.051222,-0.18277 3.075782,-0.30024 0.819771,-0.0768 1.640773,-0.14157 2.462898,-0.18707 0.555332,-0.0307 0.366622,0.04 0.574126,-0.0434 0.811782,-0.10106 1.623816,-0.20055 2.440161,-0.25528 -0.02529,-0.77599 -0.05226,-1.55193 -0.07286,-2.32802 -0.109372,-1.74634 -0.258884,-3.48967 -0.392224,-5.23431 -0.08834,-1.29714 -0.14277,-2.59587 -0.19482,-3.89485 -0.100599,-1.49826 -0.124921,-2.99969 -0.142111,-4.50102 -0.02029,-1.34201 -0.02435,-2.68408 -0.04134,-4.02611 0.0058,-1.17361 -0.02306,-2.3468 -0.03721,-3.5202 -0.0092,-1.17865 -0.02273,-2.3575 -0.02274,-3.53621 -0.01199,-1.06086 -0.007,-2.12192 -0.02222,-3.18276 -0.01751,-0.98601 -0.02144,-1.97193 -0.03669,-2.95795 -0.04644,-1.12255 -0.01993,-2.2403 0.08992,-3.35846 0.0884,-0.85814 0.103231,-1.72125 0.07545,-2.58278 -0.0097,-1.29072 -0.03181,-2.58121 -0.03721,-3.87212 0.04866,-0.86572 -0.04142,-1.70837 -0.131775,-2.56367 -0.144379,-1.2461 -0.198508,-2.49922 -0.252698,-3.75171 -0.03223,-1.12177 -0.04318,-2.24404 -0.05168,-3.3662 0.0021,-0.79998 -0.01514,-1.59997 -0.01654,-2.39985 0.0066,-0.59712 -0.0049,-1.19384 -0.02377,-1.79059 -0.03392,-0.754638 -0.08041,-1.463259 0.06976,-2.226738 0.119636,-0.608238 0.330742,-1.195222 0.496093,-1.792655 0.99077,-2.279045 2.657594,-4.003577 4.928382,-5.04517 0.41584,-0.190745 0.85849,-0.31669 1.28777,-0.474906 2.08018,-0.617373 4.24831,-0.670275 6.40013,-0.639755 1.83182,0.01016 3.66339,0.02124 5.49527,0.01654 2.03815,4e-5 4.07673,0.0076 6.11487,0.01292 2.08224,0.01419 4.16191,0.101804 6.24407,0.05994 2.0122,-0.07079 4.01955,-0.27215 6.01565,-0.530201 2.18164,-0.268282 4.36502,-0.520552 6.54585,-0.7953 2.35214,-0.258663 4.69615,-0.583168 7.03833,-0.918807 2.59404,-0.396663 5.21029,-0.600461 7.8264,-0.780831 2.16898,-0.128877 4.34151,-0.16756 6.5133,-0.21394 1.92604,-0.02522 3.85175,-0.03726 5.77794,-0.04186 2.03501,-0.04242 4.06644,0.01986 6.09782,0.134359 1.80125,0.110325 3.60466,0.169307 5.40845,0.217557 1.90974,0.055 3.821,0.05401 5.73144,0.06201 1.68337,-0.04102 3.36125,0.09188 5.03948,0.198954 1.33036,0.08999 2.66384,0.08973 3.99614,0.117823 1.37874,-1e-4 2.75745,-5.5e-5 4.13618,-0.0088 1.77623,0.02589 3.54129,0.219133 5.30459,0.417028 1.25976,0.127699 2.52187,0.227019 3.78633,0.292489 0.9323,-0.03599 1.86495,-0.08485 2.79673,-0.137459 0.50756,-0.03279 1.01612,-0.03806 1.52445,-0.05013 z M 167.0358,101.82583 c -1.8686,0.005 -3.73737,0.005 -5.60586,0.0264 -1.9363,0.0122 -3.87314,0.0539 -5.80688,0.1571 -2.22855,0.12149 -4.45364,0.31395 -6.66161,0.64647 -2.45789,0.35076 -4.92054,0.67092 -7.38766,0.94981 -2.14061,0.24036 -4.28084,0.48457 -6.41667,0.7643 -2.41752,0.30647 -4.83348,0.63227 -7.26312,0.82837 -2.29605,0.13623 -4.5936,0.21364 -6.89415,0.20464 -2.08916,-0.005 -4.17858,-0.0118 -6.26732,-0.0589 -0.31603,-0.009 -0.63179,-0.0249 -0.94774,-0.0357 -5e-5,0.0551 4e-5,0.11024 0,0.16537 -0.001,0.91677 -0.002,1.83345 -0.005,2.75022 -0.004,1.23051 -0.0101,2.46081 -0.0243,3.69124 -0.017,1.29982 -0.0446,2.59965 -0.0579,3.89951 -0.004,1.25564 0.0302,2.50366 0.27544,3.74137 0.23684,1.74433 0.44137,3.49661 0.46147,5.25911 0.003,1.88932 -0.10506,3.77648 -0.30076,5.65599 -0.1683,1.55801 -0.39063,3.10928 -0.5457,4.66844 -0.1323,1.26222 -0.31393,2.51874 -0.43253,3.7791 -0.0303,1.34895 -0.0215,2.69763 -0.0114,4.04678 0.0161,1.334 0.0268,2.66853 0.0744,4.00183 0.0307,1.07128 0.0794,2.14187 0.15245,3.21117 0.0809,1.24804 0.22457,2.49016 0.32918,3.73621 0.037,0.84856 0.0897,1.69672 0.19998,2.53938 0.0976,0.99909 0.13938,1.99877 0.11628,3.0024 -2e-4,0.58251 -0.009,1.16526 -0.0165,1.74769 -0.002,0.65662 -0.004,1.31283 -0.0134,1.96939 -0.0146,0.78046 -0.0208,1.56408 -0.14056,2.33733 -0.0465,0.23813 -0.0504,0.48901 -0.13952,0.71468 -0.52388,1.3267 -1.4774,3.75414 -3.03548,4.46588 -3.37245,1.54054 -2.84643,1.61147 -4.38681,1.38234 -0.0496,0 -0.082,0.006 -0.091,-0.0444 -0.0195,-0.0228 -0.0349,-0.0452 -0.0667,-0.0522 -0.0971,-0.0365 -0.20216,-0.0461 -0.29766,-0.0889 -0.20318,-0.0498 -0.41546,-0.0487 -0.62373,-0.0517 -0.40063,1e-4 -0.80073,0.0246 -1.20096,0.0377 -0.49563,0.0329 -0.99254,0.0276 -1.48777,0.0693 -0.57332,0.0366 -1.14546,0.10004 -1.72031,0.11214 -0.602,0.0247 -1.203759,0.0505 -1.80402,0.10128 -0.758609,0.1069 -1.519914,0.19888 -2.277897,0.31265 -1.033021,0.0965 -2.068791,0.14249 -3.102136,0.23719 -1.450084,0.12851 -2.895797,0.32064 -4.35529,0.28784 -1.462134,-0.004 -2.921758,-0.0875 -4.369759,-0.29611 -1.412728,-7e-5 -2.825794,-0.0203 -4.238501,-5.1e-4 -1.250023,-6e-4 -2.499645,0.009 -3.749642,0.0114 -1.314505,-0.003 -2.628996,0.004 -3.943428,-0.015 -1.339407,-0.0173 -2.679031,-0.0445 -4.016809,-0.11627 -1.097874,-0.0628 -2.195784,-0.13847 -3.289722,-0.25115 -1.152479,-0.0266 -2.305301,-0.0355 -3.457153,-0.0868 -1.178063,-0.055 -2.354974,-0.13237 -3.528467,-0.25166 -0.263568,-0.025 -0.52812,-0.0236 -0.7922,-0.0346 -1.314197,0.22074 -2.642925,0.2541 -3.977535,0.15864 -0.492108,-0.0541 -0.986454,-0.0554 -1.479496,-0.0853 -0.825195,0.11231 -1.709121,0.17272 -2.653068,0.1726 -0.353818,-4e-5 -0.707616,-3.3e-4 -1.061434,-5.2e-4 -0.541039,0 -1.082119,-10e-4 -1.623157,-0.002 -0.749757,-0.002 -1.49976,-0.003 -2.249475,-0.0124 -0.836905,-0.0115 -1.673421,-0.0289 -2.509407,-0.0718 -1.100021,-0.0557 -2.198591,-0.1338 -3.295406,-0.23513 -0.9522,-0.0796 -1.906892,-0.0505 -2.863392,-0.0455 -1.087601,0.008 -2.175217,0.0175 -3.262333,0.0532 -1.284387,0.048 -2.568663,0.11166 -3.84886,0.22841 -1.869655,0.1915 -3.735126,0.45371 -5.618262,0.46561 -1.543891,0 -3.087869,0.001 -4.631759,0.004 -1.50233,0.004 -3.004942,0.008 -4.507218,0.0222 -1.430015,0.0163 -2.860023,0.039 -4.289661,0.0765 -1.9025271,0.0369 -3.815162,0.0672 -5.6957762,-0.27647 -1.1386603,-0.18308 -2.2721113,-0.39381 -3.41839599,-0.52658 -0.8736602,-0.066 -1.74818732,-0.0651 -2.62361251,-0.0615 L -1.8965251,296.62169 212.41391,297.3803 210.93389,102.987 c -0.27054,0.014 -0.54114,0.0261 -0.81183,0.0367 -1.40287,0.0787 -2.80177,0.23642 -4.20905,0.22272 -1.57334,-0.0481 -3.14611,-0.12525 -4.71134,-0.29921 -1.28186,-0.121 -2.55989,-0.27838 -3.84576,-0.35398 -1.46469,-0.0196 -2.92946,-0.0306 -4.39353,-0.0837 -1.5407,-0.0328 -3.08018,-0.10961 -4.61832,-0.20361 -1.38826,-0.0888 -2.77434,-0.21348 -4.16719,-0.16898 -1.98219,-0.008 -3.96425,-0.0301 -5.94641,-0.0351 -1.98812,-0.0228 -3.9776,-0.0493 -5.96294,-0.16382 -1.74335,-0.0985 -3.48489,-0.15462 -5.23172,-0.11162 z" />
  <path
     id="path56"
     style="display:inline;fill:#000000;fill-opacity:1;stroke-width:0.264583"
     d="M 210.13808,-1.5172201 -1.5172201,-0.37930501 -1.7311605,167.1407 c 0.4917777,7.7e-4 0.98333207,-0.003 1.47587892,0.0212 1.12704968,0.0662 2.25521288,0.0945 3.38377278,0.12041 1.1561832,-0.14443 2.3335809,-0.17947 3.4990112,-0.23617 1.4492308,-0.0559 2.8983889,-0.10067 4.3485716,-0.11937 1.275888,-0.0206 2.550091,-0.0283 3.82509,0.0227 1.333909,0.0991 2.668618,0.18158 4.004923,0.23978 1.115792,0.0445 2.23262,0.0612 3.34915,0.0739 1.06385,0.0105 2.127641,0.0135 3.191536,0.0155 1.06148,0.002 2.122821,0.003 3.184302,0.003 0.861918,2.7e-4 1.723971,4.6e-4 2.585889,5.2e-4 0.720833,3e-5 1.441825,-1e-5 2.162658,0 0.767201,1e-5 1.534469,0 2.301669,0 h 1.079004 c 0.02207,-0.34569 0.06226,-0.69006 0.077,-1.03612 0.06627,-1.03052 0.244976,-2.04814 0.328146,-3.07681 0.04871,-0.98692 0.104741,-1.97048 0.221692,-2.95228 0.0977,-0.70187 0.162635,-1.40685 0.203605,-2.11408 0.03566,-0.72752 0.04384,-1.45613 0.05374,-2.18436 8.9e-4,-1.13506 0.163128,-2.26086 0.252698,-3.39049 0.04012,-1.24961 0.150532,-2.49315 0.269751,-3.73724 0.109276,-1.0534 0.155293,-2.11135 0.189653,-3.16932 0.03514,-1.40544 0.188913,-2.80464 0.282153,-4.20698 0.07466,-1.2371 0.09477,-2.47544 0.17725,-3.71191 0.116541,-1.104 0.2072,-2.20954 0.26355,-3.31815 0.05174,-1.08027 0.06448,-2.16194 0.077,-3.24321 0.01152,-1.10103 0.01404,-2.20208 0.01654,-3.30316 0.002,-1.20739 0.0022,-2.41512 0.0026,-3.62252 2.93e-4,-1.23031 4.61e-4,-2.46042 5.17e-4,-3.69073 -0.02021,-1.23264 8.67e-4,-2.46072 0.115238,-3.68866 0.102521,-0.82735 0.155074,-1.65907 0.195854,-2.49132 0.03083,-0.76108 0.04466,-1.52249 0.05426,-2.2841 0.0074,-0.60763 0.01,-1.21546 0.01189,-1.82314 -0.04751,-1.14854 0.129296,-2.2768 0.413411,-3.38739 0.836902,-2.38726 2.458253,-4.24892 4.730978,-5.38366 0.443891,-0.22162 0.924938,-0.35855 1.387512,-0.53795 1.756504,-0.55973 3.584642,-0.64802 5.411556,-0.56792 1.239628,0.047 2.475196,0.11071 3.709851,0.23358 1.14691,0.11241 2.297683,0.18084 3.448885,0.22944 0.939158,0.006 1.893235,-0.0288 2.826701,-0.14573 1.170849,-0.11464 2.333408,-0.27936 3.496944,-0.4501 1.325708,-0.19181 2.644935,-0.40984 3.977535,-0.553454 1.524971,-0.146748 3.056944,-0.200181 4.587834,-0.237711 1.229492,0.01685 2.450924,-0.06187 3.675744,-0.151412 1.631705,-0.149484 3.274097,-0.115078 4.906678,-0.235645 1.6789,-0.147709 3.361804,-0.240674 5.045686,-0.305924 2.085192,-0.06825 4.171392,-0.08188 6.2575,-0.0956 2.084834,-0.01203 4.170052,-0.01507 6.254915,-0.01757 2.055494,-0.0022 4.110544,-0.0027 6.166034,-0.0031 1.70721,0.01086 3.41158,-0.121526 5.11596,-0.206706 1.77715,-0.08368 3.55631,-0.113943 5.33508,-0.138493 1.61267,-0.02018 3.22568,-0.02474 4.83846,-0.02894 1.55622,-0.0034 3.11223,-0.0039 4.66845,-0.0047 1.27262,-5.03e-4 2.54524,-9.62e-4 3.81786,-0.001 1.14074,-0.105755 2.2849,-0.175065 3.42873,-0.238745 1.01128,-0.04771 2.01634,-0.189498 3.02359,-0.291972 1.13284,-0.110135 2.27022,-0.156519 3.40754,-0.187069 1.01493,-0.0225 2.03015,-0.02891 3.04529,-0.03411 0.74054,0.038 0.97653,-0.03451 1.70377,-0.124024 0.94914,-0.118848 1.90399,-0.173756 2.85926,-0.211356 0.48768,-0.01794 0.97552,-0.02799 1.46348,-0.03462 0.63708,-0.110337 1.27889,-0.18942 1.92185,-0.255798 -1.403,0.233792 0.19804,-0.123326 0.50022,-0.190686 0.50337,-0.117375 1.01242,-0.202719 1.52601,-0.260449 0.40116,-0.044 0.74209,-0.04887 1.06195,-0.02429 0.95956,0.07374 1.73043,0.411332 3.37344,0.745691 2.9758,1.514191 4.2195,4.036266 4.57801,7.176306 0.10226,1.17883 0.11941,2.36304 0.13591,3.54552 0.0384,1.44002 0.007,2.87745 -0.0718,4.3155 -0.0666,1.74505 -0.2086,3.48394 -0.36845,5.22242 -0.11402,1.51726 -0.24929,3.0325 -0.37879,4.54856 -0.18833,1.52488 -0.37547,3.04843 -0.49971,4.58008 -0.0907,1.16009 -0.11623,2.32413 -0.13953,3.48713 -0.007,0.3915 -0.006,0.78307 -0.0103,1.1746 0.007,0.35099 0.012,0.70225 0.0429,1.05213 0.10585,0.85738 0.33176,1.6982 0.31626,2.57039 0.004,0.46657 0.008,0.93351 0.0217,1.39991 0.0146,0.3555 0.0312,0.71115 0.0749,1.06454 0.1341,1.04872 0.29849,2.09871 0.27699,3.1595 -2e-5,0.80789 1.1e-4,1.61625 0,2.42414 -7e-5,0.7666 -2.4e-4,1.533 -0.001,2.2996 -9e-4,0.75179 0.0143,1.50513 -0.0294,2.25567 -0.0409,0.91889 -0.0344,1.83873 -0.0646,2.75798 -0.0214,1.09967 -0.0765,2.19919 -0.15968,3.29592 -0.0724,0.86219 -0.2015,1.71483 -0.1757,2.58227 -0.0127,0.44648 -0.0322,0.89269 -0.0517,1.33894 0.006,0.10942 0.021,0.21818 0.0264,0.32763 0.0291,0.65856 0.0386,1.31752 0.0491,1.97662 0.19068,-1e-5 0.38138,0 0.57206,0 0.70742,-1e-5 1.41492,0 2.12235,0 0.87171,-1e-5 1.74312,0 2.61483,0 0.0995,0.005 0.19778,-0.0169 0.29714,-0.0155 0.78622,-0.13462 1.57512,-0.24874 2.36988,-0.29559 1.01244,-0.0245 2.02409,-0.006 3.03651,-0.0351 1.13689,-0.0193 2.2711,-0.11175 3.40651,-0.16795 1.22916,-0.0214 2.45019,0.0489 3.67419,0.16691 0.88325,0.0777 1.76374,0.18176 2.63912,0.3204 0.3752,0.004 0.75033,0.0143 1.12551,0.017 0.92464,0.007 1.84933,0.008 2.77399,0.009 1.08657,6.3e-4 2.17318,8.7e-4 3.25975,0.001 1.14686,1.6e-4 2.29376,-2e-5 3.44062,0 1.58815,-0.0379 3.1717,0.0909 4.75526,0.19017 1.30436,0.0794 2.61072,0.11913 3.91708,0.14573 1.29979,0.0132 2.59875,-0.10392 3.89692,-0.17002 1.59034,-0.0787 3.18244,-0.10979 4.77438,-0.13229 0.75531,-0.0472 1.516,-0.027 2.27583,-0.0165 z M 131.83743,113.26492 c -0.76927,0.0533 -1.53829,0.11188 -2.3089,0.14159 -1.27068,1e-4 -2.54149,5.8e-4 -3.81217,0.001 -1.54546,0.001 -3.09045,0.002 -4.6359,0.005 -1.55639,0.004 -3.11319,0.009 -4.66948,0.0279 -1.59636,0.0218 -3.19284,0.0474 -4.78782,0.12093 -1.95506,0.0974 -3.91033,0.24261 -5.86889,0.22531 -2.05031,0.001 -4.10023,0.001 -6.150531,0.003 -2.057825,0.002 -4.115986,0.006 -6.173783,0.0176 -1.925391,0.0126 -3.850741,0.0243 -5.775358,0.0847 -1.553184,0.059 -3.104866,0.15073 -4.653463,0.28577 -1.591043,0.0951 -3.185304,0.11057 -4.775419,0.22634 -1.470413,0.10748 -2.94059,0.19607 -4.415751,0.18707 -1.123668,0.0265 -2.247626,0.0621 -3.367753,0.15968 -1.127774,0.11327 -2.239427,0.32736 -3.362586,0.47594 -1.382775,0.20278 -2.76656,0.3916 -4.157369,0.53175 -1.665526,0.15749 -3.343356,0.27374 -5.016748,0.21084 -1.144568,-0.0498 -2.287084,-0.13593 -3.428731,-0.23203 -0.04919,0.85902 -0.09778,1.71825 -0.199471,2.57297 -0.0672,0.61357 -0.04141,1.46873 -0.04341,2.21692 -5.6e-5,1.2315 -2.25e-4,2.46284 -5.17e-4,3.69435 -4e-4,1.21732 -4.68e-4,2.43464 -0.0026,3.65197 -0.0026,1.14854 -0.0054,2.2973 -0.01757,3.44579 -0.01501,1.2832 -0.03199,2.56643 -0.0956,3.84834 -0.06448,1.23306 -0.152819,2.46471 -0.287838,3.69228 -0.143529,1.17877 -0.02537,2.38667 -0.166915,3.56774 -0.08279,1.23171 -0.216942,2.46091 -0.256832,3.69435 -0.04577,1.37452 -0.1111,2.74834 -0.25063,4.11706 -0.112474,1.17196 -0.207304,2.34128 -0.250114,3.51865 -0.06692,0.81026 -0.180232,1.64107 -0.204122,2.36936 -0.01323,0.96308 -0.02691,1.92633 -0.0801,2.8882 -0.06259,1.01659 -0.150469,2.03163 -0.287837,3.04116 -0.09246,0.7191 -0.09213,1.58616 -0.163815,2.38745 -0.07086,0.82212 -0.142775,1.65223 -0.288354,2.46341 -0.0574,1.29658 -0.138503,2.59336 -0.320911,3.87935 -0.174357,1.12927 -0.328919,2.06963 -0.590145,3.24063 -0.573853,1.85594 -1.283631,3.31624 -2.52646,4.79919 -1.530706,1.61238 -3.270001,2.9504 -5.520077,3.3936 -1.015211,0.17627 -2.037169,0.25449 -3.066996,0.22169 h -2.046904 -2.228287 c -0.767247,0 -1.534422,1e-5 -2.301669,0 -0.721097,-10e-6 -1.442078,-4.8e-4 -2.163175,-5.2e-4 -0.863418,-5e-5 -1.727123,2.7e-4 -2.59054,0 -1.069916,-0.001 -2.139708,-0.001 -3.209623,-0.003 -1.111218,-0.002 -2.222477,-0.005 -3.333646,-0.0165 -1.279611,-0.0146 -2.559292,-0.0344 -3.838009,-0.0868 -1.372581,-0.0602 -2.744153,-0.13851 -4.113961,-0.24547 -0.945642,-0.0996 -1.910482,0.037 -2.859257,-0.004 -1.3167491,0.0169 -2.6339696,0.0206 -3.9501464,0.0651 -1.554377,0.0431 -3.1052452,0.1793 -4.6612141,0.1478 -1.2429071,-0.0627 -2.48494237,-0.14577 -3.723287,-0.27079 -0.1949868,-0.0169 -0.3918541,0.006 -0.5870443,-0.002 l -0.1462443,114.5961 214.3104351,0.75861 -0.93173,-122.38426 c -0.75159,0.16597 -1.51868,0.26571 -2.28306,0.3452 -0.81117,0.0829 -1.62525,0.11546 -2.43965,0.14676 -0.69275,0.0208 -1.38561,0.0432 -2.07842,0.0579 -0.81945,0.009 -1.63872,0.009 -2.45825,0.009 -0.75621,-0.007 -1.51232,-0.007 -2.2686,-0.007 -0.8966,0.005 -1.79356,0.007 -2.68976,0.0372 -1.04649,0.0671 -2.07784,-0.12045 -3.11143,-0.24081 -0.80286,-0.0779 -1.59129,-0.25462 -2.39159,-0.35192 -0.55264,-0.0617 -1.10855,-0.0827 -1.66398,-0.10077 -0.18155,-0.005 -0.36242,-0.0251 -0.54364,-0.0372 -0.41667,0 -0.83334,6e-5 -1.25005,0 -1.09135,0 -2.18287,-7e-5 -3.27422,-0.001 -0.95775,-0.001 -1.91549,-0.002 -2.87321,-0.009 -1.09727,-0.008 -2.19494,-0.0197 -3.29179,-0.0527 -1.27955,-0.0464 -2.55863,-0.11012 -3.83542,-0.20722 -0.78787,-0.067 -1.55784,-0.12983 -2.35335,-0.0667 -0.9483,0.0252 -1.89715,0.0526 -2.84272,0.13281 -0.6478,0.0572 -1.29867,0.0559 -1.94768,0.0966 -0.17973,0.0329 -0.36083,0.0562 -0.53795,0.0997 -1.17309,0.26972 -2.36368,0.44459 -3.55947,0.57361 -0.99159,0.10283 -1.98833,0.13751 -2.98432,0.16381 -0.72515,0.0171 -1.45027,0.0218 -2.17558,0.0258 -0.52875,0.003 -1.0577,0.004 -1.58646,0.004 -0.5308,0.0187 -1.05982,-0.0152 -1.58957,-0.0289 -1.01603,0.0317 -2.01224,-0.16924 -2.99982,-0.37569 0.0707,0.0485 -0.21568,0.005 -0.28008,-0.003 -0.94047,-0.0788 -1.78255,-0.37272 -2.57039,-0.77773 -0.56147,-0.19552 -1.01515,-0.46698 -1.36477,-0.83768 -0.0192,-0.0141 -0.0398,-0.0256 -0.0589,-0.0398 -1.62249,-1.35725 -2.51027,-2.93931 -3.13676,-4.90616 -0.34014,-1.16616 -0.40511,-2.36715 -0.41135,-3.57084 -0.0393,-0.0891 -0.0467,-0.13368 -0.0873,-0.22427 0.0239,-0.0745 0.0508,-0.14796 0.0755,-0.22221 6.5e-4,-0.0728 -0.007,-0.14523 -0.006,-0.21808 0.0721,-0.84608 0.16709,-1.68903 0.20929,-2.53731 0.0129,-1.21454 0.15621,-2.42076 0.2775,-3.62769 0.0266,-0.2756 0.0265,-0.55273 0.0439,-0.82889 -0.031,-0.42657 -0.0493,-0.85417 -0.10129,-1.27899 -0.12541,-1.05156 -0.24266,-2.10324 -0.30696,-3.16053 -0.11992,-1.33109 -0.24095,-2.66472 -0.18345,-4.00285 0.02,-1.42147 0.0433,-2.84329 0.11421,-4.26331 0.0643,-1.1286 0.15304,-2.25561 0.23874,-3.38274 1.1e-4,-1.35859 4.9e-4,-2.71713 0.001,-4.07572 0,-1.25207 8.1e-4,-2.5043 0.005,-3.75636 0.003,-0.73143 0.013,-1.46279 0.0196,-2.19418 -0.012,-0.72047 -0.018,-1.44107 -0.0217,-2.16163 -0.003,-0.71498 -0.004,-1.4296 -0.004,-2.14457 -4.3e-4,-0.75629 -4.4e-4,-1.51282 -5.1e-4,-2.26911 0.0334,-0.71783 -0.0425,-0.98451 -0.12764,-1.74098 -0.10889,-0.94901 -0.16141,-1.90318 -0.20051,-2.85719 -0.0277,-0.77346 -0.0374,-1.54743 -0.0434,-2.3213 -0.012,-0.24462 0.007,-0.48971 -0.004,-0.73433 -0.005,-0.10605 0.008,0.21256 -5.2e-4,0.31833 -0.003,0.034 -0.0131,-0.067 -0.0181,-0.10077 -0.033,-0.22687 -0.072,-0.54527 -0.0997,-0.76326 -0.0191,-0.15388 -0.02,-0.30937 -0.0362,-0.46354 -0.067,-1e-5 -0.13401,1e-5 -0.20102,0 -0.41155,-4e-5 -0.823,-5e-4 -1.23455,-5.1e-4 -0.79448,0.0309 -1.55756,-0.0847 -2.35541,-0.16899 -0.065,-0.026 -0.48308,-0.1158 -0.77101,-0.17725 -0.74824,-0.0352 -1.48121,-0.19803 -2.20349,-0.38499 -0.71069,-0.18434 -1.37433,-0.49728 -2.0779,-0.69866 -0.81597,-0.1599 -1.60108,-0.46233 -2.37712,-0.75396 -0.54392,-0.20459 -0.94725,-0.40396 -1.3162,-0.6134 z" />
</svg>
